{"glyphs":{"0":{"ha":743,"x_min":86,"x_max":657,"o":"m 371 -15 q 158 90 231 -15 q 86 392 86 194 q 159 690 86 585 q 371 796 232 796 q 583 690 510 796 q 657 392 657 585 q 584 90 657 194 q 371 -15 511 -15 m 368 39 q 527 129 472 39 q 582 392 582 219 q 528 652 582 563 q 371 742 474 742 q 214 652 268 742 q 160 392 160 563 q 213 130 160 221 q 368 39 267 39 z "},"1":{"ha":411,"x_min":65,"x_max":365,"o":"m 68 54 l 182 54 l 182 713 l 67 689 l 65 744 l 254 782 l 254 54 l 365 54 l 365 0 l 68 0 l 68 54 z "},"2":{"ha":646,"x_min":67,"x_max":568,"o":"m 568 0 l 67 0 l 67 53 l 315 303 q 451 460 414 401 q 489 585 489 518 q 447 699 489 656 q 325 742 404 742 q 196 697 243 742 q 149 572 149 653 q 160 488 149 539 l 92 488 q 79 575 79 532 q 148 735 79 675 q 333 796 217 796 q 502 740 440 796 q 564 592 564 685 q 517 447 564 515 q 360 268 471 379 l 150 58 l 500 58 l 500 203 l 567 203 l 568 0 z "},"3":{"ha":654,"x_min":42,"x_max":590,"o":"m 411 411 q 542 343 494 397 q 590 207 590 289 q 518 46 590 106 q 324 -14 446 -14 q 42 143 125 -14 l 101 178 q 325 46 169 46 q 464 89 413 46 q 515 207 515 132 q 261 381 515 381 l 261 439 q 443 478 381 439 q 506 593 506 517 q 459 699 506 660 q 328 738 413 738 q 194 701 250 738 q 114 600 139 665 l 54 628 q 158 751 86 707 q 329 796 231 796 q 510 742 444 796 q 576 596 576 689 q 532 475 576 524 q 411 411 488 426 z "},"4":{"ha":624,"x_min":13,"x_max":582,"o":"m 258 54 l 382 54 l 382 206 l 21 206 l 13 258 l 385 782 l 451 782 l 451 261 l 582 261 l 582 206 l 451 206 l 451 54 l 547 54 l 547 0 l 258 0 l 258 54 m 382 261 l 382 683 l 82 261 l 382 261 z "},"5":{"ha":672,"x_min":56,"x_max":614,"o":"m 357 496 q 547 426 479 496 q 614 242 614 357 q 538 54 614 124 q 333 -15 463 -15 q 56 115 165 -15 l 104 163 q 206 78 147 108 q 332 47 264 47 q 485 99 432 47 q 539 240 539 151 q 488 381 539 329 q 346 432 438 432 q 156 353 235 432 l 93 379 l 103 782 l 575 782 l 575 599 l 504 599 l 504 722 l 167 722 l 158 426 q 249 477 197 458 q 357 496 300 496 z "},"6":{"ha":610,"x_min":47,"x_max":564,"o":"m 326 479 q 447 449 393 479 q 533 364 501 419 q 564 238 564 308 q 492 56 564 125 q 306 -14 421 -14 q 172 17 231 -14 q 81 106 114 49 q 47 235 47 163 q 70 366 47 307 q 154 519 93 425 l 354 843 l 417 803 l 176 432 q 246 467 207 454 q 326 479 285 479 m 307 43 q 444 96 393 43 q 494 235 494 149 q 445 372 494 321 q 313 422 396 422 q 219 399 263 422 q 149 333 175 376 q 122 229 122 289 q 172 95 122 147 q 307 43 221 43 z "},"7":{"ha":590,"x_min":15,"x_max":531,"o":"m 453 725 l 89 725 l 89 579 l 15 579 l 15 782 l 531 782 l 531 729 l 267 0 l 194 0 l 453 725 z "},"8":{"ha":629,"x_min":46,"x_max":585,"o":"m 315 -15 q 117 46 189 -15 q 46 206 46 107 q 87 338 46 282 q 206 411 128 393 q 103 484 135 439 q 71 596 71 529 q 137 741 71 686 q 315 796 203 796 q 493 742 426 796 q 560 596 560 688 q 526 476 560 526 q 421 407 492 426 q 543 336 501 389 q 585 206 585 283 q 513 45 585 106 q 315 -15 440 -15 m 375 429 q 452 483 421 443 q 483 590 483 524 q 439 699 483 658 q 315 739 394 739 q 192 699 238 739 q 147 590 147 658 q 203 478 147 517 q 375 429 260 439 m 315 43 q 453 88 403 43 q 504 207 504 132 q 446 333 504 290 q 257 389 388 375 q 163 330 200 378 q 125 208 125 282 q 176 88 125 133 q 315 43 228 43 z "},"9":{"ha":610,"x_min":43,"x_max":561,"o":"m 301 797 q 435 766 376 797 q 528 678 494 735 q 561 547 561 621 q 538 417 561 475 q 454 264 515 358 l 254 -60 l 192 -21 l 429 349 q 282 304 365 304 q 160 334 214 304 q 74 419 106 364 q 43 546 43 475 q 76 676 43 619 q 167 765 108 733 q 301 797 226 797 m 296 360 q 390 383 346 360 q 460 451 433 407 q 486 554 486 494 q 437 688 486 636 q 301 740 388 740 q 165 688 215 740 q 114 549 114 635 q 163 411 114 463 q 296 360 211 360 z "},"\u0000":{"ha":0,"x_min":0,"x_max":0,"o":""},"\r":{"ha":401,"x_min":0,"x_max":0,"o":""}," ":{"ha":401,"x_min":0,"x_max":0,"o":""},"A":{"ha":938,"x_min":47,"x_max":889,"o":"m 47 54 l 150 54 l 394 728 l 303 728 l 303 782 l 638 782 l 638 728 l 542 728 l 790 54 l 889 54 l 889 0 l 601 0 l 601 54 l 704 54 l 613 313 l 318 313 l 226 54 l 329 54 l 329 0 l 47 0 l 47 54 m 596 367 l 468 725 l 463 725 l 335 367 l 596 367 z "},"Á":{"ha":938,"x_min":47,"x_max":889,"o":"m 47 54 l 150 54 l 394 728 l 303 728 l 303 782 l 638 782 l 638 728 l 542 728 l 790 54 l 889 54 l 889 0 l 601 0 l 601 54 l 704 54 l 613 313 l 318 313 l 226 54 l 329 54 l 329 0 l 47 0 l 47 54 m 596 367 l 468 725 l 463 725 l 335 367 l 596 367 m 517 1090 l 600 1090 l 494 903 l 449 903 l 517 1090 z "},"Ă":{"ha":938,"x_min":47,"x_max":889,"o":"m 47 54 l 150 54 l 394 728 l 303 728 l 303 782 l 638 782 l 638 728 l 542 728 l 790 54 l 889 54 l 889 0 l 601 0 l 601 54 l 704 54 l 613 313 l 318 313 l 226 54 l 329 54 l 329 0 l 47 0 l 47 54 m 596 367 l 468 725 l 463 725 l 335 367 l 596 367 m 467 882 q 381 913 415 882 q 340 1000 347 944 l 390 1000 q 469 929 406 929 q 520 947 500 929 q 547 1000 540 965 l 599 1000 q 556 913 590 943 q 467 882 521 882 z "},"Ắ":{"ha":938,"x_min":47,"x_max":889,"o":"m 47 54 l 150 54 l 394 728 l 303 728 l 303 782 l 638 782 l 638 728 l 542 728 l 790 54 l 889 54 l 889 0 l 601 0 l 601 54 l 704 54 l 613 313 l 318 313 l 226 54 l 329 54 l 329 0 l 47 0 l 47 54 m 596 367 l 468 725 l 463 725 l 335 367 l 596 367 m 494 1144 l 578 1144 l 483 1007 l 438 1007 l 494 1144 m 467 869 q 380 901 414 869 q 340 988 346 932 l 392 988 q 417 935 397 953 q 469 917 438 917 q 519 935 499 917 q 546 988 540 954 l 599 988 q 558 900 593 931 q 467 869 522 869 z "},"Ặ":{"ha":938,"x_min":47,"x_max":889,"o":"m 47 54 l 150 54 l 394 728 l 303 728 l 303 782 l 638 782 l 638 728 l 542 728 l 790 54 l 889 54 l 889 0 l 601 0 l 601 54 l 704 54 l 613 313 l 318 313 l 226 54 l 329 54 l 329 0 l 47 0 l 47 54 m 596 367 l 468 725 l 463 725 l 335 367 l 596 367 m 467 882 q 381 913 415 882 q 340 1000 347 944 l 390 1000 q 469 929 406 929 q 520 947 500 929 q 547 1000 540 965 l 599 1000 q 556 913 590 943 q 467 882 521 882 m 467 -174 q 427 -158 443 -174 q 411 -122 411 -143 q 426 -85 411 -100 q 467 -71 442 -71 q 506 -85 492 -71 q 521 -122 521 -100 q 508 -158 522 -142 q 467 -174 493 -174 z "},"Ằ":{"ha":938,"x_min":47,"x_max":889,"o":"m 47 54 l 150 54 l 394 728 l 303 728 l 303 782 l 638 782 l 638 728 l 542 728 l 790 54 l 889 54 l 889 0 l 601 0 l 601 54 l 704 54 l 613 313 l 318 313 l 226 54 l 329 54 l 329 0 l 47 0 l 47 54 m 596 367 l 468 725 l 463 725 l 335 367 l 596 367 m 360 1144 l 443 1144 l 500 1007 l 454 1007 l 360 1144 m 467 869 q 380 901 414 869 q 340 988 346 932 l 392 988 q 417 935 397 953 q 469 917 438 917 q 519 935 499 917 q 546 988 540 954 l 599 988 q 558 900 593 931 q 467 869 522 869 z "},"Ẳ":{"ha":938,"x_min":47,"x_max":889,"o":"m 47 54 l 150 54 l 394 728 l 303 728 l 303 782 l 638 782 l 638 728 l 542 728 l 790 54 l 889 54 l 889 0 l 601 0 l 601 54 l 704 54 l 613 313 l 318 313 l 226 54 l 329 54 l 329 0 l 47 0 l 47 54 m 596 367 l 468 725 l 463 725 l 335 367 l 596 367 m 449 1033 q 493 1082 493 1049 q 480 1110 493 1100 q 446 1121 467 1121 q 388 1103 417 1121 l 371 1149 q 450 1171 408 1171 q 522 1147 494 1171 q 549 1085 549 1122 q 464 988 549 1014 l 449 1033 m 467 869 q 380 901 414 869 q 340 988 346 932 l 392 988 q 417 935 397 953 q 469 917 438 917 q 519 935 499 917 q 546 988 540 954 l 599 988 q 558 900 593 931 q 467 869 522 869 z "},"Ẵ":{"ha":938,"x_min":47,"x_max":889,"o":"m 47 54 l 150 54 l 394 728 l 303 728 l 303 782 l 638 782 l 638 728 l 542 728 l 790 54 l 889 54 l 889 0 l 601 0 l 601 54 l 704 54 l 613 313 l 318 313 l 226 54 l 329 54 l 329 0 l 47 0 l 47 54 m 596 367 l 468 725 l 463 725 l 335 367 l 596 367 m 546 1032 q 509 1038 526 1032 q 458 1058 492 1044 q 430 1070 454 1060 q 386 1081 406 1081 q 347 1036 353 1081 l 311 1036 q 337 1110 314 1085 q 397 1136 360 1136 q 479 1111 424 1136 q 549 1089 529 1089 q 578 1099 568 1089 q 592 1133 589 1110 l 626 1133 q 604 1060 624 1088 q 546 1032 585 1032 m 467 869 q 380 901 414 869 q 340 988 346 932 l 392 988 q 417 935 397 953 q 469 917 438 917 q 519 935 499 917 q 546 988 540 954 l 599 988 q 558 900 593 931 q 467 869 522 869 z "},"Ǎ":{"ha":938,"x_min":47,"x_max":889,"o":"m 47 54 l 150 54 l 394 728 l 303 728 l 303 782 l 638 782 l 638 728 l 542 728 l 790 54 l 889 54 l 889 0 l 601 0 l 601 54 l 704 54 l 613 313 l 318 313 l 226 54 l 329 54 l 329 0 l 47 0 l 47 54 m 596 367 l 468 725 l 463 725 l 335 367 l 596 367 m 321 1083 l 376 1083 l 471 921 l 563 1083 l 617 1083 l 503 874 l 438 874 l 321 1083 z "},"Â":{"ha":938,"x_min":47,"x_max":889,"o":"m 47 54 l 150 54 l 394 728 l 303 728 l 303 782 l 638 782 l 638 728 l 542 728 l 790 54 l 889 54 l 889 0 l 601 0 l 601 54 l 704 54 l 613 313 l 318 313 l 226 54 l 329 54 l 329 0 l 47 0 l 47 54 m 596 367 l 468 725 l 463 725 l 335 367 l 596 367 m 433 1076 l 507 1076 l 622 863 l 565 863 l 469 1039 l 374 863 l 317 863 l 433 1076 z "},"Ấ":{"ha":938,"x_min":47,"x_max":889,"o":"m 47 54 l 150 54 l 394 728 l 303 728 l 303 782 l 638 782 l 638 728 l 542 728 l 790 54 l 889 54 l 889 0 l 601 0 l 601 54 l 704 54 l 613 313 l 318 313 l 226 54 l 329 54 l 329 0 l 47 0 l 47 54 m 596 367 l 468 725 l 463 725 l 335 367 l 596 367 m 638 1144 l 713 1144 l 626 986 l 579 986 l 638 1144 m 433 1035 l 507 1035 l 622 863 l 565 863 l 469 997 l 374 863 l 317 863 l 433 1035 z "},"Ậ":{"ha":938,"x_min":47,"x_max":889,"o":"m 47 54 l 150 54 l 394 728 l 303 728 l 303 782 l 638 782 l 638 728 l 542 728 l 790 54 l 889 54 l 889 0 l 601 0 l 601 54 l 704 54 l 613 313 l 318 313 l 226 54 l 329 54 l 329 0 l 47 0 l 47 54 m 596 367 l 468 725 l 463 725 l 335 367 l 596 367 m 433 1076 l 507 1076 l 622 863 l 565 863 l 469 1039 l 374 863 l 317 863 l 433 1076 m 467 -174 q 427 -158 443 -174 q 411 -122 411 -143 q 426 -85 411 -100 q 467 -71 442 -71 q 506 -85 492 -71 q 521 -122 521 -100 q 508 -158 522 -142 q 467 -174 493 -174 z "},"Ầ":{"ha":938,"x_min":47,"x_max":889,"o":"m 47 54 l 150 54 l 394 728 l 303 728 l 303 782 l 638 782 l 638 728 l 542 728 l 790 54 l 889 54 l 889 0 l 601 0 l 601 54 l 704 54 l 613 313 l 318 313 l 226 54 l 329 54 l 329 0 l 47 0 l 47 54 m 596 367 l 468 725 l 463 725 l 335 367 l 596 367 m 603 986 l 517 1144 l 590 1144 l 650 986 l 603 986 m 433 1035 l 507 1035 l 622 863 l 565 863 l 469 997 l 374 863 l 317 863 l 433 1035 z "},"Ẩ":{"ha":938,"x_min":47,"x_max":889,"o":"m 47 54 l 150 54 l 394 728 l 303 728 l 303 782 l 638 782 l 638 728 l 542 728 l 790 54 l 889 54 l 889 0 l 601 0 l 601 54 l 704 54 l 613 313 l 318 313 l 226 54 l 329 54 l 329 0 l 47 0 l 47 54 m 596 367 l 468 725 l 463 725 l 335 367 l 596 367 m 571 1024 q 615 1072 615 1039 q 603 1101 615 1090 q 568 1111 590 1111 q 508 1093 540 1111 l 490 1139 q 574 1161 529 1161 q 645 1137 618 1161 q 672 1075 672 1113 q 588 976 672 1003 l 571 1024 m 433 1035 l 507 1035 l 622 863 l 565 863 l 469 997 l 374 863 l 317 863 l 433 1035 z "},"Ẫ":{"ha":938,"x_min":47,"x_max":889,"o":"m 47 54 l 150 54 l 394 728 l 303 728 l 303 782 l 638 782 l 638 728 l 542 728 l 790 54 l 889 54 l 889 0 l 601 0 l 601 54 l 704 54 l 613 313 l 318 313 l 226 54 l 329 54 l 329 0 l 47 0 l 47 54 m 596 367 l 468 725 l 463 725 l 335 367 l 596 367 m 546 1065 q 507 1072 526 1065 q 458 1090 488 1078 q 430 1102 454 1092 q 386 1113 406 1113 q 347 1068 353 1113 l 311 1068 q 337 1142 314 1117 q 397 1168 360 1168 q 479 1143 424 1168 q 549 1121 529 1121 q 578 1131 568 1121 q 592 1165 589 1142 l 626 1165 q 604 1092 624 1119 q 546 1065 585 1065 m 433 1035 l 507 1035 l 622 863 l 565 863 l 469 997 l 374 863 l 317 863 l 433 1035 z "},"Ȁ":{"ha":938,"x_min":47,"x_max":889,"o":"m 47 54 l 150 54 l 394 728 l 303 728 l 303 782 l 638 782 l 638 728 l 542 728 l 790 54 l 889 54 l 889 0 l 601 0 l 601 54 l 704 54 l 613 313 l 318 313 l 226 54 l 329 54 l 329 0 l 47 0 l 47 54 m 596 367 l 468 725 l 463 725 l 335 367 l 596 367 m 236 1110 l 319 1110 l 396 903 l 350 903 l 236 1110 m 400 1110 l 483 1110 l 558 903 l 514 903 l 400 1110 z "},"Ä":{"ha":938,"x_min":47,"x_max":889,"o":"m 47 54 l 150 54 l 394 728 l 303 728 l 303 782 l 638 782 l 638 728 l 542 728 l 790 54 l 889 54 l 889 0 l 601 0 l 601 54 l 704 54 l 613 313 l 318 313 l 226 54 l 329 54 l 329 0 l 47 0 l 47 54 m 596 367 l 468 725 l 463 725 l 335 367 l 596 367 m 347 888 q 312 900 325 888 q 299 935 299 913 q 312 968 299 956 q 347 981 325 981 q 382 968 369 981 q 394 935 394 956 q 382 900 394 913 q 347 888 369 888 m 592 888 q 558 900 571 888 q 544 933 544 913 q 558 968 544 956 q 592 981 571 981 q 627 968 614 981 q 640 933 640 956 q 627 900 640 913 q 592 888 614 888 z "},"Ȧ":{"ha":938,"x_min":47,"x_max":889,"o":"m 47 54 l 150 54 l 394 728 l 303 728 l 303 782 l 638 782 l 638 728 l 542 728 l 790 54 l 889 54 l 889 0 l 601 0 l 601 54 l 704 54 l 613 313 l 318 313 l 226 54 l 329 54 l 329 0 l 47 0 l 47 54 m 596 367 l 468 725 l 463 725 l 335 367 l 596 367 m 469 889 q 430 905 446 889 q 414 940 414 921 q 429 978 414 963 q 469 993 444 993 q 509 978 494 993 q 524 940 524 964 q 510 905 525 921 q 469 889 496 889 z "},"Ạ":{"ha":938,"x_min":47,"x_max":889,"o":"m 47 54 l 150 54 l 394 728 l 303 728 l 303 782 l 638 782 l 638 728 l 542 728 l 790 54 l 889 54 l 889 0 l 601 0 l 601 54 l 704 54 l 613 313 l 318 313 l 226 54 l 329 54 l 329 0 l 47 0 l 47 54 m 596 367 l 468 725 l 463 725 l 335 367 l 596 367 m 467 -174 q 427 -158 443 -174 q 411 -122 411 -143 q 426 -85 411 -100 q 467 -71 442 -71 q 506 -85 492 -71 q 521 -122 521 -100 q 508 -158 522 -142 q 467 -174 493 -174 z "},"À":{"ha":938,"x_min":47,"x_max":889,"o":"m 47 54 l 150 54 l 394 728 l 303 728 l 303 782 l 638 782 l 638 728 l 542 728 l 790 54 l 889 54 l 889 0 l 601 0 l 601 54 l 704 54 l 613 313 l 318 313 l 226 54 l 329 54 l 329 0 l 47 0 l 47 54 m 596 367 l 468 725 l 463 725 l 335 367 l 596 367 m 339 1090 l 422 1090 l 490 903 l 444 903 l 339 1090 z "},"Ả":{"ha":938,"x_min":47,"x_max":889,"o":"m 47 54 l 150 54 l 394 728 l 303 728 l 303 782 l 638 782 l 638 728 l 542 728 l 790 54 l 889 54 l 889 0 l 601 0 l 601 54 l 704 54 l 613 313 l 318 313 l 226 54 l 329 54 l 329 0 l 47 0 l 47 54 m 596 367 l 468 725 l 463 725 l 335 367 l 596 367 m 453 890 q 497 939 497 906 q 485 967 497 957 q 450 978 472 978 q 390 960 422 978 l 372 1006 q 456 1028 411 1028 q 527 1003 500 1028 q 554 942 554 979 q 469 843 554 869 l 453 890 z "},"Ȃ":{"ha":938,"x_min":47,"x_max":889,"o":"m 47 54 l 150 54 l 394 728 l 303 728 l 303 782 l 638 782 l 638 728 l 542 728 l 790 54 l 889 54 l 889 0 l 601 0 l 601 54 l 704 54 l 613 313 l 318 313 l 226 54 l 329 54 l 329 0 l 47 0 l 47 54 m 596 367 l 468 725 l 463 725 l 335 367 l 596 367 m 335 875 q 378 966 343 933 q 469 999 414 999 q 560 966 525 999 q 603 875 596 933 l 546 875 q 469 943 529 943 q 393 875 408 943 l 335 875 z "},"Ā":{"ha":938,"x_min":47,"x_max":889,"o":"m 47 54 l 150 54 l 394 728 l 303 728 l 303 782 l 638 782 l 638 728 l 542 728 l 790 54 l 889 54 l 889 0 l 601 0 l 601 54 l 704 54 l 613 313 l 318 313 l 226 54 l 329 54 l 329 0 l 47 0 l 47 54 m 596 367 l 468 725 l 463 725 l 335 367 l 596 367 m 332 946 l 607 946 l 607 899 l 332 899 l 332 946 z "},"Ą":{"ha":938,"x_min":47,"x_max":889,"o":"m 47 54 l 150 54 l 394 728 l 303 728 l 303 782 l 638 782 l 638 728 l 542 728 l 790 54 l 889 54 l 889 0 l 601 0 l 601 54 l 704 54 l 613 313 l 318 313 l 226 54 l 329 54 l 329 0 l 47 0 l 47 54 m 596 367 l 468 725 l 463 725 l 335 367 l 596 367 m 757 -225 q 684 -199 714 -225 q 654 -131 654 -172 q 729 0 654 -68 l 776 0 q 711 -115 711 -68 q 729 -160 711 -144 q 775 -176 747 -176 q 839 -156 808 -176 l 839 -199 q 757 -225 796 -225 z "},"Å":{"ha":938,"x_min":47,"x_max":889,"o":"m 47 54 l 150 54 l 394 728 l 303 728 l 303 782 l 638 782 l 638 728 l 542 728 l 790 54 l 889 54 l 889 0 l 601 0 l 601 54 l 704 54 l 613 313 l 318 313 l 226 54 l 329 54 l 329 0 l 47 0 l 47 54 m 596 367 l 468 725 l 463 725 l 335 367 l 596 367 m 469 853 q 399 878 425 853 q 372 943 372 903 q 398 1010 372 985 q 469 1036 424 1036 q 540 1011 514 1036 q 567 946 567 986 q 540 878 567 904 q 469 853 514 853 m 469 885 q 513 902 497 885 q 529 946 529 919 q 513 987 529 971 q 469 1003 497 1003 q 426 987 442 1003 q 410 946 410 971 q 426 902 410 919 q 469 885 442 885 z "},"Ǻ":{"ha":938,"x_min":47,"x_max":889,"o":"m 47 54 l 150 54 l 394 728 l 303 728 l 303 782 l 638 782 l 638 728 l 542 728 l 790 54 l 889 54 l 889 0 l 601 0 l 601 54 l 704 54 l 613 313 l 318 313 l 226 54 l 329 54 l 329 0 l 47 0 l 47 54 m 596 367 l 468 725 l 463 725 l 335 367 l 596 367 m 469 853 q 399 878 425 853 q 372 943 372 903 q 398 1010 372 985 q 469 1036 424 1036 q 540 1011 514 1036 q 567 946 567 986 q 540 878 567 904 q 469 853 514 853 m 469 885 q 513 902 497 885 q 529 946 529 919 q 513 987 529 971 q 469 1003 497 1003 q 426 987 442 1003 q 410 946 410 971 q 426 902 410 919 q 469 885 442 885 m 517 1274 l 600 1274 l 494 1086 l 449 1086 l 517 1274 z "},"Ã":{"ha":938,"x_min":47,"x_max":889,"o":"m 47 54 l 150 54 l 394 728 l 303 728 l 303 782 l 638 782 l 638 728 l 542 728 l 790 54 l 889 54 l 889 0 l 601 0 l 601 54 l 704 54 l 613 313 l 318 313 l 226 54 l 329 54 l 329 0 l 47 0 l 47 54 m 596 367 l 468 725 l 463 725 l 335 367 l 596 367 m 551 897 q 511 904 531 897 q 458 926 492 911 q 419 944 439 936 q 383 951 399 951 q 342 900 347 951 l 306 900 q 331 979 308 951 q 392 1007 354 1007 q 479 978 421 1007 q 554 953 532 953 q 599 1004 593 953 l 633 1004 q 551 897 629 897 z "},"Æ":{"ha":1353,"x_min":36,"x_max":1283,"o":"m 36 54 l 149 54 l 547 728 l 457 728 l 457 782 l 1188 782 l 1211 526 l 1149 526 l 1126 728 l 713 728 l 744 421 l 1013 421 l 1001 524 l 1046 524 l 1076 253 l 1031 253 l 1017 364 l 747 364 l 778 54 l 1215 54 l 1194 256 l 1258 256 l 1283 0 l 589 0 l 589 54 l 696 54 l 672 289 l 369 289 l 236 54 l 333 54 l 333 0 l 36 0 l 36 54 m 669 340 l 631 728 l 621 728 l 396 340 l 669 340 z "},"Ǽ":{"ha":1353,"x_min":36,"x_max":1283,"o":"m 36 54 l 149 54 l 547 728 l 457 728 l 457 782 l 1188 782 l 1211 526 l 1149 526 l 1126 728 l 713 728 l 744 421 l 1013 421 l 1001 524 l 1046 524 l 1076 253 l 1031 253 l 1017 364 l 747 364 l 778 54 l 1215 54 l 1194 256 l 1258 256 l 1283 0 l 589 0 l 589 54 l 696 54 l 672 289 l 369 289 l 236 54 l 333 54 l 333 0 l 36 0 l 36 54 m 669 340 l 631 728 l 621 728 l 396 340 l 669 340 m 843 1090 l 926 1090 l 821 903 l 775 903 l 843 1090 z "},"Ǣ":{"ha":1353,"x_min":36,"x_max":1283,"o":"m 36 54 l 149 54 l 547 728 l 457 728 l 457 782 l 1188 782 l 1211 526 l 1149 526 l 1126 728 l 713 728 l 744 421 l 1013 421 l 1001 524 l 1046 524 l 1076 253 l 1031 253 l 1017 364 l 747 364 l 778 54 l 1215 54 l 1194 256 l 1258 256 l 1283 0 l 589 0 l 589 54 l 696 54 l 672 289 l 369 289 l 236 54 l 333 54 l 333 0 l 36 0 l 36 54 m 669 340 l 631 728 l 621 728 l 396 340 l 669 340 m 658 946 l 933 946 l 933 899 l 658 899 l 658 946 z "},"B":{"ha":838,"x_min":67,"x_max":774,"o":"m 67 54 l 179 54 l 179 728 l 67 728 l 67 782 l 479 782 q 665 733 601 782 q 729 589 729 685 q 697 476 729 522 q 611 415 665 431 q 733 344 693 397 q 774 218 774 292 q 711 61 774 122 q 524 0 649 0 l 67 0 l 67 54 m 492 439 q 611 478 572 439 q 650 586 650 517 q 603 694 650 661 q 458 728 557 728 l 261 728 l 261 439 l 492 439 m 511 54 q 646 99 600 54 q 692 221 692 143 q 643 339 692 294 q 500 383 594 383 l 261 383 l 261 54 l 511 54 z "},"Ḃ":{"ha":838,"x_min":67,"x_max":774,"o":"m 67 54 l 179 54 l 179 728 l 67 728 l 67 782 l 479 782 q 665 733 601 782 q 729 589 729 685 q 697 476 729 522 q 611 415 665 431 q 733 344 693 397 q 774 218 774 292 q 711 61 774 122 q 524 0 649 0 l 67 0 l 67 54 m 492 439 q 611 478 572 439 q 650 586 650 517 q 603 694 650 661 q 458 728 557 728 l 261 728 l 261 439 l 492 439 m 511 54 q 646 99 600 54 q 692 221 692 143 q 643 339 692 294 q 500 383 594 383 l 261 383 l 261 54 l 511 54 m 372 889 q 333 905 349 889 q 317 940 317 921 q 332 978 317 963 q 372 993 347 993 q 412 978 397 993 q 426 940 426 964 q 413 905 428 921 q 372 889 399 889 z "},"C":{"ha":936,"x_min":74,"x_max":843,"o":"m 843 194 q 481 -15 744 -12 q 276 35 369 -14 q 128 176 183 83 q 74 393 74 268 q 124 599 74 507 q 268 743 175 690 q 482 796 361 796 q 771 651 683 796 l 771 782 l 833 782 l 833 554 l 779 549 q 661 690 731 646 q 485 735 592 735 q 310 689 385 735 q 195 565 235 643 q 156 393 156 486 q 201 207 156 286 q 321 87 246 128 q 485 46 396 46 q 663 88 583 46 q 785 225 743 131 l 843 194 z "},"Ć":{"ha":936,"x_min":74,"x_max":843,"o":"m 843 194 q 481 -15 744 -12 q 276 35 369 -14 q 128 176 183 83 q 74 393 74 268 q 124 599 74 507 q 268 743 175 690 q 482 796 361 796 q 771 651 683 796 l 771 782 l 833 782 l 833 554 l 779 549 q 661 690 731 646 q 485 735 592 735 q 310 689 385 735 q 195 565 235 643 q 156 393 156 486 q 201 207 156 286 q 321 87 246 128 q 485 46 396 46 q 663 88 583 46 q 785 225 743 131 l 843 194 m 533 1090 l 617 1090 l 511 903 l 465 903 l 533 1090 z "},"Č":{"ha":936,"x_min":74,"x_max":843,"o":"m 843 194 q 481 -15 744 -12 q 276 35 369 -14 q 128 176 183 83 q 74 393 74 268 q 124 599 74 507 q 268 743 175 690 q 482 796 361 796 q 771 651 683 796 l 771 782 l 833 782 l 833 554 l 779 549 q 661 690 731 646 q 485 735 592 735 q 310 689 385 735 q 195 565 235 643 q 156 393 156 486 q 201 207 156 286 q 321 87 246 128 q 485 46 396 46 q 663 88 583 46 q 785 225 743 131 l 843 194 m 338 1083 l 393 1083 l 488 921 l 579 1083 l 633 1083 l 519 874 l 454 874 l 338 1083 z "},"Ç":{"ha":936,"x_min":74,"x_max":843,"o":"m 843 194 q 702 37 792 86 q 490 -15 613 -12 l 471 -79 q 542 -102 518 -82 q 565 -153 565 -122 q 540 -207 565 -189 q 475 -225 514 -225 q 376 -201 426 -225 l 376 -171 q 446 -182 418 -182 q 499 -149 499 -182 q 417 -108 499 -110 l 454 -14 q 262 43 349 -7 q 124 183 175 93 q 74 393 74 272 q 124 599 74 507 q 268 743 175 690 q 482 796 361 796 q 771 651 683 796 l 771 782 l 833 782 l 833 554 l 779 549 q 661 690 731 646 q 485 735 592 735 q 310 689 385 735 q 195 565 235 643 q 156 393 156 486 q 201 207 156 286 q 321 87 246 128 q 485 46 396 46 q 663 88 583 46 q 785 225 743 131 l 843 194 z "},"Ḉ":{"ha":936,"x_min":74,"x_max":843,"o":"m 511 903 l 465 903 l 533 1090 l 617 1090 l 511 903 m 843 194 q 702 37 792 86 q 490 -15 613 -12 l 471 -79 q 542 -102 518 -82 q 565 -153 565 -122 q 540 -207 565 -189 q 475 -225 514 -225 q 376 -201 426 -225 l 376 -171 q 446 -182 418 -182 q 499 -149 499 -182 q 417 -108 499 -110 l 454 -14 q 262 43 349 -7 q 124 183 175 93 q 74 393 74 272 q 124 599 74 507 q 268 743 175 690 q 482 796 361 796 q 771 651 683 796 l 771 782 l 833 782 l 833 554 l 779 549 q 661 690 731 646 q 485 735 592 735 q 310 689 385 735 q 195 565 235 643 q 156 393 156 486 q 201 207 156 286 q 321 87 246 128 q 485 46 396 46 q 663 88 583 46 q 785 225 743 131 l 843 194 z "},"Ĉ":{"ha":936,"x_min":74,"x_max":843,"o":"m 843 194 q 481 -15 744 -12 q 276 35 369 -14 q 128 176 183 83 q 74 393 74 268 q 124 599 74 507 q 268 743 175 690 q 482 796 361 796 q 771 651 683 796 l 771 782 l 833 782 l 833 554 l 779 549 q 661 690 731 646 q 485 735 592 735 q 310 689 385 735 q 195 565 235 643 q 156 393 156 486 q 201 207 156 286 q 321 87 246 128 q 485 46 396 46 q 663 88 583 46 q 785 225 743 131 l 843 194 m 450 1076 l 524 1076 l 639 863 l 582 863 l 486 1039 l 390 863 l 333 863 l 450 1076 z "},"Ċ":{"ha":936,"x_min":74,"x_max":843,"o":"m 843 194 q 481 -15 744 -12 q 276 35 369 -14 q 128 176 183 83 q 74 393 74 268 q 124 599 74 507 q 268 743 175 690 q 482 796 361 796 q 771 651 683 796 l 771 782 l 833 782 l 833 554 l 779 549 q 661 690 731 646 q 485 735 592 735 q 310 689 385 735 q 195 565 235 643 q 156 393 156 486 q 201 207 156 286 q 321 87 246 128 q 485 46 396 46 q 663 88 583 46 q 785 225 743 131 l 843 194 m 486 889 q 447 905 463 889 q 431 940 431 921 q 446 978 431 963 q 486 993 461 993 q 526 978 511 993 q 540 940 540 964 q 527 905 542 921 q 486 889 513 889 z "},"D":{"ha":958,"x_min":68,"x_max":883,"o":"m 68 54 l 181 54 l 181 728 l 68 728 l 68 782 l 511 782 q 716 726 632 782 q 842 581 800 669 q 883 394 883 492 q 841 198 883 288 q 715 54 799 108 q 514 0 632 0 l 68 0 l 68 54 m 504 54 q 668 101 601 54 q 767 224 735 147 q 800 392 800 300 q 767 555 800 478 q 669 680 735 632 q 508 728 603 728 l 263 728 l 263 54 l 504 54 z "},"Ǳ":{"ha":1775,"x_min":68,"x_max":1690,"o":"m 68 54 l 181 54 l 181 728 l 68 728 l 68 782 l 511 782 q 716 726 632 782 q 842 581 800 669 q 883 394 883 492 q 841 198 883 288 q 715 54 799 108 q 514 0 632 0 l 68 0 l 68 54 m 504 54 q 668 101 601 54 q 767 224 735 147 q 800 392 800 300 q 767 555 800 478 q 669 680 735 632 q 508 728 603 728 l 263 728 l 263 54 l 504 54 m 1049 58 l 1579 728 l 1131 728 l 1131 533 l 1069 533 l 1069 782 l 1676 782 l 1676 729 l 1144 54 l 1628 54 l 1628 260 l 1690 260 l 1690 0 l 1049 0 l 1049 58 z "},"Ǆ":{"ha":1775,"x_min":68,"x_max":1690,"o":"m 68 54 l 181 54 l 181 728 l 68 728 l 68 782 l 511 782 q 716 726 632 782 q 842 581 800 669 q 883 394 883 492 q 841 198 883 288 q 715 54 799 108 q 514 0 632 0 l 68 0 l 68 54 m 504 54 q 668 101 601 54 q 767 224 735 147 q 800 392 800 300 q 767 555 800 478 q 669 680 735 632 q 508 728 603 728 l 263 728 l 263 54 l 504 54 m 1049 58 l 1579 728 l 1131 728 l 1131 533 l 1069 533 l 1069 782 l 1676 782 l 1676 729 l 1144 54 l 1628 54 l 1628 260 l 1690 260 l 1690 0 l 1049 0 l 1049 58 m 1225 1083 l 1281 1083 l 1375 921 l 1467 1083 l 1521 1083 l 1407 874 l 1342 874 l 1225 1083 z "},"Ð":{"ha":958,"x_min":68,"x_max":883,"o":"m 511 782 q 716 726 632 782 q 842 581 800 669 q 883 394 883 492 q 841 198 883 288 q 715 54 799 108 q 514 0 632 0 l 68 0 l 68 54 l 181 54 l 181 371 l 68 371 l 68 428 l 181 428 l 181 728 l 68 728 l 68 782 l 511 782 m 504 54 q 668 101 601 54 q 767 224 735 147 q 800 392 800 300 q 767 555 800 478 q 669 680 735 632 q 508 728 603 728 l 263 728 l 263 428 l 408 428 l 408 371 l 263 371 l 263 54 l 504 54 z "},"Ď":{"ha":958,"x_min":68,"x_max":883,"o":"m 68 54 l 181 54 l 181 728 l 68 728 l 68 782 l 511 782 q 716 726 632 782 q 842 581 800 669 q 883 394 883 492 q 841 198 883 288 q 715 54 799 108 q 514 0 632 0 l 68 0 l 68 54 m 504 54 q 668 101 601 54 q 767 224 735 147 q 800 392 800 300 q 767 555 800 478 q 669 680 735 632 q 508 728 603 728 l 263 728 l 263 54 l 504 54 m 371 1083 l 426 1083 l 521 921 l 613 1083 l 667 1083 l 553 874 l 488 874 l 371 1083 z "},"Đ":{"ha":958,"x_min":68,"x_max":883,"o":"m 511 782 q 716 726 632 782 q 842 581 800 669 q 883 394 883 492 q 841 198 883 288 q 715 54 799 108 q 514 0 632 0 l 68 0 l 68 54 l 181 54 l 181 371 l 68 371 l 68 428 l 181 428 l 181 728 l 68 728 l 68 782 l 511 782 m 504 54 q 668 101 601 54 q 767 224 735 147 q 800 392 800 300 q 767 555 800 478 q 669 680 735 632 q 508 728 603 728 l 263 728 l 263 428 l 408 428 l 408 371 l 263 371 l 263 54 l 504 54 z "},"Ḋ":{"ha":958,"x_min":68,"x_max":883,"o":"m 68 54 l 181 54 l 181 728 l 68 728 l 68 782 l 511 782 q 716 726 632 782 q 842 581 800 669 q 883 394 883 492 q 841 198 883 288 q 715 54 799 108 q 514 0 632 0 l 68 0 l 68 54 m 504 54 q 668 101 601 54 q 767 224 735 147 q 800 392 800 300 q 767 555 800 478 q 669 680 735 632 q 508 728 603 728 l 263 728 l 263 54 l 504 54 m 519 889 q 480 905 496 889 q 464 940 464 921 q 479 978 464 963 q 519 993 494 993 q 559 978 544 993 q 574 940 574 964 q 560 905 575 921 q 519 889 546 889 z "},"Ḍ":{"ha":958,"x_min":68,"x_max":883,"o":"m 68 54 l 181 54 l 181 728 l 68 728 l 68 782 l 511 782 q 716 726 632 782 q 842 581 800 669 q 883 394 883 492 q 841 198 883 288 q 715 54 799 108 q 514 0 632 0 l 68 0 l 68 54 m 504 54 q 668 101 601 54 q 767 224 735 147 q 800 392 800 300 q 767 555 800 478 q 669 680 735 632 q 508 728 603 728 l 263 728 l 263 54 l 504 54 m 521 -174 q 481 -158 497 -174 q 465 -122 465 -143 q 481 -85 465 -100 q 521 -71 496 -71 q 560 -85 546 -71 q 575 -122 575 -100 q 562 -158 576 -142 q 521 -174 547 -174 z "},"Ḏ":{"ha":958,"x_min":68,"x_max":883,"o":"m 68 54 l 181 54 l 181 728 l 68 728 l 68 782 l 511 782 q 716 726 632 782 q 842 581 800 669 q 883 394 883 492 q 841 198 883 288 q 715 54 799 108 q 514 0 632 0 l 68 0 l 68 54 m 504 54 q 668 101 601 54 q 767 224 735 147 q 800 392 800 300 q 767 555 800 478 q 669 680 735 632 q 508 728 603 728 l 263 728 l 263 54 l 504 54 m 383 -61 l 658 -61 l 658 -108 l 383 -108 l 383 -61 z "},"ǲ":{"ha":1501,"x_min":68,"x_max":1422,"o":"m 68 54 l 181 54 l 181 728 l 68 728 l 68 782 l 511 782 q 716 726 632 782 q 842 581 800 669 q 883 394 883 492 q 841 198 883 288 q 715 54 799 108 q 514 0 632 0 l 68 0 l 68 54 m 504 54 q 668 101 601 54 q 767 224 735 147 q 800 392 800 300 q 767 555 800 478 q 669 680 735 632 q 508 728 603 728 l 263 728 l 263 54 l 504 54 m 960 56 l 1329 493 l 1032 493 l 1032 372 l 972 372 l 972 546 l 1413 546 l 1413 486 l 1047 51 l 1361 51 l 1361 189 l 1422 189 l 1422 0 l 960 0 l 960 56 z "},"ǅ":{"ha":1582,"x_min":68,"x_max":1503,"o":"m 68 54 l 181 54 l 181 728 l 68 728 l 68 782 l 511 782 q 716 726 632 782 q 842 581 800 669 q 883 394 883 492 q 841 198 883 288 q 715 54 799 108 q 514 0 632 0 l 68 0 l 68 54 m 504 54 q 668 101 601 54 q 767 224 735 147 q 800 392 800 300 q 767 555 800 478 q 669 680 735 632 q 508 728 603 728 l 263 728 l 263 54 l 504 54 m 1040 56 l 1410 493 l 1113 493 l 1113 372 l 1053 372 l 1053 546 l 1493 546 l 1493 486 l 1128 51 l 1442 51 l 1442 189 l 1503 189 l 1503 0 l 1040 0 l 1040 56 m 1132 847 l 1188 847 l 1282 685 l 1374 847 l 1428 847 l 1314 638 l 1249 638 l 1132 847 z "},"E":{"ha":818,"x_min":67,"x_max":740,"o":"m 67 54 l 179 54 l 179 728 l 67 728 l 67 782 l 729 782 l 729 554 l 664 554 l 664 728 l 261 728 l 261 431 l 524 431 l 524 532 l 569 532 l 569 268 l 524 268 l 524 374 l 261 374 l 261 54 l 675 54 l 675 232 l 740 232 l 740 0 l 67 0 l 67 54 z "},"É":{"ha":818,"x_min":67,"x_max":740,"o":"m 67 54 l 179 54 l 179 728 l 67 728 l 67 782 l 729 782 l 729 554 l 664 554 l 664 728 l 261 728 l 261 431 l 524 431 l 524 532 l 569 532 l 569 268 l 524 268 l 524 374 l 261 374 l 261 54 l 675 54 l 675 232 l 740 232 l 740 0 l 67 0 l 67 54 m 489 1090 l 572 1090 l 467 903 l 421 903 l 489 1090 z "},"Ĕ":{"ha":818,"x_min":67,"x_max":740,"o":"m 67 54 l 179 54 l 179 728 l 67 728 l 67 782 l 729 782 l 729 554 l 664 554 l 664 728 l 261 728 l 261 431 l 524 431 l 524 532 l 569 532 l 569 268 l 524 268 l 524 374 l 261 374 l 261 54 l 675 54 l 675 232 l 740 232 l 740 0 l 67 0 l 67 54 m 439 882 q 353 913 388 882 q 313 1000 319 944 l 363 1000 q 442 929 378 929 q 492 947 472 929 q 519 1000 513 965 l 571 1000 q 528 913 563 943 q 439 882 493 882 z "},"Ě":{"ha":818,"x_min":67,"x_max":740,"o":"m 67 54 l 179 54 l 179 728 l 67 728 l 67 782 l 729 782 l 729 554 l 664 554 l 664 728 l 261 728 l 261 431 l 524 431 l 524 532 l 569 532 l 569 268 l 524 268 l 524 374 l 261 374 l 261 54 l 675 54 l 675 232 l 740 232 l 740 0 l 67 0 l 67 54 m 293 1083 l 349 1083 l 443 921 l 535 1083 l 589 1083 l 475 874 l 410 874 l 293 1083 z "},"Ȩ":{"ha":818,"x_min":67,"x_max":740,"o":"m 67 54 l 179 54 l 179 728 l 67 728 l 67 782 l 729 782 l 729 554 l 664 554 l 664 728 l 261 728 l 261 431 l 524 431 l 524 532 l 569 532 l 569 268 l 524 268 l 524 374 l 261 374 l 261 54 l 675 54 l 675 232 l 740 232 l 740 0 l 67 0 l 67 54 m 460 -225 q 361 -201 411 -225 l 361 -171 q 431 -182 403 -182 q 483 -149 483 -182 q 401 -108 483 -110 l 444 0 l 479 0 l 456 -79 q 526 -102 503 -82 q 550 -153 550 -122 q 524 -207 550 -189 q 460 -225 499 -225 z "},"Ḝ":{"ha":818,"x_min":67,"x_max":740,"o":"m 67 54 l 179 54 l 179 728 l 67 728 l 67 782 l 729 782 l 729 554 l 664 554 l 664 728 l 261 728 l 261 431 l 524 431 l 524 532 l 569 532 l 569 268 l 524 268 l 524 374 l 261 374 l 261 54 l 675 54 l 675 232 l 740 232 l 740 0 l 67 0 l 67 54 m 460 -225 q 361 -201 411 -225 l 361 -171 q 431 -182 403 -182 q 483 -149 483 -182 q 401 -108 483 -110 l 444 0 l 479 0 l 456 -79 q 526 -102 503 -82 q 550 -153 550 -122 q 524 -207 550 -189 q 460 -225 499 -225 m 439 882 q 353 913 388 882 q 313 1000 319 944 l 363 1000 q 442 929 378 929 q 492 947 472 929 q 519 1000 513 965 l 571 1000 q 528 913 563 943 q 439 882 493 882 z "},"Ê":{"ha":818,"x_min":67,"x_max":740,"o":"m 67 54 l 179 54 l 179 728 l 67 728 l 67 782 l 729 782 l 729 554 l 664 554 l 664 728 l 261 728 l 261 431 l 524 431 l 524 532 l 569 532 l 569 268 l 524 268 l 524 374 l 261 374 l 261 54 l 675 54 l 675 232 l 740 232 l 740 0 l 67 0 l 67 54 m 406 1076 l 479 1076 l 594 863 l 538 863 l 442 1039 l 346 863 l 289 863 l 406 1076 z "},"Ế":{"ha":818,"x_min":67,"x_max":740,"o":"m 67 54 l 179 54 l 179 728 l 67 728 l 67 782 l 729 782 l 729 554 l 664 554 l 664 728 l 261 728 l 261 431 l 524 431 l 524 532 l 569 532 l 569 268 l 524 268 l 524 374 l 261 374 l 261 54 l 675 54 l 675 232 l 740 232 l 740 0 l 67 0 l 67 54 m 610 1144 l 685 1144 l 599 986 l 551 986 l 610 1144 m 406 1035 l 479 1035 l 594 863 l 538 863 l 442 997 l 346 863 l 289 863 l 406 1035 z "},"Ệ":{"ha":818,"x_min":67,"x_max":740,"o":"m 67 54 l 179 54 l 179 728 l 67 728 l 67 782 l 729 782 l 729 554 l 664 554 l 664 728 l 261 728 l 261 431 l 524 431 l 524 532 l 569 532 l 569 268 l 524 268 l 524 374 l 261 374 l 261 54 l 675 54 l 675 232 l 740 232 l 740 0 l 67 0 l 67 54 m 406 1076 l 479 1076 l 594 863 l 538 863 l 442 1039 l 346 863 l 289 863 l 406 1076 m 461 -174 q 422 -158 438 -174 q 406 -122 406 -143 q 421 -85 406 -100 q 461 -71 436 -71 q 501 -85 486 -71 q 515 -122 515 -100 q 502 -158 517 -142 q 461 -174 488 -174 z "},"Ề":{"ha":818,"x_min":67,"x_max":740,"o":"m 67 54 l 179 54 l 179 728 l 67 728 l 67 782 l 729 782 l 729 554 l 664 554 l 664 728 l 261 728 l 261 431 l 524 431 l 524 532 l 569 532 l 569 268 l 524 268 l 524 374 l 261 374 l 261 54 l 675 54 l 675 232 l 740 232 l 740 0 l 67 0 l 67 54 m 575 986 l 489 1144 l 563 1144 l 622 986 l 575 986 m 406 1035 l 479 1035 l 594 863 l 538 863 l 442 997 l 346 863 l 289 863 l 406 1035 z "},"Ể":{"ha":818,"x_min":67,"x_max":740,"o":"m 67 54 l 179 54 l 179 728 l 67 728 l 67 782 l 729 782 l 729 554 l 664 554 l 664 728 l 261 728 l 261 431 l 524 431 l 524 532 l 569 532 l 569 268 l 524 268 l 524 374 l 261 374 l 261 54 l 675 54 l 675 232 l 740 232 l 740 0 l 67 0 l 67 54 m 543 1024 q 588 1072 588 1039 q 575 1101 588 1090 q 540 1111 563 1111 q 481 1093 513 1111 l 463 1139 q 546 1161 501 1161 q 617 1137 590 1161 q 644 1075 644 1113 q 560 976 644 1003 l 543 1024 m 406 1035 l 479 1035 l 594 863 l 538 863 l 442 997 l 346 863 l 289 863 l 406 1035 z "},"Ễ":{"ha":818,"x_min":67,"x_max":740,"o":"m 67 54 l 179 54 l 179 728 l 67 728 l 67 782 l 729 782 l 729 554 l 664 554 l 664 728 l 261 728 l 261 431 l 524 431 l 524 532 l 569 532 l 569 268 l 524 268 l 524 374 l 261 374 l 261 54 l 675 54 l 675 232 l 740 232 l 740 0 l 67 0 l 67 54 m 518 1065 q 479 1072 499 1065 q 431 1090 460 1078 q 402 1102 426 1092 q 358 1113 378 1113 q 319 1068 325 1113 l 283 1068 q 309 1142 286 1117 q 369 1168 332 1168 q 451 1143 396 1168 q 521 1121 501 1121 q 551 1131 540 1121 q 564 1165 561 1142 l 599 1165 q 576 1092 596 1119 q 518 1065 557 1065 m 406 1035 l 479 1035 l 594 863 l 538 863 l 442 997 l 346 863 l 289 863 l 406 1035 z "},"Ȅ":{"ha":818,"x_min":67,"x_max":740,"o":"m 67 54 l 179 54 l 179 728 l 67 728 l 67 782 l 729 782 l 729 554 l 664 554 l 664 728 l 261 728 l 261 431 l 524 431 l 524 532 l 569 532 l 569 268 l 524 268 l 524 374 l 261 374 l 261 54 l 675 54 l 675 232 l 740 232 l 740 0 l 67 0 l 67 54 m 208 1110 l 292 1110 l 368 903 l 322 903 l 208 1110 m 372 1110 l 456 1110 l 531 903 l 486 903 l 372 1110 z "},"Ë":{"ha":818,"x_min":67,"x_max":740,"o":"m 67 54 l 179 54 l 179 728 l 67 728 l 67 782 l 729 782 l 729 554 l 664 554 l 664 728 l 261 728 l 261 431 l 524 431 l 524 532 l 569 532 l 569 268 l 524 268 l 524 374 l 261 374 l 261 54 l 675 54 l 675 232 l 740 232 l 740 0 l 67 0 l 67 54 m 319 888 q 284 900 297 888 q 271 935 271 913 q 284 968 271 956 q 319 981 297 981 q 354 968 342 981 q 367 935 367 956 q 354 900 367 913 q 319 888 342 888 m 564 888 q 530 900 543 888 q 517 933 517 913 q 530 968 517 956 q 564 981 543 981 q 599 968 586 981 q 613 933 613 956 q 599 900 613 913 q 564 888 586 888 z "},"Ė":{"ha":818,"x_min":67,"x_max":740,"o":"m 67 54 l 179 54 l 179 728 l 67 728 l 67 782 l 729 782 l 729 554 l 664 554 l 664 728 l 261 728 l 261 431 l 524 431 l 524 532 l 569 532 l 569 268 l 524 268 l 524 374 l 261 374 l 261 54 l 675 54 l 675 232 l 740 232 l 740 0 l 67 0 l 67 54 m 442 889 q 402 905 418 889 q 386 940 386 921 q 401 978 386 963 q 442 993 417 993 q 481 978 467 993 q 496 940 496 964 q 483 905 497 921 q 442 889 468 889 z "},"Ẹ":{"ha":818,"x_min":67,"x_max":740,"o":"m 67 54 l 179 54 l 179 728 l 67 728 l 67 782 l 729 782 l 729 554 l 664 554 l 664 728 l 261 728 l 261 431 l 524 431 l 524 532 l 569 532 l 569 268 l 524 268 l 524 374 l 261 374 l 261 54 l 675 54 l 675 232 l 740 232 l 740 0 l 67 0 l 67 54 m 461 -174 q 422 -158 438 -174 q 406 -122 406 -143 q 421 -85 406 -100 q 461 -71 436 -71 q 501 -85 486 -71 q 515 -122 515 -100 q 502 -158 517 -142 q 461 -174 488 -174 z "},"È":{"ha":818,"x_min":67,"x_max":740,"o":"m 67 54 l 179 54 l 179 728 l 67 728 l 67 782 l 729 782 l 729 554 l 664 554 l 664 728 l 261 728 l 261 431 l 524 431 l 524 532 l 569 532 l 569 268 l 524 268 l 524 374 l 261 374 l 261 54 l 675 54 l 675 232 l 740 232 l 740 0 l 67 0 l 67 54 m 311 1090 l 394 1090 l 463 903 l 417 903 l 311 1090 z "},"Ẻ":{"ha":818,"x_min":67,"x_max":740,"o":"m 67 54 l 179 54 l 179 728 l 67 728 l 67 782 l 729 782 l 729 554 l 664 554 l 664 728 l 261 728 l 261 431 l 524 431 l 524 532 l 569 532 l 569 268 l 524 268 l 524 374 l 261 374 l 261 54 l 675 54 l 675 232 l 740 232 l 740 0 l 67 0 l 67 54 m 425 890 q 469 939 469 906 q 457 967 469 957 q 422 978 444 978 q 363 960 394 978 l 344 1006 q 428 1028 383 1028 q 499 1003 472 1028 q 526 942 526 979 q 442 843 526 869 l 425 890 z "},"Ȇ":{"ha":818,"x_min":67,"x_max":740,"o":"m 67 54 l 179 54 l 179 728 l 67 728 l 67 782 l 729 782 l 729 554 l 664 554 l 664 728 l 261 728 l 261 431 l 524 431 l 524 532 l 569 532 l 569 268 l 524 268 l 524 374 l 261 374 l 261 54 l 675 54 l 675 232 l 740 232 l 740 0 l 67 0 l 67 54 m 307 875 q 351 966 315 933 q 442 999 386 999 q 533 966 497 999 q 575 875 568 933 l 518 875 q 442 943 501 943 q 365 875 381 943 l 307 875 z "},"Ē":{"ha":818,"x_min":67,"x_max":740,"o":"m 67 54 l 179 54 l 179 728 l 67 728 l 67 782 l 729 782 l 729 554 l 664 554 l 664 728 l 261 728 l 261 431 l 524 431 l 524 532 l 569 532 l 569 268 l 524 268 l 524 374 l 261 374 l 261 54 l 675 54 l 675 232 l 740 232 l 740 0 l 67 0 l 67 54 m 304 946 l 579 946 l 579 899 l 304 899 l 304 946 z "},"Ḗ":{"ha":818,"x_min":67,"x_max":740,"o":"m 67 54 l 179 54 l 179 728 l 67 728 l 67 782 l 729 782 l 729 554 l 664 554 l 664 728 l 261 728 l 261 431 l 524 431 l 524 532 l 569 532 l 569 268 l 524 268 l 524 374 l 261 374 l 261 54 l 675 54 l 675 232 l 740 232 l 740 0 l 67 0 l 67 54 m 304 946 l 579 946 l 579 899 l 304 899 l 304 946 m 489 1239 l 572 1239 l 467 1051 l 421 1051 l 489 1239 z "},"Ḕ":{"ha":818,"x_min":67,"x_max":740,"o":"m 67 54 l 179 54 l 179 728 l 67 728 l 67 782 l 729 782 l 729 554 l 664 554 l 664 728 l 261 728 l 261 431 l 524 431 l 524 532 l 569 532 l 569 268 l 524 268 l 524 374 l 261 374 l 261 54 l 675 54 l 675 232 l 740 232 l 740 0 l 67 0 l 67 54 m 304 946 l 579 946 l 579 899 l 304 899 l 304 946 m 311 1239 l 394 1239 l 463 1051 l 417 1051 l 311 1239 z "},"Ę":{"ha":818,"x_min":67,"x_max":740,"o":"m 67 54 l 179 54 l 179 728 l 67 728 l 67 782 l 729 782 l 729 554 l 664 554 l 664 728 l 261 728 l 261 431 l 524 431 l 524 532 l 569 532 l 569 268 l 524 268 l 524 374 l 261 374 l 261 54 l 675 54 l 675 232 l 740 232 l 740 0 l 67 0 l 67 54 m 650 -225 q 577 -199 607 -225 q 547 -131 547 -172 q 622 0 547 -68 l 669 0 q 604 -115 604 -68 q 622 -160 604 -144 q 668 -176 640 -176 q 732 -156 701 -176 l 732 -199 q 650 -225 689 -225 z "},"Ẽ":{"ha":818,"x_min":67,"x_max":740,"o":"m 67 54 l 179 54 l 179 728 l 67 728 l 67 782 l 729 782 l 729 554 l 664 554 l 664 728 l 261 728 l 261 431 l 524 431 l 524 532 l 569 532 l 569 268 l 524 268 l 524 374 l 261 374 l 261 54 l 675 54 l 675 232 l 740 232 l 740 0 l 67 0 l 67 54 m 524 897 q 483 904 503 897 q 431 926 464 911 q 391 944 411 936 q 356 951 371 951 q 314 900 319 951 l 278 900 q 303 979 281 951 q 364 1007 326 1007 q 451 978 393 1007 q 526 953 504 953 q 571 1004 565 953 l 606 1004 q 524 897 601 897 z "},"F":{"ha":769,"x_min":67,"x_max":725,"o":"m 67 54 l 179 54 l 179 728 l 67 728 l 67 782 l 725 782 l 725 543 l 661 543 l 661 728 l 261 728 l 261 433 l 519 433 l 519 528 l 565 528 l 565 271 l 519 271 l 519 375 l 261 375 l 261 54 l 374 54 l 374 0 l 67 0 l 67 54 z "},"Ḟ":{"ha":769,"x_min":67,"x_max":725,"o":"m 67 54 l 179 54 l 179 728 l 67 728 l 67 782 l 725 782 l 725 543 l 661 543 l 661 728 l 261 728 l 261 433 l 519 433 l 519 528 l 565 528 l 565 271 l 519 271 l 519 375 l 261 375 l 261 54 l 374 54 l 374 0 l 67 0 l 67 54 m 425 889 q 385 905 401 889 q 369 940 369 921 q 385 978 369 963 q 425 993 400 993 q 465 978 450 993 q 479 940 479 964 q 466 905 481 921 q 425 889 451 889 z "},"G":{"ha":949,"x_min":72,"x_max":871,"o":"m 871 385 l 871 360 q 819 148 871 232 q 682 25 768 64 q 489 -14 596 -14 q 267 37 361 -14 q 122 180 172 88 q 72 394 72 272 q 124 605 72 514 q 270 746 176 696 q 488 796 364 796 q 649 762 576 796 q 769 668 722 728 l 769 782 l 836 782 l 836 554 l 778 554 q 665 689 740 642 q 490 736 589 736 q 248 645 338 736 q 158 399 158 554 q 199 212 158 292 q 315 90 240 132 q 492 47 390 47 q 701 116 613 49 q 792 328 790 183 l 622 328 l 622 385 l 871 385 z "},"Ǵ":{"ha":949,"x_min":72,"x_max":871,"o":"m 871 385 l 871 360 q 819 148 871 232 q 682 25 768 64 q 489 -14 596 -14 q 267 37 361 -14 q 122 180 172 88 q 72 394 72 272 q 124 605 72 514 q 270 746 176 696 q 488 796 364 796 q 649 762 576 796 q 769 668 722 728 l 769 782 l 836 782 l 836 554 l 778 554 q 665 689 740 642 q 490 736 589 736 q 248 645 338 736 q 158 399 158 554 q 199 212 158 292 q 315 90 240 132 q 492 47 390 47 q 701 116 613 49 q 792 328 790 183 l 622 328 l 622 385 l 871 385 m 532 1090 l 615 1090 l 510 903 l 464 903 l 532 1090 z "},"Ğ":{"ha":949,"x_min":72,"x_max":871,"o":"m 871 385 l 871 360 q 819 148 871 232 q 682 25 768 64 q 489 -14 596 -14 q 267 37 361 -14 q 122 180 172 88 q 72 394 72 272 q 124 605 72 514 q 270 746 176 696 q 488 796 364 796 q 649 762 576 796 q 769 668 722 728 l 769 782 l 836 782 l 836 554 l 778 554 q 665 689 740 642 q 490 736 589 736 q 248 645 338 736 q 158 399 158 554 q 199 212 158 292 q 315 90 240 132 q 492 47 390 47 q 701 116 613 49 q 792 328 790 183 l 622 328 l 622 385 l 871 385 m 482 882 q 397 913 431 882 q 356 1000 363 944 l 406 1000 q 485 929 421 929 q 535 947 515 929 q 563 1000 556 965 l 614 1000 q 571 913 606 943 q 482 882 536 882 z "},"Ǧ":{"ha":949,"x_min":72,"x_max":871,"o":"m 871 385 l 871 360 q 819 148 871 232 q 682 25 768 64 q 489 -14 596 -14 q 267 37 361 -14 q 122 180 172 88 q 72 394 72 272 q 124 605 72 514 q 270 746 176 696 q 488 796 364 796 q 649 762 576 796 q 769 668 722 728 l 769 782 l 836 782 l 836 554 l 778 554 q 665 689 740 642 q 490 736 589 736 q 248 645 338 736 q 158 399 158 554 q 199 212 158 292 q 315 90 240 132 q 492 47 390 47 q 701 116 613 49 q 792 328 790 183 l 622 328 l 622 385 l 871 385 m 336 1083 l 392 1083 l 486 921 l 578 1083 l 632 1083 l 518 874 l 453 874 l 336 1083 z "},"Ĝ":{"ha":949,"x_min":72,"x_max":871,"o":"m 871 385 l 871 360 q 819 148 871 232 q 682 25 768 64 q 489 -14 596 -14 q 267 37 361 -14 q 122 180 172 88 q 72 394 72 272 q 124 605 72 514 q 270 746 176 696 q 488 796 364 796 q 649 762 576 796 q 769 668 722 728 l 769 782 l 836 782 l 836 554 l 778 554 q 665 689 740 642 q 490 736 589 736 q 248 645 338 736 q 158 399 158 554 q 199 212 158 292 q 315 90 240 132 q 492 47 390 47 q 701 116 613 49 q 792 328 790 183 l 622 328 l 622 385 l 871 385 m 449 1076 l 522 1076 l 638 863 l 581 863 l 485 1039 l 389 863 l 332 863 l 449 1076 z "},"Ģ":{"ha":949,"x_min":72,"x_max":871,"o":"m 871 385 l 871 360 q 819 148 871 232 q 682 25 768 64 q 489 -14 596 -14 q 267 37 361 -14 q 122 180 172 88 q 72 394 72 272 q 124 605 72 514 q 270 746 176 696 q 488 796 364 796 q 649 762 576 796 q 769 668 722 728 l 769 782 l 836 782 l 836 554 l 778 554 q 665 689 740 642 q 490 736 589 736 q 248 645 338 736 q 158 399 158 554 q 199 212 158 292 q 315 90 240 132 q 492 47 390 47 q 701 116 613 49 q 792 328 790 183 l 622 328 l 622 385 l 871 385 m 428 -265 q 478 -235 464 -260 q 493 -167 493 -211 l 435 -167 l 435 -71 l 538 -71 l 538 -172 q 428 -297 538 -299 l 428 -265 z "},"Ġ":{"ha":949,"x_min":72,"x_max":871,"o":"m 871 385 l 871 360 q 819 148 871 232 q 682 25 768 64 q 489 -14 596 -14 q 267 37 361 -14 q 122 180 172 88 q 72 394 72 272 q 124 605 72 514 q 270 746 176 696 q 488 796 364 796 q 649 762 576 796 q 769 668 722 728 l 769 782 l 836 782 l 836 554 l 778 554 q 665 689 740 642 q 490 736 589 736 q 248 645 338 736 q 158 399 158 554 q 199 212 158 292 q 315 90 240 132 q 492 47 390 47 q 701 116 613 49 q 792 328 790 183 l 622 328 l 622 385 l 871 385 m 485 889 q 445 905 461 889 q 429 940 429 921 q 444 978 429 963 q 485 993 460 993 q 524 978 510 993 q 539 940 539 964 q 526 905 540 921 q 485 889 511 889 z "},"Ḡ":{"ha":949,"x_min":72,"x_max":871,"o":"m 871 385 l 871 360 q 819 148 871 232 q 682 25 768 64 q 489 -14 596 -14 q 267 37 361 -14 q 122 180 172 88 q 72 394 72 272 q 124 605 72 514 q 270 746 176 696 q 488 796 364 796 q 649 762 576 796 q 769 668 722 728 l 769 782 l 836 782 l 836 554 l 778 554 q 665 689 740 642 q 490 736 589 736 q 248 645 338 736 q 158 399 158 554 q 199 212 158 292 q 315 90 240 132 q 492 47 390 47 q 701 116 613 49 q 792 328 790 183 l 622 328 l 622 385 l 871 385 m 347 946 l 622 946 l 622 899 l 347 899 l 347 946 z "},"H":{"ha":989,"x_min":67,"x_max":921,"o":"m 67 54 l 179 54 l 179 728 l 67 728 l 67 782 l 374 782 l 374 728 l 261 728 l 261 428 l 728 428 l 728 728 l 614 728 l 614 782 l 921 782 l 921 728 l 808 728 l 808 54 l 921 54 l 921 0 l 614 0 l 614 54 l 728 54 l 728 369 l 261 369 l 261 54 l 374 54 l 374 0 l 67 0 l 67 54 z "},"Ħ":{"ha":989,"x_min":67,"x_max":921,"o":"m 808 728 l 808 601 l 883 601 l 883 550 l 808 550 l 808 54 l 921 54 l 921 0 l 614 0 l 614 54 l 728 54 l 728 369 l 261 369 l 261 54 l 374 54 l 374 0 l 67 0 l 67 54 l 179 54 l 179 550 l 106 550 l 106 601 l 179 601 l 179 728 l 67 728 l 67 782 l 374 782 l 374 728 l 261 728 l 261 601 l 728 601 l 728 728 l 614 728 l 614 782 l 921 782 l 921 728 l 808 728 m 728 550 l 261 550 l 261 428 l 728 428 l 728 550 z "},"Ḫ":{"ha":989,"x_min":67,"x_max":921,"o":"m 67 54 l 179 54 l 179 728 l 67 728 l 67 782 l 374 782 l 374 728 l 261 728 l 261 428 l 728 428 l 728 728 l 614 728 l 614 782 l 921 782 l 921 728 l 808 728 l 808 54 l 921 54 l 921 0 l 614 0 l 614 54 l 728 54 l 728 369 l 261 369 l 261 54 l 374 54 l 374 0 l 67 0 l 67 54 m 490 -189 q 405 -158 439 -189 q 364 -71 371 -126 l 414 -71 q 493 -142 429 -142 q 544 -124 524 -142 q 571 -71 564 -106 l 622 -71 q 579 -158 614 -128 q 490 -189 544 -189 z "},"Ȟ":{"ha":989,"x_min":67,"x_max":921,"o":"m 67 54 l 179 54 l 179 728 l 67 728 l 67 782 l 374 782 l 374 728 l 261 728 l 261 428 l 728 428 l 728 728 l 614 728 l 614 782 l 921 782 l 921 728 l 808 728 l 808 54 l 921 54 l 921 0 l 614 0 l 614 54 l 728 54 l 728 369 l 261 369 l 261 54 l 374 54 l 374 0 l 67 0 l 67 54 m 347 1083 l 403 1083 l 497 921 l 589 1083 l 643 1083 l 529 874 l 464 874 l 347 1083 z "},"Ĥ":{"ha":989,"x_min":67,"x_max":921,"o":"m 67 54 l 179 54 l 179 728 l 67 728 l 67 782 l 374 782 l 374 728 l 261 728 l 261 428 l 728 428 l 728 728 l 614 728 l 614 782 l 921 782 l 921 728 l 808 728 l 808 54 l 921 54 l 921 0 l 614 0 l 614 54 l 728 54 l 728 369 l 261 369 l 261 54 l 374 54 l 374 0 l 67 0 l 67 54 m 460 1076 l 533 1076 l 649 863 l 592 863 l 496 1039 l 400 863 l 343 863 l 460 1076 z "},"Ḥ":{"ha":989,"x_min":67,"x_max":921,"o":"m 67 54 l 179 54 l 179 728 l 67 728 l 67 782 l 374 782 l 374 728 l 261 728 l 261 428 l 728 428 l 728 728 l 614 728 l 614 782 l 921 782 l 921 728 l 808 728 l 808 54 l 921 54 l 921 0 l 614 0 l 614 54 l 728 54 l 728 369 l 261 369 l 261 54 l 374 54 l 374 0 l 67 0 l 67 54 m 493 -174 q 453 -158 469 -174 q 438 -122 438 -143 q 453 -85 438 -100 q 493 -71 468 -71 q 533 -85 518 -71 q 547 -122 547 -100 q 534 -158 549 -142 q 493 -174 519 -174 z "},"I":{"ha":454,"x_min":72,"x_max":381,"o":"m 72 54 l 185 54 l 185 728 l 72 728 l 72 782 l 381 782 l 381 728 l 267 728 l 267 54 l 381 54 l 381 0 l 72 0 l 72 54 z "},"Ĳ":{"ha":876,"x_min":72,"x_max":840,"o":"m 72 54 l 185 54 l 185 728 l 72 728 l 72 782 l 381 782 l 381 728 l 267 728 l 267 54 l 381 54 l 381 0 l 72 0 l 72 54 m 510 -37 l 593 -37 q 651 -10 638 -37 q 665 79 665 17 l 665 728 l 565 728 l 565 782 l 840 782 l 840 728 l 747 728 l 747 76 q 713 -61 747 -21 q 600 -101 679 -101 l 510 -101 l 510 -37 z "},"Í":{"ha":454,"x_min":72,"x_max":381,"o":"m 72 54 l 185 54 l 185 728 l 72 728 l 72 782 l 381 782 l 381 728 l 267 728 l 267 54 l 381 54 l 381 0 l 72 0 l 72 54 m 275 1090 l 358 1090 l 253 903 l 207 903 l 275 1090 z "},"Ĭ":{"ha":454,"x_min":72,"x_max":381,"o":"m 72 54 l 185 54 l 185 728 l 72 728 l 72 782 l 381 782 l 381 728 l 267 728 l 267 54 l 381 54 l 381 0 l 72 0 l 72 54 m 225 882 q 140 913 174 882 q 99 1000 106 944 l 149 1000 q 228 929 164 929 q 278 947 258 929 q 306 1000 299 965 l 357 1000 q 314 913 349 943 q 225 882 279 882 z "},"Ǐ":{"ha":454,"x_min":72,"x_max":381,"o":"m 72 54 l 185 54 l 185 728 l 72 728 l 72 782 l 381 782 l 381 728 l 267 728 l 267 54 l 381 54 l 381 0 l 72 0 l 72 54 m 79 1083 l 135 1083 l 229 921 l 321 1083 l 375 1083 l 261 874 l 196 874 l 79 1083 z "},"Î":{"ha":454,"x_min":72,"x_max":381,"o":"m 72 54 l 185 54 l 185 728 l 72 728 l 72 782 l 381 782 l 381 728 l 267 728 l 267 54 l 381 54 l 381 0 l 72 0 l 72 54 m 192 1076 l 265 1076 l 381 863 l 324 863 l 228 1039 l 132 863 l 75 863 l 192 1076 z "},"Ȉ":{"ha":454,"x_min":-6,"x_max":381,"o":"m 72 54 l 185 54 l 185 728 l 72 728 l 72 782 l 381 782 l 381 728 l 267 728 l 267 54 l 381 54 l 381 0 l 72 0 l 72 54 m -6 1110 l 78 1110 l 154 903 l 108 903 l -6 1110 m 158 1110 l 242 1110 l 317 903 l 272 903 l 158 1110 z "},"Ï":{"ha":454,"x_min":57,"x_max":399,"o":"m 72 54 l 185 54 l 185 728 l 72 728 l 72 782 l 381 782 l 381 728 l 267 728 l 267 54 l 381 54 l 381 0 l 72 0 l 72 54 m 106 888 q 70 900 83 888 q 57 935 57 913 q 70 968 57 956 q 106 981 83 981 q 140 968 128 981 q 153 935 153 956 q 140 900 153 913 q 106 888 128 888 m 350 888 q 316 900 329 888 q 303 933 303 913 q 316 968 303 956 q 350 981 329 981 q 385 968 372 981 q 399 933 399 956 q 385 900 399 913 q 350 888 372 888 z "},"Ḯ":{"ha":454,"x_min":57,"x_max":399,"o":"m 72 54 l 185 54 l 185 728 l 72 728 l 72 782 l 381 782 l 381 728 l 267 728 l 267 54 l 381 54 l 381 0 l 72 0 l 72 54 m 106 888 q 70 900 83 888 q 57 935 57 913 q 70 968 57 956 q 106 981 83 981 q 140 968 128 981 q 153 935 153 956 q 140 900 153 913 q 106 888 128 888 m 350 888 q 316 900 329 888 q 303 933 303 913 q 316 968 303 956 q 350 981 329 981 q 385 968 372 981 q 399 933 399 956 q 385 900 399 913 q 350 888 372 888 m 275 1294 l 358 1294 l 253 1107 l 207 1107 l 275 1294 z "},"İ":{"ha":454,"x_min":72,"x_max":381,"o":"m 72 54 l 185 54 l 185 728 l 72 728 l 72 782 l 381 782 l 381 728 l 267 728 l 267 54 l 381 54 l 381 0 l 72 0 l 72 54 m 228 889 q 188 905 204 889 q 172 940 172 921 q 188 978 172 963 q 228 993 203 993 q 267 978 253 993 q 282 940 282 964 q 269 905 283 921 q 228 889 254 889 z "},"Ị":{"ha":454,"x_min":72,"x_max":381,"o":"m 72 54 l 185 54 l 185 728 l 72 728 l 72 782 l 381 782 l 381 728 l 267 728 l 267 54 l 381 54 l 381 0 l 72 0 l 72 54 m 226 -174 q 187 -158 203 -174 q 171 -122 171 -143 q 186 -85 171 -100 q 226 -71 201 -71 q 266 -85 251 -71 q 281 -122 281 -100 q 267 -158 282 -142 q 226 -174 253 -174 z "},"Ì":{"ha":454,"x_min":72,"x_max":381,"o":"m 72 54 l 185 54 l 185 728 l 72 728 l 72 782 l 381 782 l 381 728 l 267 728 l 267 54 l 381 54 l 381 0 l 72 0 l 72 54 m 97 1090 l 181 1090 l 249 903 l 203 903 l 97 1090 z "},"Ỉ":{"ha":454,"x_min":72,"x_max":381,"o":"m 72 54 l 185 54 l 185 728 l 72 728 l 72 782 l 381 782 l 381 728 l 267 728 l 267 54 l 381 54 l 381 0 l 72 0 l 72 54 m 211 890 q 256 939 256 906 q 243 967 256 957 q 208 978 231 978 q 149 960 181 978 l 131 1006 q 214 1028 169 1028 q 285 1003 258 1028 q 313 942 313 979 q 228 843 313 869 l 211 890 z "},"Ȋ":{"ha":454,"x_min":72,"x_max":381,"o":"m 72 54 l 185 54 l 185 728 l 72 728 l 72 782 l 381 782 l 381 728 l 267 728 l 267 54 l 381 54 l 381 0 l 72 0 l 72 54 m 93 875 q 137 966 101 933 q 228 999 172 999 q 319 966 283 999 q 361 875 354 933 l 304 875 q 228 943 288 943 q 151 875 167 943 l 93 875 z "},"Ī":{"ha":454,"x_min":72,"x_max":381,"o":"m 72 54 l 185 54 l 185 728 l 72 728 l 72 782 l 381 782 l 381 728 l 267 728 l 267 54 l 381 54 l 381 0 l 72 0 l 72 54 m 90 946 l 365 946 l 365 899 l 90 899 l 90 946 z "},"Į":{"ha":454,"x_min":72,"x_max":381,"o":"m 72 54 l 185 54 l 185 728 l 72 728 l 72 782 l 381 782 l 381 728 l 267 728 l 267 54 l 381 54 l 381 0 l 72 0 l 72 54 m 228 -225 q 155 -199 185 -225 q 125 -131 125 -172 q 200 0 125 -68 l 247 0 q 182 -115 182 -68 q 200 -160 182 -144 q 246 -176 218 -176 q 310 -156 279 -176 l 310 -199 q 228 -225 267 -225 z "},"Ĩ":{"ha":454,"x_min":64,"x_max":392,"o":"m 72 54 l 185 54 l 185 728 l 72 728 l 72 782 l 381 782 l 381 728 l 267 728 l 267 54 l 381 54 l 381 0 l 72 0 l 72 54 m 310 897 q 269 904 289 897 q 217 926 250 911 q 177 944 197 936 q 142 951 157 951 q 100 900 106 951 l 64 900 q 90 979 67 951 q 150 1007 113 1007 q 238 978 179 1007 q 313 953 290 953 q 357 1004 351 953 l 392 1004 q 310 897 388 897 z "},"J":{"ha":422,"x_min":56,"x_max":386,"o":"m 56 -37 l 139 -37 q 197 -10 183 -37 q 211 79 211 17 l 211 728 l 111 728 l 111 782 l 386 782 l 386 728 l 293 728 l 293 76 q 259 -61 293 -21 q 146 -101 225 -101 l 56 -101 l 56 -37 z "},"Ĵ":{"ha":422,"x_min":56,"x_max":406,"o":"m 56 -37 l 139 -37 q 197 -10 183 -37 q 211 79 211 17 l 211 728 l 111 728 l 111 782 l 386 782 l 386 728 l 293 728 l 293 76 q 259 -61 293 -21 q 146 -101 225 -101 l 56 -101 l 56 -37 m 217 1076 l 290 1076 l 406 863 l 349 863 l 253 1039 l 157 863 l 100 863 l 217 1076 z "},"K":{"ha":881,"x_min":67,"x_max":835,"o":"m 67 54 l 179 54 l 179 728 l 67 728 l 67 782 l 374 782 l 374 728 l 261 728 l 261 406 l 617 728 l 521 728 l 521 782 l 821 782 l 821 728 l 713 728 l 349 396 l 728 54 l 835 54 l 835 0 l 531 0 l 531 54 l 628 54 l 261 382 l 261 54 l 374 54 l 374 0 l 67 0 l 67 54 z "},"Ǩ":{"ha":881,"x_min":67,"x_max":835,"o":"m 67 54 l 179 54 l 179 728 l 67 728 l 67 782 l 374 782 l 374 728 l 261 728 l 261 406 l 617 728 l 521 728 l 521 782 l 821 782 l 821 728 l 713 728 l 349 396 l 728 54 l 835 54 l 835 0 l 531 0 l 531 54 l 628 54 l 261 382 l 261 54 l 374 54 l 374 0 l 67 0 l 67 54 m 296 1083 l 351 1083 l 446 921 l 538 1083 l 592 1083 l 478 874 l 413 874 l 296 1083 z "},"Ķ":{"ha":881,"x_min":67,"x_max":835,"o":"m 67 54 l 179 54 l 179 728 l 67 728 l 67 782 l 374 782 l 374 728 l 261 728 l 261 406 l 617 728 l 521 728 l 521 782 l 821 782 l 821 728 l 713 728 l 349 396 l 728 54 l 835 54 l 835 0 l 531 0 l 531 54 l 628 54 l 261 382 l 261 54 l 374 54 l 374 0 l 67 0 l 67 54 m 396 -265 q 447 -235 432 -260 q 461 -167 461 -211 l 403 -167 l 403 -71 l 506 -71 l 506 -172 q 396 -297 506 -299 l 396 -265 z "},"L":{"ha":724,"x_min":67,"x_max":688,"o":"m 67 54 l 179 54 l 179 728 l 67 728 l 67 782 l 374 782 l 374 728 l 261 728 l 261 54 l 622 54 l 622 286 l 688 286 l 688 0 l 67 0 l 67 54 z "},"Ǉ":{"ha":1146,"x_min":67,"x_max":1110,"o":"m 67 54 l 179 54 l 179 728 l 67 728 l 67 782 l 374 782 l 374 728 l 261 728 l 261 54 l 622 54 l 622 286 l 688 286 l 688 0 l 67 0 l 67 54 m 779 -37 l 863 -37 q 921 -10 907 -37 q 935 79 935 17 l 935 728 l 835 728 l 835 782 l 1110 782 l 1110 728 l 1017 728 l 1017 76 q 983 -61 1017 -21 q 869 -101 949 -101 l 779 -101 l 779 -37 z "},"Ĺ":{"ha":724,"x_min":67,"x_max":688,"o":"m 67 54 l 179 54 l 179 728 l 67 728 l 67 782 l 374 782 l 374 728 l 261 728 l 261 54 l 622 54 l 622 286 l 688 286 l 688 0 l 67 0 l 67 54 m 268 1090 l 351 1090 l 246 903 l 200 903 l 268 1090 z "},"Ľ":{"ha":724,"x_min":67,"x_max":689,"o":"m 67 54 l 179 54 l 179 728 l 67 728 l 67 782 l 374 782 l 374 728 l 261 728 l 261 54 l 622 54 l 622 286 l 688 286 l 688 0 l 67 0 l 67 54 m 582 589 q 631 614 617 594 q 644 681 644 633 l 585 681 l 585 782 l 689 782 l 688 678 q 582 557 690 557 l 582 589 z "},"Ļ":{"ha":724,"x_min":67,"x_max":688,"o":"m 67 54 l 179 54 l 179 728 l 67 728 l 67 782 l 374 782 l 374 728 l 261 728 l 261 54 l 622 54 l 622 286 l 688 286 l 688 0 l 67 0 l 67 54 m 351 -265 q 402 -235 388 -260 q 417 -167 417 -211 l 358 -167 l 358 -71 l 461 -71 l 461 -172 q 351 -297 461 -299 l 351 -265 z "},"Ŀ":{"ha":724,"x_min":67,"x_max":688,"o":"m 67 54 l 179 54 l 179 728 l 67 728 l 67 782 l 374 782 l 374 728 l 261 728 l 261 54 l 622 54 l 622 286 l 688 286 l 688 0 l 67 0 l 67 54 m 579 454 q 537 470 554 454 q 519 510 519 486 q 537 551 519 535 q 579 567 554 567 q 621 551 604 567 q 638 510 638 535 q 621 470 638 486 q 579 454 604 454 z "},"Ḷ":{"ha":724,"x_min":67,"x_max":688,"o":"m 67 54 l 179 54 l 179 728 l 67 728 l 67 782 l 374 782 l 374 728 l 261 728 l 261 54 l 622 54 l 622 286 l 688 286 l 688 0 l 67 0 l 67 54 m 406 -174 q 366 -158 382 -174 q 350 -122 350 -143 q 365 -85 350 -100 q 406 -71 381 -71 q 445 -85 431 -71 q 460 -122 460 -100 q 447 -158 461 -142 q 406 -174 432 -174 z "},"ǈ":{"ha":1040,"x_min":67,"x_max":957,"o":"m 67 54 l 179 54 l 179 728 l 67 728 l 67 782 l 374 782 l 374 728 l 261 728 l 261 54 l 622 54 l 622 286 l 688 286 l 688 0 l 67 0 l 67 54 m 899 676 q 857 692 874 676 q 840 732 840 707 q 857 769 840 754 q 899 785 874 785 q 940 769 924 785 q 957 732 957 754 q 940 692 957 707 q 899 676 924 676 m 733 -135 l 786 -135 q 858 -110 839 -135 q 876 -24 876 -85 l 876 493 l 768 493 l 768 546 l 954 546 l 954 -10 q 919 -147 954 -101 q 785 -193 883 -193 l 733 -193 l 733 -135 z "},"Ḻ":{"ha":724,"x_min":67,"x_max":688,"o":"m 67 54 l 179 54 l 179 728 l 67 728 l 67 782 l 374 782 l 374 728 l 261 728 l 261 54 l 622 54 l 622 286 l 688 286 l 688 0 l 67 0 l 67 54 m 268 -61 l 543 -61 l 543 -108 l 268 -108 l 268 -61 z "},"Ł":{"ha":724,"x_min":67,"x_max":688,"o":"m 688 286 l 688 0 l 67 0 l 67 54 l 179 54 l 179 342 l 67 283 l 67 339 l 179 399 l 179 728 l 67 728 l 67 782 l 374 782 l 374 728 l 261 728 l 261 442 l 436 535 l 436 476 l 261 385 l 261 54 l 622 54 l 622 286 l 688 286 z "},"M":{"ha":1075,"x_min":47,"x_max":1028,"o":"m 47 54 l 151 54 l 151 728 l 47 728 l 47 782 l 261 782 l 543 194 l 810 782 l 1028 782 l 1028 728 l 924 728 l 924 54 l 1028 54 l 1028 0 l 742 0 l 742 54 l 844 54 l 844 700 l 547 51 l 522 51 l 215 700 l 215 54 l 319 54 l 319 0 l 47 0 l 47 54 z "},"Ṁ":{"ha":1075,"x_min":47,"x_max":1028,"o":"m 47 54 l 151 54 l 151 728 l 47 728 l 47 782 l 261 782 l 543 194 l 810 782 l 1028 782 l 1028 728 l 924 728 l 924 54 l 1028 54 l 1028 0 l 742 0 l 742 54 l 844 54 l 844 700 l 547 51 l 522 51 l 215 700 l 215 54 l 319 54 l 319 0 l 47 0 l 47 54 m 532 889 q 492 905 508 889 q 476 940 476 921 q 492 978 476 963 q 532 993 507 993 q 572 978 557 993 q 586 940 586 964 q 573 905 588 921 q 532 889 558 889 z "},"Ṃ":{"ha":1075,"x_min":47,"x_max":1028,"o":"m 47 54 l 151 54 l 151 728 l 47 728 l 47 782 l 261 782 l 543 194 l 810 782 l 1028 782 l 1028 728 l 924 728 l 924 54 l 1028 54 l 1028 0 l 742 0 l 742 54 l 844 54 l 844 700 l 547 51 l 522 51 l 215 700 l 215 54 l 319 54 l 319 0 l 47 0 l 47 54 m 535 -174 q 495 -158 511 -174 q 479 -122 479 -143 q 494 -85 479 -100 q 535 -71 510 -71 q 574 -85 560 -71 q 589 -122 589 -100 q 576 -158 590 -142 q 535 -174 561 -174 z "},"N":{"ha":978,"x_min":71,"x_max":935,"o":"m 71 54 l 178 54 l 178 728 l 71 728 l 71 782 l 267 782 l 771 110 l 771 728 l 663 728 l 663 782 l 935 782 l 935 728 l 836 728 l 836 0 l 754 0 l 243 689 l 243 54 l 349 54 l 349 0 l 71 0 l 71 54 z "},"Ǌ":{"ha":1400,"x_min":71,"x_max":1364,"o":"m 71 54 l 178 54 l 178 728 l 71 728 l 71 782 l 267 782 l 771 110 l 771 728 l 663 728 l 663 782 l 935 782 l 935 728 l 836 728 l 836 0 l 754 0 l 243 689 l 243 54 l 349 54 l 349 0 l 71 0 l 71 54 m 1033 -37 l 1117 -37 q 1175 -10 1161 -37 q 1189 79 1189 17 l 1189 728 l 1089 728 l 1089 782 l 1364 782 l 1364 728 l 1271 728 l 1271 76 q 1237 -61 1271 -21 q 1124 -101 1203 -101 l 1033 -101 l 1033 -37 z "},"Ń":{"ha":978,"x_min":71,"x_max":935,"o":"m 71 54 l 178 54 l 178 728 l 71 728 l 71 782 l 267 782 l 771 110 l 771 728 l 663 728 l 663 782 l 935 782 l 935 728 l 836 728 l 836 0 l 754 0 l 243 689 l 243 54 l 349 54 l 349 0 l 71 0 l 71 54 m 535 1090 l 618 1090 l 513 903 l 467 903 l 535 1090 z "},"Ň":{"ha":978,"x_min":71,"x_max":935,"o":"m 71 54 l 178 54 l 178 728 l 71 728 l 71 782 l 267 782 l 771 110 l 771 728 l 663 728 l 663 782 l 935 782 l 935 728 l 836 728 l 836 0 l 754 0 l 243 689 l 243 54 l 349 54 l 349 0 l 71 0 l 71 54 m 339 1083 l 394 1083 l 489 921 l 581 1083 l 635 1083 l 521 874 l 456 874 l 339 1083 z "},"Ņ":{"ha":978,"x_min":71,"x_max":935,"o":"m 71 54 l 178 54 l 178 728 l 71 728 l 71 782 l 267 782 l 771 110 l 771 728 l 663 728 l 663 782 l 935 782 l 935 728 l 836 728 l 836 0 l 754 0 l 243 689 l 243 54 l 349 54 l 349 0 l 71 0 l 71 54 m 467 -265 q 517 -235 503 -260 q 532 -167 532 -211 l 474 -167 l 474 -71 l 576 -71 l 576 -172 q 467 -297 576 -299 l 467 -265 z "},"Ṅ":{"ha":978,"x_min":71,"x_max":935,"o":"m 71 54 l 178 54 l 178 728 l 71 728 l 71 782 l 267 782 l 771 110 l 771 728 l 663 728 l 663 782 l 935 782 l 935 728 l 836 728 l 836 0 l 754 0 l 243 689 l 243 54 l 349 54 l 349 0 l 71 0 l 71 54 m 488 889 q 448 905 464 889 q 432 940 432 921 q 447 978 432 963 q 488 993 463 993 q 527 978 513 993 q 542 940 542 964 q 528 905 543 921 q 488 889 514 889 z "},"Ṇ":{"ha":978,"x_min":71,"x_max":935,"o":"m 71 54 l 178 54 l 178 728 l 71 728 l 71 782 l 267 782 l 771 110 l 771 728 l 663 728 l 663 782 l 935 782 l 935 728 l 836 728 l 836 0 l 754 0 l 243 689 l 243 54 l 349 54 l 349 0 l 71 0 l 71 54 m 521 -174 q 481 -158 497 -174 q 465 -122 465 -143 q 481 -85 465 -100 q 521 -71 496 -71 q 560 -85 546 -71 q 575 -122 575 -100 q 562 -158 576 -142 q 521 -174 547 -174 z "},"Ǹ":{"ha":978,"x_min":71,"x_max":935,"o":"m 71 54 l 178 54 l 178 728 l 71 728 l 71 782 l 267 782 l 771 110 l 771 728 l 663 728 l 663 782 l 935 782 l 935 728 l 836 728 l 836 0 l 754 0 l 243 689 l 243 54 l 349 54 l 349 0 l 71 0 l 71 54 m 357 1090 l 440 1090 l 508 903 l 463 903 l 357 1090 z "},"Ŋ":{"ha":975,"x_min":67,"x_max":931,"o":"m 558 -194 l 575 -194 q 719 -147 671 -194 q 767 -12 767 -99 l 239 689 l 239 54 l 346 54 l 346 0 l 67 0 l 67 54 l 174 54 l 174 728 l 67 728 l 67 782 l 264 782 l 767 110 l 767 728 l 658 728 l 658 782 l 931 782 l 931 728 l 832 728 l 832 -1 q 763 -187 832 -125 q 576 -250 694 -250 l 558 -250 l 558 -194 z "},"ǋ":{"ha":1294,"x_min":71,"x_max":1211,"o":"m 71 54 l 178 54 l 178 728 l 71 728 l 71 782 l 267 782 l 771 110 l 771 728 l 663 728 l 663 782 l 935 782 l 935 728 l 836 728 l 836 0 l 754 0 l 243 689 l 243 54 l 349 54 l 349 0 l 71 0 l 71 54 m 1153 676 q 1111 692 1128 676 q 1094 732 1094 707 q 1111 769 1094 754 q 1153 785 1128 785 q 1194 769 1178 785 q 1211 732 1211 754 q 1194 692 1211 707 q 1153 676 1178 676 m 988 -135 l 1040 -135 q 1112 -110 1093 -135 q 1131 -24 1131 -85 l 1131 493 l 1022 493 l 1022 546 l 1208 546 l 1208 -10 q 1173 -147 1208 -101 q 1039 -193 1138 -193 l 988 -193 l 988 -135 z "},"Ṉ":{"ha":978,"x_min":71,"x_max":935,"o":"m 71 54 l 178 54 l 178 728 l 71 728 l 71 782 l 267 782 l 771 110 l 771 728 l 663 728 l 663 782 l 935 782 l 935 728 l 836 728 l 836 0 l 754 0 l 243 689 l 243 54 l 349 54 l 349 0 l 71 0 l 71 54 m 383 -61 l 658 -61 l 658 -108 l 383 -108 l 383 -61 z "},"Ñ":{"ha":978,"x_min":71,"x_max":935,"o":"m 71 54 l 178 54 l 178 728 l 71 728 l 71 782 l 267 782 l 771 110 l 771 728 l 663 728 l 663 782 l 935 782 l 935 728 l 836 728 l 836 0 l 754 0 l 243 689 l 243 54 l 349 54 l 349 0 l 71 0 l 71 54 m 569 897 q 529 904 549 897 q 476 926 510 911 q 437 944 457 936 q 401 951 417 951 q 360 900 365 951 l 324 900 q 349 979 326 951 q 410 1007 372 1007 q 497 978 439 1007 q 572 953 550 953 q 617 1004 611 953 l 651 1004 q 569 897 647 897 z "},"O":{"ha":985,"x_min":75,"x_max":910,"o":"m 492 -15 q 269 41 364 -15 q 125 190 175 97 q 75 389 75 283 q 125 589 75 496 q 269 739 175 682 q 492 796 364 796 q 715 739 621 796 q 860 589 810 682 q 910 389 910 496 q 860 190 910 282 q 716 41 811 97 q 492 -15 621 -15 m 492 46 q 672 93 596 46 q 785 219 747 140 q 824 389 824 297 q 785 559 824 479 q 671 688 746 639 q 492 736 596 736 q 313 688 388 736 q 201 559 239 639 q 163 388 163 479 q 200 217 163 294 q 312 92 238 139 q 492 46 386 46 z "},"Ó":{"ha":985,"x_min":75,"x_max":910,"o":"m 492 -15 q 269 41 364 -15 q 125 190 175 97 q 75 389 75 283 q 125 589 75 496 q 269 739 175 682 q 492 796 364 796 q 715 739 621 796 q 860 589 810 682 q 910 389 910 496 q 860 190 910 282 q 716 41 811 97 q 492 -15 621 -15 m 492 46 q 672 93 596 46 q 785 219 747 140 q 824 389 824 297 q 785 559 824 479 q 671 688 746 639 q 492 736 596 736 q 313 688 388 736 q 201 559 239 639 q 163 388 163 479 q 200 217 163 294 q 312 92 238 139 q 492 46 386 46 m 538 1090 l 621 1090 l 515 903 l 469 903 l 538 1090 z "},"Ŏ":{"ha":985,"x_min":75,"x_max":910,"o":"m 492 -15 q 269 41 364 -15 q 125 190 175 97 q 75 389 75 283 q 125 589 75 496 q 269 739 175 682 q 492 796 364 796 q 715 739 621 796 q 860 589 810 682 q 910 389 910 496 q 860 190 910 282 q 716 41 811 97 q 492 -15 621 -15 m 492 46 q 672 93 596 46 q 785 219 747 140 q 824 389 824 297 q 785 559 824 479 q 671 688 746 639 q 492 736 596 736 q 313 688 388 736 q 201 559 239 639 q 163 388 163 479 q 200 217 163 294 q 312 92 238 139 q 492 46 386 46 m 488 882 q 402 913 436 882 q 361 1000 368 944 l 411 1000 q 490 929 426 929 q 541 947 521 929 q 568 1000 561 965 l 619 1000 q 576 913 611 943 q 488 882 542 882 z "},"Ǒ":{"ha":985,"x_min":75,"x_max":910,"o":"m 492 -15 q 269 41 364 -15 q 125 190 175 97 q 75 389 75 283 q 125 589 75 496 q 269 739 175 682 q 492 796 364 796 q 715 739 621 796 q 860 589 810 682 q 910 389 910 496 q 860 190 910 282 q 716 41 811 97 q 492 -15 621 -15 m 492 46 q 672 93 596 46 q 785 219 747 140 q 824 389 824 297 q 785 559 824 479 q 671 688 746 639 q 492 736 596 736 q 313 688 388 736 q 201 559 239 639 q 163 388 163 479 q 200 217 163 294 q 312 92 238 139 q 492 46 386 46 m 342 1083 l 397 1083 l 492 921 l 583 1083 l 638 1083 l 524 874 l 458 874 l 342 1083 z "},"Ô":{"ha":985,"x_min":75,"x_max":910,"o":"m 492 -15 q 269 41 364 -15 q 125 190 175 97 q 75 389 75 283 q 125 589 75 496 q 269 739 175 682 q 492 796 364 796 q 715 739 621 796 q 860 589 810 682 q 910 389 910 496 q 860 190 910 282 q 716 41 811 97 q 492 -15 621 -15 m 492 46 q 672 93 596 46 q 785 219 747 140 q 824 389 824 297 q 785 559 824 479 q 671 688 746 639 q 492 736 596 736 q 313 688 388 736 q 201 559 239 639 q 163 388 163 479 q 200 217 163 294 q 312 92 238 139 q 492 46 386 46 m 454 1076 l 528 1076 l 643 863 l 586 863 l 490 1039 l 394 863 l 338 863 l 454 1076 z "},"Ố":{"ha":985,"x_min":75,"x_max":910,"o":"m 492 -15 q 269 41 364 -15 q 125 190 175 97 q 75 389 75 283 q 125 589 75 496 q 269 739 175 682 q 492 796 364 796 q 715 739 621 796 q 860 589 810 682 q 910 389 910 496 q 860 190 910 282 q 716 41 811 97 q 492 -15 621 -15 m 492 46 q 672 93 596 46 q 785 219 747 140 q 824 389 824 297 q 785 559 824 479 q 671 688 746 639 q 492 736 596 736 q 313 688 388 736 q 201 559 239 639 q 163 388 163 479 q 200 217 163 294 q 312 92 238 139 q 492 46 386 46 m 658 1144 l 733 1144 l 647 986 l 600 986 l 658 1144 m 454 1035 l 528 1035 l 643 863 l 586 863 l 490 997 l 394 863 l 338 863 l 454 1035 z "},"Ộ":{"ha":985,"x_min":75,"x_max":910,"o":"m 492 -15 q 269 41 364 -15 q 125 190 175 97 q 75 389 75 283 q 125 589 75 496 q 269 739 175 682 q 492 796 364 796 q 715 739 621 796 q 860 589 810 682 q 910 389 910 496 q 860 190 910 282 q 716 41 811 97 q 492 -15 621 -15 m 492 46 q 672 93 596 46 q 785 219 747 140 q 824 389 824 297 q 785 559 824 479 q 671 688 746 639 q 492 736 596 736 q 313 688 388 736 q 201 559 239 639 q 163 388 163 479 q 200 217 163 294 q 312 92 238 139 q 492 46 386 46 m 493 -174 q 453 -158 469 -174 q 438 -122 438 -143 q 453 -85 438 -100 q 493 -71 468 -71 q 533 -85 518 -71 q 547 -122 547 -100 q 534 -158 549 -142 q 493 -174 519 -174 m 454 1076 l 528 1076 l 643 863 l 586 863 l 490 1039 l 394 863 l 338 863 l 454 1076 z "},"Ồ":{"ha":985,"x_min":75,"x_max":910,"o":"m 492 -15 q 269 41 364 -15 q 125 190 175 97 q 75 389 75 283 q 125 589 75 496 q 269 739 175 682 q 492 796 364 796 q 715 739 621 796 q 860 589 810 682 q 910 389 910 496 q 860 190 910 282 q 716 41 811 97 q 492 -15 621 -15 m 492 46 q 672 93 596 46 q 785 219 747 140 q 824 389 824 297 q 785 559 824 479 q 671 688 746 639 q 492 736 596 736 q 313 688 388 736 q 201 559 239 639 q 163 388 163 479 q 200 217 163 294 q 312 92 238 139 q 492 46 386 46 m 624 986 l 538 1144 l 611 1144 l 671 986 l 624 986 m 454 1035 l 528 1035 l 643 863 l 586 863 l 490 997 l 394 863 l 338 863 l 454 1035 z "},"Ổ":{"ha":985,"x_min":75,"x_max":910,"o":"m 492 -15 q 269 41 364 -15 q 125 190 175 97 q 75 389 75 283 q 125 589 75 496 q 269 739 175 682 q 492 796 364 796 q 715 739 621 796 q 860 589 810 682 q 910 389 910 496 q 860 190 910 282 q 716 41 811 97 q 492 -15 621 -15 m 492 46 q 672 93 596 46 q 785 219 747 140 q 824 389 824 297 q 785 559 824 479 q 671 688 746 639 q 492 736 596 736 q 313 688 388 736 q 201 559 239 639 q 163 388 163 479 q 200 217 163 294 q 312 92 238 139 q 492 46 386 46 m 592 1024 q 636 1072 636 1039 q 624 1101 636 1090 q 589 1111 611 1111 q 529 1093 561 1111 l 511 1139 q 594 1161 550 1161 q 666 1137 639 1161 q 693 1075 693 1113 q 608 976 693 1003 l 592 1024 m 454 1035 l 528 1035 l 643 863 l 586 863 l 490 997 l 394 863 l 338 863 l 454 1035 z "},"Ỗ":{"ha":985,"x_min":75,"x_max":910,"o":"m 492 -15 q 269 41 364 -15 q 125 190 175 97 q 75 389 75 283 q 125 589 75 496 q 269 739 175 682 q 492 796 364 796 q 715 739 621 796 q 860 589 810 682 q 910 389 910 496 q 860 190 910 282 q 716 41 811 97 q 492 -15 621 -15 m 492 46 q 672 93 596 46 q 785 219 747 140 q 824 389 824 297 q 785 559 824 479 q 671 688 746 639 q 492 736 596 736 q 313 688 388 736 q 201 559 239 639 q 163 388 163 479 q 200 217 163 294 q 312 92 238 139 q 492 46 386 46 m 567 1065 q 528 1072 547 1065 q 479 1090 508 1078 q 451 1102 475 1092 q 407 1113 426 1113 q 368 1068 374 1113 l 332 1068 q 358 1142 335 1117 q 418 1168 381 1168 q 500 1143 444 1168 q 569 1121 550 1121 q 599 1131 589 1121 q 613 1165 610 1142 l 647 1165 q 625 1092 644 1119 q 567 1065 606 1065 m 454 1035 l 528 1035 l 643 863 l 586 863 l 490 997 l 394 863 l 338 863 l 454 1035 z "},"Ȍ":{"ha":985,"x_min":75,"x_max":910,"o":"m 492 -15 q 269 41 364 -15 q 125 190 175 97 q 75 389 75 283 q 125 589 75 496 q 269 739 175 682 q 492 796 364 796 q 715 739 621 796 q 860 589 810 682 q 910 389 910 496 q 860 190 910 282 q 716 41 811 97 q 492 -15 621 -15 m 492 46 q 672 93 596 46 q 785 219 747 140 q 824 389 824 297 q 785 559 824 479 q 671 688 746 639 q 492 736 596 736 q 313 688 388 736 q 201 559 239 639 q 163 388 163 479 q 200 217 163 294 q 312 92 238 139 q 492 46 386 46 m 257 1110 l 340 1110 l 417 903 l 371 903 l 257 1110 m 421 1110 l 504 1110 l 579 903 l 535 903 l 421 1110 z "},"Ö":{"ha":985,"x_min":75,"x_max":910,"o":"m 492 -15 q 269 41 364 -15 q 125 190 175 97 q 75 389 75 283 q 125 589 75 496 q 269 739 175 682 q 492 796 364 796 q 715 739 621 796 q 860 589 810 682 q 910 389 910 496 q 860 190 910 282 q 716 41 811 97 q 492 -15 621 -15 m 492 46 q 672 93 596 46 q 785 219 747 140 q 824 389 824 297 q 785 559 824 479 q 671 688 746 639 q 492 736 596 736 q 313 688 388 736 q 201 559 239 639 q 163 388 163 479 q 200 217 163 294 q 312 92 238 139 q 492 46 386 46 m 368 888 q 333 900 346 888 q 319 935 319 913 q 333 968 319 956 q 368 981 346 981 q 403 968 390 981 q 415 935 415 956 q 403 900 415 913 q 368 888 390 888 m 613 888 q 578 900 592 888 q 565 933 565 913 q 578 968 565 956 q 613 981 592 981 q 648 968 635 981 q 661 933 661 956 q 648 900 661 913 q 613 888 635 888 z "},"Ȫ":{"ha":985,"x_min":75,"x_max":910,"o":"m 492 -15 q 269 41 364 -15 q 125 190 175 97 q 75 389 75 283 q 125 589 75 496 q 269 739 175 682 q 492 796 364 796 q 715 739 621 796 q 860 589 810 682 q 910 389 910 496 q 860 190 910 282 q 716 41 811 97 q 492 -15 621 -15 m 492 46 q 672 93 596 46 q 785 219 747 140 q 824 389 824 297 q 785 559 824 479 q 671 688 746 639 q 492 736 596 736 q 313 688 388 736 q 201 559 239 639 q 163 388 163 479 q 200 217 163 294 q 312 92 238 139 q 492 46 386 46 m 368 888 q 333 900 346 888 q 319 935 319 913 q 333 968 319 956 q 368 981 346 981 q 403 968 390 981 q 415 935 415 956 q 403 900 415 913 q 368 888 390 888 m 613 888 q 578 900 592 888 q 565 933 565 913 q 578 968 565 956 q 613 981 592 981 q 648 968 635 981 q 661 933 661 956 q 648 900 661 913 q 613 888 635 888 m 353 1150 l 628 1150 l 628 1103 l 353 1103 l 353 1150 z "},"Ȯ":{"ha":985,"x_min":75,"x_max":910,"o":"m 492 -15 q 269 41 364 -15 q 125 190 175 97 q 75 389 75 283 q 125 589 75 496 q 269 739 175 682 q 492 796 364 796 q 715 739 621 796 q 860 589 810 682 q 910 389 910 496 q 860 190 910 282 q 716 41 811 97 q 492 -15 621 -15 m 492 46 q 672 93 596 46 q 785 219 747 140 q 824 389 824 297 q 785 559 824 479 q 671 688 746 639 q 492 736 596 736 q 313 688 388 736 q 201 559 239 639 q 163 388 163 479 q 200 217 163 294 q 312 92 238 139 q 492 46 386 46 m 490 889 q 451 905 467 889 q 435 940 435 921 q 450 978 435 963 q 490 993 465 993 q 530 978 515 993 q 544 940 544 964 q 531 905 546 921 q 490 889 517 889 z "},"Ȱ":{"ha":985,"x_min":75,"x_max":910,"o":"m 492 -15 q 269 41 364 -15 q 125 190 175 97 q 75 389 75 283 q 125 589 75 496 q 269 739 175 682 q 492 796 364 796 q 715 739 621 796 q 860 589 810 682 q 910 389 910 496 q 860 190 910 282 q 716 41 811 97 q 492 -15 621 -15 m 492 46 q 672 93 596 46 q 785 219 747 140 q 824 389 824 297 q 785 559 824 479 q 671 688 746 639 q 492 736 596 736 q 313 688 388 736 q 201 559 239 639 q 163 388 163 479 q 200 217 163 294 q 312 92 238 139 q 492 46 386 46 m 490 889 q 451 905 467 889 q 435 940 435 921 q 450 978 435 963 q 490 993 465 993 q 530 978 515 993 q 544 940 544 964 q 531 905 546 921 q 490 889 517 889 m 353 1149 l 628 1149 l 628 1101 l 353 1101 l 353 1149 z "},"Ọ":{"ha":985,"x_min":75,"x_max":910,"o":"m 492 -15 q 269 41 364 -15 q 125 190 175 97 q 75 389 75 283 q 125 589 75 496 q 269 739 175 682 q 492 796 364 796 q 715 739 621 796 q 860 589 810 682 q 910 389 910 496 q 860 190 910 282 q 716 41 811 97 q 492 -15 621 -15 m 492 46 q 672 93 596 46 q 785 219 747 140 q 824 389 824 297 q 785 559 824 479 q 671 688 746 639 q 492 736 596 736 q 313 688 388 736 q 201 559 239 639 q 163 388 163 479 q 200 217 163 294 q 312 92 238 139 q 492 46 386 46 m 493 -174 q 453 -158 469 -174 q 438 -122 438 -143 q 453 -85 438 -100 q 493 -71 468 -71 q 533 -85 518 -71 q 547 -122 547 -100 q 534 -158 549 -142 q 493 -174 519 -174 z "},"Ò":{"ha":985,"x_min":75,"x_max":910,"o":"m 492 -15 q 269 41 364 -15 q 125 190 175 97 q 75 389 75 283 q 125 589 75 496 q 269 739 175 682 q 492 796 364 796 q 715 739 621 796 q 860 589 810 682 q 910 389 910 496 q 860 190 910 282 q 716 41 811 97 q 492 -15 621 -15 m 492 46 q 672 93 596 46 q 785 219 747 140 q 824 389 824 297 q 785 559 824 479 q 671 688 746 639 q 492 736 596 736 q 313 688 388 736 q 201 559 239 639 q 163 388 163 479 q 200 217 163 294 q 312 92 238 139 q 492 46 386 46 m 360 1090 l 443 1090 l 511 903 l 465 903 l 360 1090 z "},"Ỏ":{"ha":985,"x_min":75,"x_max":910,"o":"m 492 -15 q 269 41 364 -15 q 125 190 175 97 q 75 389 75 283 q 125 589 75 496 q 269 739 175 682 q 492 796 364 796 q 715 739 621 796 q 860 589 810 682 q 910 389 910 496 q 860 190 910 282 q 716 41 811 97 q 492 -15 621 -15 m 492 46 q 672 93 596 46 q 785 219 747 140 q 824 389 824 297 q 785 559 824 479 q 671 688 746 639 q 492 736 596 736 q 313 688 388 736 q 201 559 239 639 q 163 388 163 479 q 200 217 163 294 q 312 92 238 139 q 492 46 386 46 m 474 890 q 518 939 518 906 q 506 967 518 957 q 471 978 493 978 q 411 960 443 978 l 393 1006 q 476 1028 432 1028 q 548 1003 521 1028 q 575 942 575 979 q 490 843 575 869 l 474 890 z "},"Ơ":{"ha":985,"x_min":75,"x_max":910,"o":"m 703 746 q 856 597 801 693 q 910 389 910 500 q 860 190 910 282 q 716 41 811 97 q 492 -15 621 -15 q 269 41 364 -15 q 125 190 175 97 q 75 389 75 283 q 125 590 75 496 q 269 740 175 683 q 492 797 364 797 q 572 792 525 797 q 600 789 582 790 q 632 788 618 788 q 700 810 674 788 q 731 878 726 832 l 813 878 q 777 792 806 826 q 703 746 749 757 m 492 46 q 672 93 596 46 q 785 219 747 140 q 824 389 824 297 q 785 560 824 481 q 672 689 747 640 q 492 738 596 738 q 313 689 388 738 q 201 560 239 640 q 163 388 163 481 q 200 217 163 294 q 312 92 238 139 q 492 46 386 46 z "},"Ớ":{"ha":985,"x_min":75,"x_max":910,"o":"m 703 746 q 856 597 801 693 q 910 389 910 500 q 860 190 910 282 q 716 41 811 97 q 492 -15 621 -15 q 269 41 364 -15 q 125 190 175 97 q 75 389 75 283 q 125 590 75 496 q 269 740 175 683 q 492 797 364 797 q 572 792 525 797 q 600 789 582 790 q 632 788 618 788 q 700 810 674 788 q 731 878 726 832 l 813 878 q 777 792 806 826 q 703 746 749 757 m 492 46 q 672 93 596 46 q 785 219 747 140 q 824 389 824 297 q 785 560 824 481 q 672 689 747 640 q 492 738 596 738 q 313 689 388 738 q 201 560 239 640 q 163 388 163 481 q 200 217 163 294 q 312 92 238 139 q 492 46 386 46 m 538 1090 l 621 1090 l 515 903 l 469 903 l 538 1090 z "},"Ợ":{"ha":985,"x_min":75,"x_max":910,"o":"m 703 746 q 856 597 801 693 q 910 389 910 500 q 860 190 910 282 q 716 41 811 97 q 492 -15 621 -15 q 269 41 364 -15 q 125 190 175 97 q 75 389 75 283 q 125 590 75 496 q 269 740 175 683 q 492 797 364 797 q 572 792 525 797 q 600 789 582 790 q 632 788 618 788 q 700 810 674 788 q 731 878 726 832 l 813 878 q 777 792 806 826 q 703 746 749 757 m 492 46 q 672 93 596 46 q 785 219 747 140 q 824 389 824 297 q 785 560 824 481 q 672 689 747 640 q 492 738 596 738 q 313 689 388 738 q 201 560 239 640 q 163 388 163 481 q 200 217 163 294 q 312 92 238 139 q 492 46 386 46 m 492 -174 q 452 -158 468 -174 q 436 -122 436 -143 q 451 -85 436 -100 q 492 -71 467 -71 q 531 -85 517 -71 q 546 -122 546 -100 q 533 -158 547 -142 q 492 -174 518 -174 z "},"Ờ":{"ha":985,"x_min":75,"x_max":910,"o":"m 703 746 q 856 597 801 693 q 910 389 910 500 q 860 190 910 282 q 716 41 811 97 q 492 -15 621 -15 q 269 41 364 -15 q 125 190 175 97 q 75 389 75 283 q 125 590 75 496 q 269 740 175 683 q 492 797 364 797 q 572 792 525 797 q 600 789 582 790 q 632 788 618 788 q 700 810 674 788 q 731 878 726 832 l 813 878 q 777 792 806 826 q 703 746 749 757 m 492 46 q 672 93 596 46 q 785 219 747 140 q 824 389 824 297 q 785 560 824 481 q 672 689 747 640 q 492 738 596 738 q 313 689 388 738 q 201 560 239 640 q 163 388 163 481 q 200 217 163 294 q 312 92 238 139 q 492 46 386 46 m 360 1090 l 443 1090 l 511 903 l 465 903 l 360 1090 z "},"Ở":{"ha":985,"x_min":75,"x_max":910,"o":"m 703 746 q 856 597 801 693 q 910 389 910 500 q 860 190 910 282 q 716 41 811 97 q 492 -15 621 -15 q 269 41 364 -15 q 125 190 175 97 q 75 389 75 283 q 125 590 75 496 q 269 740 175 683 q 492 797 364 797 q 572 792 525 797 q 600 789 582 790 q 632 788 618 788 q 700 810 674 788 q 731 878 726 832 l 813 878 q 777 792 806 826 q 703 746 749 757 m 492 46 q 672 93 596 46 q 785 219 747 140 q 824 389 824 297 q 785 560 824 481 q 672 689 747 640 q 492 738 596 738 q 313 689 388 738 q 201 560 239 640 q 163 388 163 481 q 200 217 163 294 q 312 92 238 139 q 492 46 386 46 m 474 890 q 518 939 518 906 q 506 967 518 957 q 471 978 493 978 q 411 960 443 978 l 393 1006 q 476 1028 432 1028 q 548 1003 521 1028 q 575 942 575 979 q 490 843 575 869 l 474 890 z "},"Ỡ":{"ha":985,"x_min":75,"x_max":910,"o":"m 703 746 q 856 597 801 693 q 910 389 910 500 q 860 190 910 282 q 716 41 811 97 q 492 -15 621 -15 q 269 41 364 -15 q 125 190 175 97 q 75 389 75 283 q 125 590 75 496 q 269 740 175 683 q 492 797 364 797 q 572 792 525 797 q 600 789 582 790 q 632 788 618 788 q 700 810 674 788 q 731 878 726 832 l 813 878 q 777 792 806 826 q 703 746 749 757 m 492 46 q 672 93 596 46 q 785 219 747 140 q 824 389 824 297 q 785 560 824 481 q 672 689 747 640 q 492 738 596 738 q 313 689 388 738 q 201 560 239 640 q 163 388 163 481 q 200 217 163 294 q 312 92 238 139 q 492 46 386 46 m 572 897 q 532 904 551 897 q 479 926 513 911 q 440 944 460 936 q 404 951 419 951 q 363 900 368 951 l 326 900 q 352 979 329 951 q 413 1007 375 1007 q 500 978 442 1007 q 575 953 553 953 q 619 1004 614 953 l 654 1004 q 572 897 650 897 z "},"Ő":{"ha":985,"x_min":75,"x_max":910,"o":"m 492 -15 q 269 41 364 -15 q 125 190 175 97 q 75 389 75 283 q 125 589 75 496 q 269 739 175 682 q 492 796 364 796 q 715 739 621 796 q 860 589 810 682 q 910 389 910 496 q 860 190 910 282 q 716 41 811 97 q 492 -15 621 -15 m 492 46 q 672 93 596 46 q 785 219 747 140 q 824 389 824 297 q 785 559 824 479 q 671 688 746 639 q 492 736 596 736 q 313 688 388 736 q 201 559 239 639 q 163 388 163 479 q 200 217 163 294 q 312 92 238 139 q 492 46 386 46 m 469 1110 l 553 1110 l 440 903 l 393 903 l 469 1110 m 632 1110 l 715 1110 l 603 903 l 556 903 l 632 1110 z "},"Ȏ":{"ha":985,"x_min":75,"x_max":910,"o":"m 492 -15 q 269 41 364 -15 q 125 190 175 97 q 75 389 75 283 q 125 589 75 496 q 269 739 175 682 q 492 796 364 796 q 715 739 621 796 q 860 589 810 682 q 910 389 910 496 q 860 190 910 282 q 716 41 811 97 q 492 -15 621 -15 m 492 46 q 672 93 596 46 q 785 219 747 140 q 824 389 824 297 q 785 559 824 479 q 671 688 746 639 q 492 736 596 736 q 313 688 388 736 q 201 559 239 639 q 163 388 163 479 q 200 217 163 294 q 312 92 238 139 q 492 46 386 46 m 356 875 q 399 966 364 933 q 490 999 435 999 q 581 966 546 999 q 624 875 617 933 l 567 875 q 490 943 550 943 q 414 875 429 943 l 356 875 z "},"Ō":{"ha":985,"x_min":75,"x_max":910,"o":"m 492 -15 q 269 41 364 -15 q 125 190 175 97 q 75 389 75 283 q 125 589 75 496 q 269 739 175 682 q 492 796 364 796 q 715 739 621 796 q 860 589 810 682 q 910 389 910 496 q 860 190 910 282 q 716 41 811 97 q 492 -15 621 -15 m 492 46 q 672 93 596 46 q 785 219 747 140 q 824 389 824 297 q 785 559 824 479 q 671 688 746 639 q 492 736 596 736 q 313 688 388 736 q 201 559 239 639 q 163 388 163 479 q 200 217 163 294 q 312 92 238 139 q 492 46 386 46 m 353 946 l 628 946 l 628 899 l 353 899 l 353 946 z "},"Ṓ":{"ha":985,"x_min":75,"x_max":910,"o":"m 492 -15 q 269 41 364 -15 q 125 190 175 97 q 75 389 75 283 q 125 589 75 496 q 269 739 175 682 q 492 796 364 796 q 715 739 621 796 q 860 589 810 682 q 910 389 910 496 q 860 190 910 282 q 716 41 811 97 q 492 -15 621 -15 m 492 46 q 672 93 596 46 q 785 219 747 140 q 824 389 824 297 q 785 559 824 479 q 671 688 746 639 q 492 736 596 736 q 313 688 388 736 q 201 559 239 639 q 163 388 163 479 q 200 217 163 294 q 312 92 238 139 q 492 46 386 46 m 353 946 l 628 946 l 628 899 l 353 899 l 353 946 m 538 1239 l 621 1239 l 515 1051 l 469 1051 l 538 1239 z "},"Ṑ":{"ha":985,"x_min":75,"x_max":910,"o":"m 492 -15 q 269 41 364 -15 q 125 190 175 97 q 75 389 75 283 q 125 589 75 496 q 269 739 175 682 q 492 796 364 796 q 715 739 621 796 q 860 589 810 682 q 910 389 910 496 q 860 190 910 282 q 716 41 811 97 q 492 -15 621 -15 m 492 46 q 672 93 596 46 q 785 219 747 140 q 824 389 824 297 q 785 559 824 479 q 671 688 746 639 q 492 736 596 736 q 313 688 388 736 q 201 559 239 639 q 163 388 163 479 q 200 217 163 294 q 312 92 238 139 q 492 46 386 46 m 353 946 l 628 946 l 628 899 l 353 899 l 353 946 m 360 1239 l 443 1239 l 511 1051 l 465 1051 l 360 1239 z "},"Ǫ":{"ha":985,"x_min":75,"x_max":910,"o":"m 910 389 q 864 195 910 285 q 729 48 818 106 q 518 -15 640 -10 q 467 -115 467 -71 q 485 -160 467 -144 q 531 -176 503 -176 q 594 -156 564 -176 l 594 -199 q 513 -225 551 -225 q 440 -199 469 -225 q 410 -131 410 -172 q 469 -15 410 -75 q 258 48 347 -10 q 122 196 169 106 q 75 389 75 286 q 125 589 75 496 q 269 739 175 682 q 492 796 364 796 q 715 739 621 796 q 860 589 810 682 q 910 389 910 496 m 163 388 q 200 217 163 294 q 312 92 238 139 q 492 46 386 46 q 672 93 596 46 q 785 219 747 140 q 824 389 824 297 q 785 559 824 479 q 671 688 746 639 q 492 736 596 736 q 313 688 388 736 q 201 559 239 639 q 163 388 163 479 z "},"Ø":{"ha":910,"x_min":38,"x_max":872,"o":"m 732 699 q 836 559 800 642 q 872 386 872 476 q 823 187 872 279 q 678 38 774 94 q 454 -18 583 -18 q 224 43 322 -18 l 151 -50 l 111 -22 l 183 71 q 76 212 114 129 q 38 386 38 294 q 88 586 38 493 q 232 736 138 679 q 454 793 326 793 q 694 726 592 793 l 771 825 l 810 799 l 732 699 m 125 385 q 151 241 125 308 q 226 126 176 174 l 651 672 q 454 733 568 733 q 276 685 350 733 q 163 556 201 636 q 125 385 125 476 m 454 43 q 634 90 558 43 q 748 216 710 138 q 786 386 786 294 q 761 526 786 460 q 688 642 736 593 l 264 96 q 454 43 343 43 z "},"Ǿ":{"ha":910,"x_min":38,"x_max":872,"o":"m 732 699 q 836 559 800 642 q 872 386 872 476 q 823 187 872 279 q 678 38 774 94 q 454 -18 583 -18 q 224 43 322 -18 l 151 -50 l 111 -22 l 183 71 q 76 212 114 129 q 38 386 38 294 q 88 586 38 493 q 232 736 138 679 q 454 793 326 793 q 694 726 592 793 l 771 825 l 810 799 l 732 699 m 125 385 q 151 241 125 308 q 226 126 176 174 l 651 672 q 454 733 568 733 q 276 685 350 733 q 163 556 201 636 q 125 385 125 476 m 454 43 q 634 90 558 43 q 748 216 710 138 q 786 386 786 294 q 761 526 786 460 q 688 642 736 593 l 264 96 q 454 43 343 43 m 503 1090 l 586 1090 l 481 903 l 435 903 l 503 1090 z "},"Õ":{"ha":985,"x_min":75,"x_max":910,"o":"m 492 -15 q 269 41 364 -15 q 125 190 175 97 q 75 389 75 283 q 125 589 75 496 q 269 739 175 682 q 492 796 364 796 q 715 739 621 796 q 860 589 810 682 q 910 389 910 496 q 860 190 910 282 q 716 41 811 97 q 492 -15 621 -15 m 492 46 q 672 93 596 46 q 785 219 747 140 q 824 389 824 297 q 785 559 824 479 q 671 688 746 639 q 492 736 596 736 q 313 688 388 736 q 201 559 239 639 q 163 388 163 479 q 200 217 163 294 q 312 92 238 139 q 492 46 386 46 m 572 897 q 532 904 551 897 q 479 926 513 911 q 440 944 460 936 q 404 951 419 951 q 363 900 368 951 l 326 900 q 352 979 329 951 q 413 1007 375 1007 q 500 978 442 1007 q 575 953 553 953 q 619 1004 614 953 l 654 1004 q 572 897 650 897 z "},"Ṍ":{"ha":985,"x_min":75,"x_max":910,"o":"m 492 -15 q 269 41 364 -15 q 125 190 175 97 q 75 389 75 283 q 125 589 75 496 q 269 739 175 682 q 492 796 364 796 q 715 739 621 796 q 860 589 810 682 q 910 389 910 496 q 860 190 910 282 q 716 41 811 97 q 492 -15 621 -15 m 492 46 q 672 93 596 46 q 785 219 747 140 q 824 389 824 297 q 785 559 824 479 q 671 688 746 639 q 492 736 596 736 q 313 688 388 736 q 201 559 239 639 q 163 388 163 479 q 200 217 163 294 q 312 92 238 139 q 492 46 386 46 m 572 897 q 532 904 551 897 q 479 926 513 911 q 440 944 460 936 q 404 951 419 951 q 363 900 368 951 l 326 900 q 352 979 329 951 q 413 1007 375 1007 q 500 978 442 1007 q 575 953 553 953 q 619 1004 614 953 l 654 1004 q 572 897 650 897 m 539 1292 l 622 1292 l 517 1104 l 471 1104 l 539 1292 z "},"Ṏ":{"ha":985,"x_min":75,"x_max":910,"o":"m 492 -15 q 269 41 364 -15 q 125 190 175 97 q 75 389 75 283 q 125 589 75 496 q 269 739 175 682 q 492 796 364 796 q 715 739 621 796 q 860 589 810 682 q 910 389 910 496 q 860 190 910 282 q 716 41 811 97 q 492 -15 621 -15 m 492 46 q 672 93 596 46 q 785 219 747 140 q 824 389 824 297 q 785 559 824 479 q 671 688 746 639 q 492 736 596 736 q 313 688 388 736 q 201 559 239 639 q 163 388 163 479 q 200 217 163 294 q 312 92 238 139 q 492 46 386 46 m 572 897 q 532 904 551 897 q 479 926 513 911 q 440 944 460 936 q 404 951 419 951 q 363 900 368 951 l 326 900 q 352 979 329 951 q 413 1007 375 1007 q 500 978 442 1007 q 575 953 553 953 q 619 1004 614 953 l 654 1004 q 572 897 650 897 m 369 1089 q 334 1101 347 1089 q 321 1136 321 1114 q 334 1169 321 1157 q 369 1182 347 1182 q 404 1169 392 1182 q 417 1136 417 1157 q 404 1101 417 1114 q 369 1089 392 1089 m 614 1089 q 580 1101 593 1089 q 567 1135 567 1114 q 580 1169 567 1157 q 614 1182 593 1182 q 649 1169 636 1182 q 663 1135 663 1157 q 649 1101 663 1114 q 614 1089 636 1089 z "},"Ȭ":{"ha":985,"x_min":75,"x_max":910,"o":"m 492 -15 q 269 41 364 -15 q 125 190 175 97 q 75 389 75 283 q 125 589 75 496 q 269 739 175 682 q 492 796 364 796 q 715 739 621 796 q 860 589 810 682 q 910 389 910 496 q 860 190 910 282 q 716 41 811 97 q 492 -15 621 -15 m 492 46 q 672 93 596 46 q 785 219 747 140 q 824 389 824 297 q 785 559 824 479 q 671 688 746 639 q 492 736 596 736 q 313 688 388 736 q 201 559 239 639 q 163 388 163 479 q 200 217 163 294 q 312 92 238 139 q 492 46 386 46 m 572 897 q 532 904 551 897 q 479 926 513 911 q 440 944 460 936 q 404 951 419 951 q 363 900 368 951 l 326 900 q 352 979 329 951 q 413 1007 375 1007 q 500 978 442 1007 q 575 953 553 953 q 619 1004 614 953 l 654 1004 q 572 897 650 897 m 354 1147 l 629 1147 l 629 1100 l 354 1100 l 354 1147 z "},"Œ":{"ha":1324,"x_min":75,"x_max":1246,"o":"m 515 0 q 281 47 381 0 q 128 181 182 93 q 75 390 75 269 q 128 599 75 511 q 281 735 182 688 q 514 782 379 782 l 1233 782 l 1233 542 l 1169 542 l 1169 725 l 760 725 l 760 419 l 1038 419 l 1038 521 l 1083 521 l 1083 254 l 1038 254 l 1038 363 l 760 363 l 760 56 l 1182 56 l 1182 251 l 1246 251 l 1246 0 l 515 0 m 679 56 l 679 725 l 519 725 q 258 636 354 725 q 161 390 161 547 q 258 145 161 235 q 519 56 354 56 l 679 56 z "},"P":{"ha":800,"x_min":67,"x_max":732,"o":"m 67 54 l 179 54 l 179 728 l 67 728 l 67 782 l 468 782 q 663 726 594 782 q 732 567 732 669 q 663 391 732 453 q 465 329 593 329 l 319 329 l 319 383 l 464 383 q 601 431 553 383 q 649 565 649 478 q 603 685 649 643 q 475 728 558 728 l 261 728 l 261 54 l 374 54 l 374 0 l 67 0 l 67 54 z "},"Ṗ":{"ha":800,"x_min":67,"x_max":732,"o":"m 67 54 l 179 54 l 179 728 l 67 728 l 67 782 l 468 782 q 663 726 594 782 q 732 567 732 669 q 663 391 732 453 q 465 329 593 329 l 319 329 l 319 383 l 464 383 q 601 431 553 383 q 649 565 649 478 q 603 685 649 643 q 475 728 558 728 l 261 728 l 261 54 l 374 54 l 374 0 l 67 0 l 67 54 m 426 889 q 387 905 403 889 q 371 940 371 921 q 386 978 371 963 q 426 993 401 993 q 466 978 451 993 q 481 940 481 964 q 467 905 482 921 q 426 889 453 889 z "},"Þ":{"ha":788,"x_min":72,"x_max":719,"o":"m 474 619 q 655 568 590 619 q 719 425 719 517 q 656 278 719 329 q 478 226 593 226 l 322 226 l 322 276 l 478 276 q 597 315 554 276 q 640 425 640 354 q 596 529 640 492 q 474 567 551 567 l 267 567 l 267 54 l 381 54 l 381 0 l 72 0 l 72 54 l 185 54 l 185 728 l 72 728 l 72 782 l 381 782 l 381 728 l 267 728 l 267 619 l 474 619 z "},"Q":{"ha":979,"x_min":75,"x_max":910,"o":"m 718 -167 q 467 -14 578 -167 q 256 49 344 -8 q 121 196 167 106 q 75 389 75 286 q 125 589 75 496 q 269 739 175 682 q 492 796 364 796 q 715 739 621 796 q 860 589 810 682 q 910 389 910 496 q 867 201 910 289 q 740 55 824 113 q 540 -12 656 -3 q 623 -87 582 -61 q 718 -112 664 -112 q 799 -100 756 -112 l 799 -154 q 718 -167 757 -167 m 492 46 q 672 93 596 46 q 785 219 747 140 q 824 389 824 297 q 785 559 824 479 q 671 688 746 639 q 492 736 596 736 q 313 688 388 736 q 201 559 239 639 q 163 388 163 479 q 200 217 163 294 q 312 92 238 139 q 492 46 386 46 z "},"R":{"ha":867,"x_min":67,"x_max":819,"o":"m 67 54 l 179 54 l 179 728 l 67 728 l 67 782 l 485 782 q 667 726 603 782 q 731 576 731 669 q 678 434 731 490 q 511 368 626 378 l 704 54 l 819 54 l 819 0 l 649 0 l 432 361 l 310 361 l 310 418 l 458 418 q 607 464 564 418 q 650 575 650 510 q 610 684 650 640 q 486 728 569 728 l 261 728 l 261 54 l 374 54 l 374 0 l 67 0 l 67 54 z "},"Ŕ":{"ha":867,"x_min":67,"x_max":819,"o":"m 67 54 l 179 54 l 179 728 l 67 728 l 67 782 l 485 782 q 667 726 603 782 q 731 576 731 669 q 678 434 731 490 q 511 368 626 378 l 704 54 l 819 54 l 819 0 l 649 0 l 432 361 l 310 361 l 310 418 l 458 418 q 607 464 564 418 q 650 575 650 510 q 610 684 650 640 q 486 728 569 728 l 261 728 l 261 54 l 374 54 l 374 0 l 67 0 l 67 54 m 468 1090 l 551 1090 l 446 903 l 400 903 l 468 1090 z "},"Ř":{"ha":867,"x_min":67,"x_max":819,"o":"m 67 54 l 179 54 l 179 728 l 67 728 l 67 782 l 485 782 q 667 726 603 782 q 731 576 731 669 q 678 434 731 490 q 511 368 626 378 l 704 54 l 819 54 l 819 0 l 649 0 l 432 361 l 310 361 l 310 418 l 458 418 q 607 464 564 418 q 650 575 650 510 q 610 684 650 640 q 486 728 569 728 l 261 728 l 261 54 l 374 54 l 374 0 l 67 0 l 67 54 m 272 1083 l 328 1083 l 422 921 l 514 1083 l 568 1083 l 454 874 l 389 874 l 272 1083 z "},"Ŗ":{"ha":867,"x_min":67,"x_max":819,"o":"m 67 54 l 179 54 l 179 728 l 67 728 l 67 782 l 485 782 q 667 726 603 782 q 731 576 731 669 q 678 434 731 490 q 511 368 626 378 l 704 54 l 819 54 l 819 0 l 649 0 l 432 361 l 310 361 l 310 418 l 458 418 q 607 464 564 418 q 650 575 650 510 q 610 684 650 640 q 486 728 569 728 l 261 728 l 261 54 l 374 54 l 374 0 l 67 0 l 67 54 m 410 -265 q 460 -235 446 -260 q 475 -167 475 -211 l 417 -167 l 417 -71 l 519 -71 l 519 -172 q 410 -297 519 -299 l 410 -265 z "},"Ȑ":{"ha":867,"x_min":67,"x_max":819,"o":"m 67 54 l 179 54 l 179 728 l 67 728 l 67 782 l 485 782 q 667 726 603 782 q 731 576 731 669 q 678 434 731 490 q 511 368 626 378 l 704 54 l 819 54 l 819 0 l 649 0 l 432 361 l 310 361 l 310 418 l 458 418 q 607 464 564 418 q 650 575 650 510 q 610 684 650 640 q 486 728 569 728 l 261 728 l 261 54 l 374 54 l 374 0 l 67 0 l 67 54 m 188 1110 l 271 1110 l 347 903 l 301 903 l 188 1110 m 351 1110 l 435 1110 l 510 903 l 465 903 l 351 1110 z "},"Ṛ":{"ha":867,"x_min":67,"x_max":819,"o":"m 67 54 l 179 54 l 179 728 l 67 728 l 67 782 l 485 782 q 667 726 603 782 q 731 576 731 669 q 678 434 731 490 q 511 368 626 378 l 704 54 l 819 54 l 819 0 l 649 0 l 432 361 l 310 361 l 310 418 l 458 418 q 607 464 564 418 q 650 575 650 510 q 610 684 650 640 q 486 728 569 728 l 261 728 l 261 54 l 374 54 l 374 0 l 67 0 l 67 54 m 464 -174 q 424 -158 440 -174 q 408 -122 408 -143 q 424 -85 408 -100 q 464 -71 439 -71 q 503 -85 489 -71 q 518 -122 518 -100 q 505 -158 519 -142 q 464 -174 490 -174 z "},"Ȓ":{"ha":867,"x_min":67,"x_max":819,"o":"m 67 54 l 179 54 l 179 728 l 67 728 l 67 782 l 485 782 q 667 726 603 782 q 731 576 731 669 q 678 434 731 490 q 511 368 626 378 l 704 54 l 819 54 l 819 0 l 649 0 l 432 361 l 310 361 l 310 418 l 458 418 q 607 464 564 418 q 650 575 650 510 q 610 684 650 640 q 486 728 569 728 l 261 728 l 261 54 l 374 54 l 374 0 l 67 0 l 67 54 m 286 875 q 330 966 294 933 q 421 999 365 999 q 512 966 476 999 q 554 875 547 933 l 497 875 q 421 943 481 943 q 344 875 360 943 l 286 875 z "},"Ṟ":{"ha":867,"x_min":67,"x_max":819,"o":"m 67 54 l 179 54 l 179 728 l 67 728 l 67 782 l 485 782 q 667 726 603 782 q 731 576 731 669 q 678 434 731 490 q 511 368 626 378 l 704 54 l 819 54 l 819 0 l 649 0 l 432 361 l 310 361 l 310 418 l 458 418 q 607 464 564 418 q 650 575 650 510 q 610 684 650 640 q 486 728 569 728 l 261 728 l 261 54 l 374 54 l 374 0 l 67 0 l 67 54 m 326 -61 l 601 -61 l 601 -108 l 326 -108 l 326 -61 z "},"S":{"ha":744,"x_min":106,"x_max":672,"o":"m 429 429 q 615 358 557 408 q 672 207 672 308 q 606 49 672 111 q 424 -14 540 -14 q 272 17 336 -14 q 175 106 207 49 l 175 0 l 108 0 l 108 264 l 171 264 q 239 103 176 163 q 421 44 301 44 q 552 85 506 44 q 599 197 599 126 q 581 280 599 249 q 525 329 564 311 q 415 358 486 347 l 347 368 q 167 439 229 386 q 106 589 106 492 q 171 742 106 686 q 351 797 236 797 q 483 772 425 797 q 571 700 540 746 l 571 782 l 638 782 l 638 567 l 575 567 q 515 688 569 639 q 354 738 461 738 q 225 699 271 738 q 179 594 179 660 q 224 489 179 524 q 361 439 269 454 l 429 429 z "},"Ś":{"ha":744,"x_min":106,"x_max":672,"o":"m 429 429 q 615 358 557 408 q 672 207 672 308 q 606 49 672 111 q 424 -14 540 -14 q 272 17 336 -14 q 175 106 207 49 l 175 0 l 108 0 l 108 264 l 171 264 q 239 103 176 163 q 421 44 301 44 q 552 85 506 44 q 599 197 599 126 q 581 280 599 249 q 525 329 564 311 q 415 358 486 347 l 347 368 q 167 439 229 386 q 106 589 106 492 q 171 742 106 686 q 351 797 236 797 q 483 772 425 797 q 571 700 540 746 l 571 782 l 638 782 l 638 567 l 575 567 q 515 688 569 639 q 354 738 461 738 q 225 699 271 738 q 179 594 179 660 q 224 489 179 524 q 361 439 269 454 l 429 429 m 432 1090 l 515 1090 l 410 903 l 364 903 l 432 1090 z "},"Ṥ":{"ha":744,"x_min":106,"x_max":672,"o":"m 429 429 q 615 358 557 408 q 672 207 672 308 q 606 49 672 111 q 424 -14 540 -14 q 272 17 336 -14 q 175 106 207 49 l 175 0 l 108 0 l 108 264 l 171 264 q 239 103 176 163 q 421 44 301 44 q 552 85 506 44 q 599 197 599 126 q 581 280 599 249 q 525 329 564 311 q 415 358 486 347 l 347 368 q 167 439 229 386 q 106 589 106 492 q 171 742 106 686 q 351 797 236 797 q 483 772 425 797 q 571 700 540 746 l 571 782 l 638 782 l 638 567 l 575 567 q 515 688 569 639 q 354 738 461 738 q 225 699 271 738 q 179 594 179 660 q 224 489 179 524 q 361 439 269 454 l 429 429 m 432 1090 l 515 1090 l 410 903 l 364 903 l 432 1090 m 385 1215 q 345 1231 361 1215 q 329 1267 329 1247 q 344 1304 329 1289 q 385 1319 360 1319 q 424 1305 410 1319 q 439 1267 439 1290 q 426 1231 440 1247 q 385 1215 411 1215 z "},"Š":{"ha":744,"x_min":106,"x_max":672,"o":"m 429 429 q 615 358 557 408 q 672 207 672 308 q 606 49 672 111 q 424 -14 540 -14 q 272 17 336 -14 q 175 106 207 49 l 175 0 l 108 0 l 108 264 l 171 264 q 239 103 176 163 q 421 44 301 44 q 552 85 506 44 q 599 197 599 126 q 581 280 599 249 q 525 329 564 311 q 415 358 486 347 l 347 368 q 167 439 229 386 q 106 589 106 492 q 171 742 106 686 q 351 797 236 797 q 483 772 425 797 q 571 700 540 746 l 571 782 l 638 782 l 638 567 l 575 567 q 515 688 569 639 q 354 738 461 738 q 225 699 271 738 q 179 594 179 660 q 224 489 179 524 q 361 439 269 454 l 429 429 m 236 1083 l 292 1083 l 386 921 l 478 1083 l 532 1083 l 418 874 l 353 874 l 236 1083 z "},"Ṧ":{"ha":744,"x_min":106,"x_max":672,"o":"m 429 429 q 615 358 557 408 q 672 207 672 308 q 606 49 672 111 q 424 -14 540 -14 q 272 17 336 -14 q 175 106 207 49 l 175 0 l 108 0 l 108 264 l 171 264 q 239 103 176 163 q 421 44 301 44 q 552 85 506 44 q 599 197 599 126 q 581 280 599 249 q 525 329 564 311 q 415 358 486 347 l 347 368 q 167 439 229 386 q 106 589 106 492 q 171 742 106 686 q 351 797 236 797 q 483 772 425 797 q 571 700 540 746 l 571 782 l 638 782 l 638 567 l 575 567 q 515 688 569 639 q 354 738 461 738 q 225 699 271 738 q 179 594 179 660 q 224 489 179 524 q 361 439 269 454 l 429 429 m 236 1083 l 292 1083 l 386 921 l 478 1083 l 532 1083 l 418 874 l 353 874 l 236 1083 m 385 1171 q 345 1187 361 1171 q 329 1222 329 1203 q 344 1260 329 1244 q 385 1275 360 1275 q 424 1260 410 1275 q 439 1222 439 1246 q 426 1187 440 1203 q 385 1171 411 1171 z "},"Ş":{"ha":744,"x_min":106,"x_max":672,"o":"m 672 207 q 609 51 672 113 q 435 -14 546 -11 l 415 -79 q 486 -102 463 -82 q 510 -153 510 -122 q 484 -207 510 -189 q 419 -225 458 -225 q 321 -201 371 -225 l 321 -171 q 390 -182 363 -182 q 443 -149 443 -182 q 361 -108 443 -110 l 399 -12 q 263 22 321 -8 q 175 106 206 53 l 175 0 l 108 0 l 108 264 l 171 264 q 239 103 176 163 q 421 44 301 44 q 552 85 506 44 q 599 197 599 126 q 581 280 599 249 q 525 329 564 311 q 415 358 486 347 l 347 368 q 167 439 229 386 q 106 589 106 492 q 171 742 106 686 q 351 797 236 797 q 483 772 425 797 q 571 700 540 746 l 571 782 l 638 782 l 638 567 l 575 567 q 515 688 569 639 q 354 738 461 738 q 225 699 271 738 q 179 594 179 660 q 224 489 179 524 q 361 439 269 454 l 429 429 q 615 358 557 408 q 672 207 672 308 z "},"Ŝ":{"ha":744,"x_min":106,"x_max":672,"o":"m 429 429 q 615 358 557 408 q 672 207 672 308 q 606 49 672 111 q 424 -14 540 -14 q 272 17 336 -14 q 175 106 207 49 l 175 0 l 108 0 l 108 264 l 171 264 q 239 103 176 163 q 421 44 301 44 q 552 85 506 44 q 599 197 599 126 q 581 280 599 249 q 525 329 564 311 q 415 358 486 347 l 347 368 q 167 439 229 386 q 106 589 106 492 q 171 742 106 686 q 351 797 236 797 q 483 772 425 797 q 571 700 540 746 l 571 782 l 638 782 l 638 567 l 575 567 q 515 688 569 639 q 354 738 461 738 q 225 699 271 738 q 179 594 179 660 q 224 489 179 524 q 361 439 269 454 l 429 429 m 349 1076 l 422 1076 l 538 863 l 481 863 l 385 1039 l 289 863 l 232 863 l 349 1076 z "},"Ș":{"ha":744,"x_min":106,"x_max":672,"o":"m 429 429 q 615 358 557 408 q 672 207 672 308 q 606 49 672 111 q 424 -14 540 -14 q 272 17 336 -14 q 175 106 207 49 l 175 0 l 108 0 l 108 264 l 171 264 q 239 103 176 163 q 421 44 301 44 q 552 85 506 44 q 599 197 599 126 q 581 280 599 249 q 525 329 564 311 q 415 358 486 347 l 347 368 q 167 439 229 386 q 106 589 106 492 q 171 742 106 686 q 351 797 236 797 q 483 772 425 797 q 571 700 540 746 l 571 782 l 638 782 l 638 567 l 575 567 q 515 688 569 639 q 354 738 461 738 q 225 699 271 738 q 179 594 179 660 q 224 489 179 524 q 361 439 269 454 l 429 429 m 367 -265 q 417 -235 403 -260 q 432 -167 432 -211 l 374 -167 l 374 -71 l 476 -71 l 476 -172 q 367 -297 476 -299 l 367 -265 z "},"Ṡ":{"ha":744,"x_min":106,"x_max":672,"o":"m 429 429 q 615 358 557 408 q 672 207 672 308 q 606 49 672 111 q 424 -14 540 -14 q 272 17 336 -14 q 175 106 207 49 l 175 0 l 108 0 l 108 264 l 171 264 q 239 103 176 163 q 421 44 301 44 q 552 85 506 44 q 599 197 599 126 q 581 280 599 249 q 525 329 564 311 q 415 358 486 347 l 347 368 q 167 439 229 386 q 106 589 106 492 q 171 742 106 686 q 351 797 236 797 q 483 772 425 797 q 571 700 540 746 l 571 782 l 638 782 l 638 567 l 575 567 q 515 688 569 639 q 354 738 461 738 q 225 699 271 738 q 179 594 179 660 q 224 489 179 524 q 361 439 269 454 l 429 429 m 385 889 q 345 905 361 889 q 329 940 329 921 q 344 978 329 963 q 385 993 360 993 q 424 978 410 993 q 439 940 439 964 q 426 905 440 921 q 385 889 411 889 z "},"Ṣ":{"ha":744,"x_min":106,"x_max":672,"o":"m 429 429 q 615 358 557 408 q 672 207 672 308 q 606 49 672 111 q 424 -14 540 -14 q 272 17 336 -14 q 175 106 207 49 l 175 0 l 108 0 l 108 264 l 171 264 q 239 103 176 163 q 421 44 301 44 q 552 85 506 44 q 599 197 599 126 q 581 280 599 249 q 525 329 564 311 q 415 358 486 347 l 347 368 q 167 439 229 386 q 106 589 106 492 q 171 742 106 686 q 351 797 236 797 q 483 772 425 797 q 571 700 540 746 l 571 782 l 638 782 l 638 567 l 575 567 q 515 688 569 639 q 354 738 461 738 q 225 699 271 738 q 179 594 179 660 q 224 489 179 524 q 361 439 269 454 l 429 429 m 421 -174 q 381 -158 397 -174 q 365 -122 365 -143 q 381 -85 365 -100 q 421 -71 396 -71 q 460 -85 446 -71 q 475 -122 475 -100 q 462 -158 476 -142 q 421 -174 447 -174 z "},"Ṩ":{"ha":744,"x_min":106,"x_max":672,"o":"m 429 429 q 615 358 557 408 q 672 207 672 308 q 606 49 672 111 q 424 -14 540 -14 q 272 17 336 -14 q 175 106 207 49 l 175 0 l 108 0 l 108 264 l 171 264 q 239 103 176 163 q 421 44 301 44 q 552 85 506 44 q 599 197 599 126 q 581 280 599 249 q 525 329 564 311 q 415 358 486 347 l 347 368 q 167 439 229 386 q 106 589 106 492 q 171 742 106 686 q 351 797 236 797 q 483 772 425 797 q 571 700 540 746 l 571 782 l 638 782 l 638 567 l 575 567 q 515 688 569 639 q 354 738 461 738 q 225 699 271 738 q 179 594 179 660 q 224 489 179 524 q 361 439 269 454 l 429 429 m 421 -174 q 381 -158 397 -174 q 365 -122 365 -143 q 381 -85 365 -100 q 421 -71 396 -71 q 460 -85 446 -71 q 475 -122 475 -100 q 462 -158 476 -142 q 421 -174 447 -174 m 385 889 q 345 905 361 889 q 329 940 329 921 q 344 978 329 963 q 385 993 360 993 q 424 978 410 993 q 439 940 439 964 q 426 905 440 921 q 385 889 411 889 z "},"ẞ":{"ha":836,"x_min":58,"x_max":771,"o":"m 446 46 q 625 90 567 46 q 683 221 683 133 q 622 350 683 308 q 432 392 560 392 l 432 446 l 624 694 q 439 735 543 735 q 269 681 329 735 q 210 518 210 626 l 210 54 l 288 54 l 288 0 l 58 0 l 58 54 l 128 54 l 128 515 q 208 722 128 649 q 438 796 289 796 q 571 778 511 796 q 686 731 631 761 l 686 675 l 506 446 q 702 380 633 439 q 771 224 771 321 q 688 47 771 107 q 446 -14 604 -14 l 446 46 z "},"Ə":{"ha":929,"x_min":65,"x_max":854,"o":"m 447 796 q 651 746 558 796 q 799 603 744 696 q 854 390 854 511 q 799 174 854 265 q 652 33 744 82 q 450 -15 560 -15 q 249 32 336 -15 q 114 169 163 79 q 65 386 65 260 l 65 413 l 767 413 q 719 583 761 510 q 605 697 676 657 q 444 736 533 736 q 115 597 264 736 l 81 644 q 447 796 242 796 m 451 47 q 606 84 536 47 q 718 191 675 121 q 767 354 761 261 l 150 354 q 190 188 150 257 q 299 83 231 118 q 451 47 368 47 z "},"T":{"ha":776,"x_min":35,"x_max":742,"o":"m 235 54 l 347 54 l 347 728 l 97 728 l 97 515 l 35 515 l 35 782 l 742 782 l 742 515 l 678 515 l 678 728 l 428 728 l 428 54 l 540 54 l 540 0 l 235 0 l 235 54 z "},"Ŧ":{"ha":776,"x_min":35,"x_max":742,"o":"m 742 782 l 742 515 l 678 515 l 678 728 l 428 728 l 428 414 l 525 414 l 525 367 l 428 367 l 428 54 l 540 54 l 540 0 l 235 0 l 235 54 l 347 54 l 347 367 l 250 367 l 250 414 l 347 414 l 347 728 l 97 728 l 97 515 l 35 515 l 35 782 l 742 782 z "},"Ť":{"ha":776,"x_min":35,"x_max":742,"o":"m 235 54 l 347 54 l 347 728 l 97 728 l 97 515 l 35 515 l 35 782 l 742 782 l 742 515 l 678 515 l 678 728 l 428 728 l 428 54 l 540 54 l 540 0 l 235 0 l 235 54 m 238 1083 l 293 1083 l 388 921 l 479 1083 l 533 1083 l 419 874 l 354 874 l 238 1083 z "},"Ţ":{"ha":776,"x_min":35,"x_max":742,"o":"m 235 54 l 347 54 l 347 728 l 97 728 l 97 515 l 35 515 l 35 782 l 742 782 l 742 515 l 678 515 l 678 728 l 428 728 l 428 54 l 540 54 l 540 0 l 235 0 l 235 54 m 386 -225 q 288 -201 338 -225 l 288 -171 q 357 -182 329 -182 q 410 -149 410 -182 q 328 -108 410 -110 l 371 0 l 406 0 l 382 -79 q 453 -102 429 -82 q 476 -153 476 -122 q 451 -207 476 -189 q 386 -225 425 -225 z "},"Ț":{"ha":776,"x_min":35,"x_max":742,"o":"m 235 54 l 347 54 l 347 728 l 97 728 l 97 515 l 35 515 l 35 782 l 742 782 l 742 515 l 678 515 l 678 728 l 428 728 l 428 54 l 540 54 l 540 0 l 235 0 l 235 54 m 333 -265 q 384 -235 369 -260 q 399 -167 399 -211 l 340 -167 l 340 -71 l 443 -71 l 443 -172 q 333 -297 443 -299 l 333 -265 z "},"Ṫ":{"ha":776,"x_min":35,"x_max":742,"o":"m 235 54 l 347 54 l 347 728 l 97 728 l 97 515 l 35 515 l 35 782 l 742 782 l 742 515 l 678 515 l 678 728 l 428 728 l 428 54 l 540 54 l 540 0 l 235 0 l 235 54 m 386 889 q 347 905 363 889 q 331 940 331 921 q 346 978 331 963 q 386 993 361 993 q 426 978 411 993 q 440 940 440 964 q 427 905 442 921 q 386 889 413 889 z "},"Ṭ":{"ha":776,"x_min":35,"x_max":742,"o":"m 235 54 l 347 54 l 347 728 l 97 728 l 97 515 l 35 515 l 35 782 l 742 782 l 742 515 l 678 515 l 678 728 l 428 728 l 428 54 l 540 54 l 540 0 l 235 0 l 235 54 m 388 -174 q 348 -158 364 -174 q 332 -122 332 -143 q 347 -85 332 -100 q 388 -71 363 -71 q 427 -85 413 -71 q 442 -122 442 -100 q 428 -158 443 -142 q 388 -174 414 -174 z "},"Ṯ":{"ha":776,"x_min":35,"x_max":742,"o":"m 235 54 l 347 54 l 347 728 l 97 728 l 97 515 l 35 515 l 35 782 l 742 782 l 742 515 l 678 515 l 678 728 l 428 728 l 428 54 l 540 54 l 540 0 l 235 0 l 235 54 m 250 -61 l 525 -61 l 525 -108 l 250 -108 l 250 -61 z "},"U":{"ha":967,"x_min":47,"x_max":931,"o":"m 482 -14 q 236 65 322 -14 q 150 271 150 143 l 150 728 l 47 728 l 47 782 l 336 782 l 336 728 l 232 728 l 232 263 q 300 106 232 164 q 483 47 368 47 q 681 106 607 47 q 754 263 754 164 l 754 728 l 651 728 l 651 782 l 931 782 l 931 728 l 825 728 l 825 264 q 731 59 825 132 q 482 -14 636 -14 z "},"Ú":{"ha":967,"x_min":47,"x_max":931,"o":"m 482 -14 q 236 65 322 -14 q 150 271 150 143 l 150 728 l 47 728 l 47 782 l 336 782 l 336 728 l 232 728 l 232 263 q 300 106 232 164 q 483 47 368 47 q 681 106 607 47 q 754 263 754 164 l 754 728 l 651 728 l 651 782 l 931 782 l 931 728 l 825 728 l 825 264 q 731 59 825 132 q 482 -14 636 -14 m 539 1090 l 622 1090 l 517 903 l 471 903 l 539 1090 z "},"Ŭ":{"ha":967,"x_min":47,"x_max":931,"o":"m 482 -14 q 236 65 322 -14 q 150 271 150 143 l 150 728 l 47 728 l 47 782 l 336 782 l 336 728 l 232 728 l 232 263 q 300 106 232 164 q 483 47 368 47 q 681 106 607 47 q 754 263 754 164 l 754 728 l 651 728 l 651 782 l 931 782 l 931 728 l 825 728 l 825 264 q 731 59 825 132 q 482 -14 636 -14 m 489 882 q 403 913 438 882 q 363 1000 369 944 l 413 1000 q 492 929 428 929 q 542 947 522 929 q 569 1000 563 965 l 621 1000 q 578 913 613 943 q 489 882 543 882 z "},"Ǔ":{"ha":967,"x_min":47,"x_max":931,"o":"m 482 -14 q 236 65 322 -14 q 150 271 150 143 l 150 728 l 47 728 l 47 782 l 336 782 l 336 728 l 232 728 l 232 263 q 300 106 232 164 q 483 47 368 47 q 681 106 607 47 q 754 263 754 164 l 754 728 l 651 728 l 651 782 l 931 782 l 931 728 l 825 728 l 825 264 q 731 59 825 132 q 482 -14 636 -14 m 343 1083 l 399 1083 l 493 921 l 585 1083 l 639 1083 l 525 874 l 460 874 l 343 1083 z "},"Û":{"ha":967,"x_min":47,"x_max":931,"o":"m 482 -14 q 236 65 322 -14 q 150 271 150 143 l 150 728 l 47 728 l 47 782 l 336 782 l 336 728 l 232 728 l 232 263 q 300 106 232 164 q 483 47 368 47 q 681 106 607 47 q 754 263 754 164 l 754 728 l 651 728 l 651 782 l 931 782 l 931 728 l 825 728 l 825 264 q 731 59 825 132 q 482 -14 636 -14 m 456 1076 l 529 1076 l 644 863 l 588 863 l 492 1039 l 396 863 l 339 863 l 456 1076 z "},"Ȕ":{"ha":967,"x_min":47,"x_max":931,"o":"m 482 -14 q 236 65 322 -14 q 150 271 150 143 l 150 728 l 47 728 l 47 782 l 336 782 l 336 728 l 232 728 l 232 263 q 300 106 232 164 q 483 47 368 47 q 681 106 607 47 q 754 263 754 164 l 754 728 l 651 728 l 651 782 l 931 782 l 931 728 l 825 728 l 825 264 q 731 59 825 132 q 482 -14 636 -14 m 258 1110 l 342 1110 l 418 903 l 372 903 l 258 1110 m 422 1110 l 506 1110 l 581 903 l 536 903 l 422 1110 z "},"Ü":{"ha":967,"x_min":47,"x_max":931,"o":"m 482 -14 q 236 65 322 -14 q 150 271 150 143 l 150 728 l 47 728 l 47 782 l 336 782 l 336 728 l 232 728 l 232 263 q 300 106 232 164 q 483 47 368 47 q 681 106 607 47 q 754 263 754 164 l 754 728 l 651 728 l 651 782 l 931 782 l 931 728 l 825 728 l 825 264 q 731 59 825 132 q 482 -14 636 -14 m 369 888 q 334 900 347 888 q 321 935 321 913 q 334 968 321 956 q 369 981 347 981 q 404 968 392 981 q 417 935 417 956 q 404 900 417 913 q 369 888 392 888 m 614 888 q 580 900 593 888 q 567 933 567 913 q 580 968 567 956 q 614 981 593 981 q 649 968 636 981 q 663 933 663 956 q 649 900 663 913 q 614 888 636 888 z "},"Ụ":{"ha":967,"x_min":47,"x_max":931,"o":"m 482 -14 q 236 65 322 -14 q 150 271 150 143 l 150 728 l 47 728 l 47 782 l 336 782 l 336 728 l 232 728 l 232 263 q 300 106 232 164 q 483 47 368 47 q 681 106 607 47 q 754 263 754 164 l 754 728 l 651 728 l 651 782 l 931 782 l 931 728 l 825 728 l 825 264 q 731 59 825 132 q 482 -14 636 -14 m 483 -174 q 444 -158 460 -174 q 428 -122 428 -143 q 443 -85 428 -100 q 483 -71 458 -71 q 523 -85 508 -71 q 538 -122 538 -100 q 524 -158 539 -142 q 483 -174 510 -174 z "},"Ù":{"ha":967,"x_min":47,"x_max":931,"o":"m 482 -14 q 236 65 322 -14 q 150 271 150 143 l 150 728 l 47 728 l 47 782 l 336 782 l 336 728 l 232 728 l 232 263 q 300 106 232 164 q 483 47 368 47 q 681 106 607 47 q 754 263 754 164 l 754 728 l 651 728 l 651 782 l 931 782 l 931 728 l 825 728 l 825 264 q 731 59 825 132 q 482 -14 636 -14 m 361 1090 l 444 1090 l 513 903 l 467 903 l 361 1090 z "},"Ủ":{"ha":967,"x_min":47,"x_max":931,"o":"m 482 -14 q 236 65 322 -14 q 150 271 150 143 l 150 728 l 47 728 l 47 782 l 336 782 l 336 728 l 232 728 l 232 263 q 300 106 232 164 q 483 47 368 47 q 681 106 607 47 q 754 263 754 164 l 754 728 l 651 728 l 651 782 l 931 782 l 931 728 l 825 728 l 825 264 q 731 59 825 132 q 482 -14 636 -14 m 475 890 q 519 939 519 906 q 507 967 519 957 q 472 978 494 978 q 413 960 444 978 l 394 1006 q 478 1028 433 1028 q 549 1003 522 1028 q 576 942 576 979 q 492 843 576 869 l 475 890 z "},"Ư":{"ha":967,"x_min":47,"x_max":947,"o":"m 947 875 q 908 785 940 821 q 825 739 876 749 l 825 264 q 731 59 825 132 q 482 -14 636 -14 q 236 65 322 -14 q 150 271 150 143 l 150 728 l 47 728 l 47 782 l 336 782 l 336 728 l 232 728 l 232 263 q 300 106 232 164 q 483 47 368 47 q 681 106 607 47 q 754 263 754 164 l 754 728 l 651 728 l 651 782 l 767 782 q 835 805 808 782 q 865 875 861 828 l 947 875 z "},"Ứ":{"ha":967,"x_min":47,"x_max":947,"o":"m 947 875 q 908 785 940 821 q 825 739 876 749 l 825 264 q 731 59 825 132 q 482 -14 636 -14 q 236 65 322 -14 q 150 271 150 143 l 150 728 l 47 728 l 47 782 l 336 782 l 336 728 l 232 728 l 232 263 q 300 106 232 164 q 483 47 368 47 q 681 106 607 47 q 754 263 754 164 l 754 728 l 651 728 l 651 782 l 767 782 q 835 805 808 782 q 865 875 861 828 l 947 875 m 539 1090 l 622 1090 l 517 903 l 471 903 l 539 1090 z "},"Ự":{"ha":967,"x_min":47,"x_max":947,"o":"m 947 875 q 908 785 940 821 q 825 739 876 749 l 825 264 q 731 59 825 132 q 482 -14 636 -14 q 236 65 322 -14 q 150 271 150 143 l 150 728 l 47 728 l 47 782 l 336 782 l 336 728 l 232 728 l 232 263 q 300 106 232 164 q 483 47 368 47 q 681 106 607 47 q 754 263 754 164 l 754 728 l 651 728 l 651 782 l 767 782 q 835 805 808 782 q 865 875 861 828 l 947 875 m 483 -174 q 444 -158 460 -174 q 428 -122 428 -143 q 443 -85 428 -100 q 483 -71 458 -71 q 523 -85 508 -71 q 538 -122 538 -100 q 524 -158 539 -142 q 483 -174 510 -174 z "},"Ừ":{"ha":967,"x_min":47,"x_max":947,"o":"m 947 875 q 908 785 940 821 q 825 739 876 749 l 825 264 q 731 59 825 132 q 482 -14 636 -14 q 236 65 322 -14 q 150 271 150 143 l 150 728 l 47 728 l 47 782 l 336 782 l 336 728 l 232 728 l 232 263 q 300 106 232 164 q 483 47 368 47 q 681 106 607 47 q 754 263 754 164 l 754 728 l 651 728 l 651 782 l 767 782 q 835 805 808 782 q 865 875 861 828 l 947 875 m 361 1090 l 444 1090 l 513 903 l 467 903 l 361 1090 z "},"Ử":{"ha":967,"x_min":47,"x_max":947,"o":"m 947 875 q 908 785 940 821 q 825 739 876 749 l 825 264 q 731 59 825 132 q 482 -14 636 -14 q 236 65 322 -14 q 150 271 150 143 l 150 728 l 47 728 l 47 782 l 336 782 l 336 728 l 232 728 l 232 263 q 300 106 232 164 q 483 47 368 47 q 681 106 607 47 q 754 263 754 164 l 754 728 l 651 728 l 651 782 l 767 782 q 835 805 808 782 q 865 875 861 828 l 947 875 m 475 890 q 519 939 519 906 q 507 967 519 957 q 472 978 494 978 q 413 960 444 978 l 394 1006 q 478 1028 433 1028 q 549 1003 522 1028 q 576 942 576 979 q 492 843 576 869 l 475 890 z "},"Ữ":{"ha":967,"x_min":47,"x_max":947,"o":"m 947 875 q 908 785 940 821 q 825 739 876 749 l 825 264 q 731 59 825 132 q 482 -14 636 -14 q 236 65 322 -14 q 150 271 150 143 l 150 728 l 47 728 l 47 782 l 336 782 l 336 728 l 232 728 l 232 263 q 300 106 232 164 q 483 47 368 47 q 681 106 607 47 q 754 263 754 164 l 754 728 l 651 728 l 651 782 l 767 782 q 835 805 808 782 q 865 875 861 828 l 947 875 m 574 897 q 533 904 553 897 q 481 926 514 911 q 441 944 461 936 q 406 951 421 951 q 364 900 369 951 l 328 900 q 353 979 331 951 q 414 1007 376 1007 q 501 978 443 1007 q 576 953 554 953 q 621 1004 615 953 l 656 1004 q 574 897 651 897 z "},"Ű":{"ha":967,"x_min":47,"x_max":931,"o":"m 482 -14 q 236 65 322 -14 q 150 271 150 143 l 150 728 l 47 728 l 47 782 l 336 782 l 336 728 l 232 728 l 232 263 q 300 106 232 164 q 483 47 368 47 q 681 106 607 47 q 754 263 754 164 l 754 728 l 651 728 l 651 782 l 931 782 l 931 728 l 825 728 l 825 264 q 731 59 825 132 q 482 -14 636 -14 m 471 1110 l 554 1110 l 442 903 l 394 903 l 471 1110 m 633 1110 l 717 1110 l 604 903 l 557 903 l 633 1110 z "},"Ȗ":{"ha":967,"x_min":47,"x_max":931,"o":"m 482 -14 q 236 65 322 -14 q 150 271 150 143 l 150 728 l 47 728 l 47 782 l 336 782 l 336 728 l 232 728 l 232 263 q 300 106 232 164 q 483 47 368 47 q 681 106 607 47 q 754 263 754 164 l 754 728 l 651 728 l 651 782 l 931 782 l 931 728 l 825 728 l 825 264 q 731 59 825 132 q 482 -14 636 -14 m 357 875 q 401 966 365 933 q 492 999 436 999 q 583 966 547 999 q 625 875 618 933 l 568 875 q 492 943 551 943 q 415 875 431 943 l 357 875 z "},"Ū":{"ha":967,"x_min":47,"x_max":931,"o":"m 482 -14 q 236 65 322 -14 q 150 271 150 143 l 150 728 l 47 728 l 47 782 l 336 782 l 336 728 l 232 728 l 232 263 q 300 106 232 164 q 483 47 368 47 q 681 106 607 47 q 754 263 754 164 l 754 728 l 651 728 l 651 782 l 931 782 l 931 728 l 825 728 l 825 264 q 731 59 825 132 q 482 -14 636 -14 m 354 946 l 629 946 l 629 899 l 354 899 l 354 946 z "},"Ṻ":{"ha":967,"x_min":47,"x_max":931,"o":"m 482 -14 q 236 65 322 -14 q 150 271 150 143 l 150 728 l 47 728 l 47 782 l 336 782 l 336 728 l 232 728 l 232 263 q 300 106 232 164 q 483 47 368 47 q 681 106 607 47 q 754 263 754 164 l 754 728 l 651 728 l 651 782 l 931 782 l 931 728 l 825 728 l 825 264 q 731 59 825 132 q 482 -14 636 -14 m 354 946 l 629 946 l 629 899 l 354 899 l 354 946 m 369 1036 q 334 1049 347 1036 q 321 1083 321 1061 q 334 1117 321 1104 q 369 1129 347 1129 q 404 1117 392 1129 q 417 1083 417 1104 q 404 1049 417 1061 q 369 1036 392 1036 m 614 1036 q 580 1049 593 1036 q 567 1082 567 1061 q 580 1117 567 1104 q 614 1129 593 1129 q 649 1117 636 1129 q 663 1082 663 1104 q 649 1049 663 1061 q 614 1036 636 1036 z "},"Ų":{"ha":967,"x_min":47,"x_max":931,"o":"m 931 782 l 931 728 l 825 728 l 825 264 q 734 62 825 135 q 493 -14 643 -11 q 440 -115 440 -71 q 458 -160 440 -144 q 504 -176 476 -176 q 568 -156 536 -176 l 568 -199 q 486 -225 525 -225 q 413 -199 443 -225 q 383 -131 383 -172 q 444 -12 383 -76 q 226 74 303 -3 q 150 271 150 150 l 150 728 l 47 728 l 47 782 l 336 782 l 336 728 l 232 728 l 232 263 q 300 106 232 164 q 483 47 368 47 q 681 106 607 47 q 754 263 754 164 l 754 728 l 651 728 l 651 782 l 931 782 z "},"Ů":{"ha":967,"x_min":47,"x_max":931,"o":"m 482 -14 q 236 65 322 -14 q 150 271 150 143 l 150 728 l 47 728 l 47 782 l 336 782 l 336 728 l 232 728 l 232 263 q 300 106 232 164 q 483 47 368 47 q 681 106 607 47 q 754 263 754 164 l 754 728 l 651 728 l 651 782 l 931 782 l 931 728 l 825 728 l 825 264 q 731 59 825 132 q 482 -14 636 -14 m 492 853 q 421 878 447 853 q 394 943 394 903 q 420 1010 394 985 q 492 1036 446 1036 q 563 1011 536 1036 q 589 946 589 986 q 563 878 589 904 q 492 853 536 853 m 492 885 q 535 902 519 885 q 551 946 551 919 q 535 987 551 971 q 492 1003 519 1003 q 448 987 464 1003 q 432 946 432 971 q 448 902 432 919 q 492 885 464 885 z "},"Ũ":{"ha":967,"x_min":47,"x_max":931,"o":"m 482 -14 q 236 65 322 -14 q 150 271 150 143 l 150 728 l 47 728 l 47 782 l 336 782 l 336 728 l 232 728 l 232 263 q 300 106 232 164 q 483 47 368 47 q 681 106 607 47 q 754 263 754 164 l 754 728 l 651 728 l 651 782 l 931 782 l 931 728 l 825 728 l 825 264 q 731 59 825 132 q 482 -14 636 -14 m 574 897 q 533 904 553 897 q 481 926 514 911 q 441 944 461 936 q 406 951 421 951 q 364 900 369 951 l 328 900 q 353 979 331 951 q 414 1007 376 1007 q 501 978 443 1007 q 576 953 554 953 q 621 1004 615 953 l 656 1004 q 574 897 651 897 z "},"Ṹ":{"ha":967,"x_min":47,"x_max":931,"o":"m 482 -14 q 236 65 322 -14 q 150 271 150 143 l 150 728 l 47 728 l 47 782 l 336 782 l 336 728 l 232 728 l 232 263 q 300 106 232 164 q 483 47 368 47 q 681 106 607 47 q 754 263 754 164 l 754 728 l 651 728 l 651 782 l 931 782 l 931 728 l 825 728 l 825 264 q 731 59 825 132 q 482 -14 636 -14 m 574 897 q 533 904 553 897 q 481 926 514 911 q 441 944 461 936 q 406 951 421 951 q 364 900 369 951 l 328 900 q 353 979 331 951 q 414 1007 376 1007 q 501 978 443 1007 q 576 953 554 953 q 621 1004 615 953 l 656 1004 q 574 897 651 897 m 540 1292 l 624 1292 l 518 1104 l 472 1104 l 540 1292 z "},"V":{"ha":872,"x_min":24,"x_max":846,"o":"m 121 728 l 24 728 l 24 782 l 310 782 l 310 728 l 206 728 l 443 92 l 678 728 l 576 728 l 576 782 l 846 782 l 846 728 l 756 728 l 475 0 l 401 0 l 121 728 z "},"W":{"ha":1300,"x_min":40,"x_max":1260,"o":"m 135 728 l 40 728 l 40 782 l 319 782 l 319 728 l 215 728 l 413 104 l 626 757 l 686 757 l 899 104 l 1092 728 l 989 728 l 989 782 l 1260 782 l 1260 728 l 1163 728 l 932 0 l 858 0 l 653 625 l 446 0 l 372 0 l 135 728 z "},"Ẃ":{"ha":1300,"x_min":40,"x_max":1260,"o":"m 135 728 l 40 728 l 40 782 l 319 782 l 319 728 l 215 728 l 413 104 l 626 757 l 686 757 l 899 104 l 1092 728 l 989 728 l 989 782 l 1260 782 l 1260 728 l 1163 728 l 932 0 l 858 0 l 653 625 l 446 0 l 372 0 l 135 728 m 704 1065 l 788 1065 l 682 878 l 636 878 l 704 1065 z "},"Ŵ":{"ha":1300,"x_min":40,"x_max":1260,"o":"m 135 728 l 40 728 l 40 782 l 319 782 l 319 728 l 215 728 l 413 104 l 626 757 l 686 757 l 899 104 l 1092 728 l 989 728 l 989 782 l 1260 782 l 1260 728 l 1163 728 l 932 0 l 858 0 l 653 625 l 446 0 l 372 0 l 135 728 m 621 1051 l 694 1051 l 810 838 l 753 838 l 657 1014 l 561 838 l 504 838 l 621 1051 z "},"Ẅ":{"ha":1300,"x_min":40,"x_max":1260,"o":"m 135 728 l 40 728 l 40 782 l 319 782 l 319 728 l 215 728 l 413 104 l 626 757 l 686 757 l 899 104 l 1092 728 l 989 728 l 989 782 l 1260 782 l 1260 728 l 1163 728 l 932 0 l 858 0 l 653 625 l 446 0 l 372 0 l 135 728 m 535 863 q 499 875 513 863 q 486 910 486 888 q 499 943 486 931 q 535 956 513 956 q 569 943 557 956 q 582 910 582 931 q 569 875 582 888 q 535 863 557 863 m 779 863 q 745 875 758 863 q 732 908 732 888 q 745 943 732 931 q 779 956 758 956 q 815 943 801 956 q 828 908 828 931 q 815 875 828 888 q 779 863 801 863 z "},"Ẁ":{"ha":1300,"x_min":40,"x_max":1260,"o":"m 135 728 l 40 728 l 40 782 l 319 782 l 319 728 l 215 728 l 413 104 l 626 757 l 686 757 l 899 104 l 1092 728 l 989 728 l 989 782 l 1260 782 l 1260 728 l 1163 728 l 932 0 l 858 0 l 653 625 l 446 0 l 372 0 l 135 728 m 526 1065 l 610 1065 l 678 878 l 632 878 l 526 1065 z "},"X":{"ha":882,"x_min":57,"x_max":826,"o":"m 57 51 l 158 51 l 396 401 l 169 729 l 65 729 l 65 782 l 351 782 l 351 729 l 253 729 l 444 447 l 632 729 l 532 729 l 532 782 l 811 782 l 811 729 l 707 729 l 482 400 l 721 51 l 826 51 l 826 0 l 538 0 l 538 51 l 636 51 l 433 354 l 233 51 l 336 51 l 336 0 l 57 0 l 57 51 z "},"Y":{"ha":867,"x_min":15,"x_max":851,"o":"m 281 54 l 394 54 l 394 326 l 119 728 l 15 728 l 15 782 l 308 782 l 308 728 l 208 728 l 442 382 l 669 728 l 567 728 l 567 782 l 851 782 l 851 728 l 746 728 l 475 326 l 475 54 l 590 54 l 590 0 l 281 0 l 281 54 z "},"Ý":{"ha":867,"x_min":15,"x_max":851,"o":"m 281 54 l 394 54 l 394 326 l 119 728 l 15 728 l 15 782 l 308 782 l 308 728 l 208 728 l 442 382 l 669 728 l 567 728 l 567 782 l 851 782 l 851 728 l 746 728 l 475 326 l 475 54 l 590 54 l 590 0 l 281 0 l 281 54 m 488 1090 l 571 1090 l 465 903 l 419 903 l 488 1090 z "},"Ŷ":{"ha":867,"x_min":15,"x_max":851,"o":"m 281 54 l 394 54 l 394 326 l 119 728 l 15 728 l 15 782 l 308 782 l 308 728 l 208 728 l 442 382 l 669 728 l 567 728 l 567 782 l 851 782 l 851 728 l 746 728 l 475 326 l 475 54 l 590 54 l 590 0 l 281 0 l 281 54 m 404 1076 l 478 1076 l 593 863 l 536 863 l 440 1039 l 344 863 l 288 863 l 404 1076 z "},"Ÿ":{"ha":867,"x_min":15,"x_max":851,"o":"m 281 54 l 394 54 l 394 326 l 119 728 l 15 728 l 15 782 l 308 782 l 308 728 l 208 728 l 442 382 l 669 728 l 567 728 l 567 782 l 851 782 l 851 728 l 746 728 l 475 326 l 475 54 l 590 54 l 590 0 l 281 0 l 281 54 m 318 888 q 283 900 296 888 q 269 935 269 913 q 283 968 269 956 q 318 981 296 981 q 353 968 340 981 q 365 935 365 956 q 353 900 365 913 q 318 888 340 888 m 563 888 q 528 900 542 888 q 515 933 515 913 q 528 968 515 956 q 563 981 542 981 q 598 968 585 981 q 611 933 611 956 q 598 900 611 913 q 563 888 585 888 z "},"Ẏ":{"ha":867,"x_min":15,"x_max":851,"o":"m 281 54 l 394 54 l 394 326 l 119 728 l 15 728 l 15 782 l 308 782 l 308 728 l 208 728 l 442 382 l 669 728 l 567 728 l 567 782 l 851 782 l 851 728 l 746 728 l 475 326 l 475 54 l 590 54 l 590 0 l 281 0 l 281 54 m 440 889 q 401 905 417 889 q 385 940 385 921 q 400 978 385 963 q 440 993 415 993 q 480 978 465 993 q 494 940 494 964 q 481 905 496 921 q 440 889 467 889 z "},"Ỵ":{"ha":867,"x_min":15,"x_max":851,"o":"m 281 54 l 394 54 l 394 326 l 119 728 l 15 728 l 15 782 l 308 782 l 308 728 l 208 728 l 442 382 l 669 728 l 567 728 l 567 782 l 851 782 l 851 728 l 746 728 l 475 326 l 475 54 l 590 54 l 590 0 l 281 0 l 281 54 m 435 -174 q 395 -158 411 -174 q 379 -122 379 -143 q 394 -85 379 -100 q 435 -71 410 -71 q 474 -85 460 -71 q 489 -122 489 -100 q 476 -158 490 -142 q 435 -174 461 -174 z "},"Ỳ":{"ha":867,"x_min":15,"x_max":851,"o":"m 281 54 l 394 54 l 394 326 l 119 728 l 15 728 l 15 782 l 308 782 l 308 728 l 208 728 l 442 382 l 669 728 l 567 728 l 567 782 l 851 782 l 851 728 l 746 728 l 475 326 l 475 54 l 590 54 l 590 0 l 281 0 l 281 54 m 310 1090 l 393 1090 l 461 903 l 415 903 l 310 1090 z "},"Ỷ":{"ha":867,"x_min":15,"x_max":851,"o":"m 281 54 l 394 54 l 394 326 l 119 728 l 15 728 l 15 782 l 308 782 l 308 728 l 208 728 l 442 382 l 669 728 l 567 728 l 567 782 l 851 782 l 851 728 l 746 728 l 475 326 l 475 54 l 590 54 l 590 0 l 281 0 l 281 54 m 424 890 q 468 939 468 906 q 456 967 468 957 q 421 978 443 978 q 361 960 393 978 l 343 1006 q 426 1028 382 1028 q 498 1003 471 1028 q 525 942 525 979 q 440 843 525 869 l 424 890 z "},"Ȳ":{"ha":867,"x_min":15,"x_max":851,"o":"m 281 54 l 394 54 l 394 326 l 119 728 l 15 728 l 15 782 l 308 782 l 308 728 l 208 728 l 442 382 l 669 728 l 567 728 l 567 782 l 851 782 l 851 728 l 746 728 l 475 326 l 475 54 l 590 54 l 590 0 l 281 0 l 281 54 m 303 946 l 578 946 l 578 899 l 303 899 l 303 946 z "},"Ỹ":{"ha":867,"x_min":15,"x_max":851,"o":"m 281 54 l 394 54 l 394 326 l 119 728 l 15 728 l 15 782 l 308 782 l 308 728 l 208 728 l 442 382 l 669 728 l 567 728 l 567 782 l 851 782 l 851 728 l 746 728 l 475 326 l 475 54 l 590 54 l 590 0 l 281 0 l 281 54 m 522 897 q 482 904 501 897 q 429 926 463 911 q 390 944 410 936 q 354 951 369 951 q 313 900 318 951 l 276 900 q 302 979 279 951 q 363 1007 325 1007 q 450 978 392 1007 q 525 953 503 953 q 569 1004 564 953 l 604 1004 q 522 897 600 897 z "},"Z":{"ha":817,"x_min":90,"x_max":732,"o":"m 90 58 l 621 728 l 172 728 l 172 533 l 111 533 l 111 782 l 718 782 l 718 729 l 186 54 l 669 54 l 669 260 l 732 260 l 732 0 l 90 0 l 90 58 z "},"Ź":{"ha":817,"x_min":90,"x_max":732,"o":"m 90 58 l 621 728 l 172 728 l 172 533 l 111 533 l 111 782 l 718 782 l 718 729 l 186 54 l 669 54 l 669 260 l 732 260 l 732 0 l 90 0 l 90 58 m 463 1090 l 546 1090 l 440 903 l 394 903 l 463 1090 z "},"Ž":{"ha":817,"x_min":90,"x_max":732,"o":"m 90 58 l 621 728 l 172 728 l 172 533 l 111 533 l 111 782 l 718 782 l 718 729 l 186 54 l 669 54 l 669 260 l 732 260 l 732 0 l 90 0 l 90 58 m 267 1083 l 322 1083 l 417 921 l 508 1083 l 563 1083 l 449 874 l 383 874 l 267 1083 z "},"Ż":{"ha":817,"x_min":90,"x_max":732,"o":"m 90 58 l 621 728 l 172 728 l 172 533 l 111 533 l 111 782 l 718 782 l 718 729 l 186 54 l 669 54 l 669 260 l 732 260 l 732 0 l 90 0 l 90 58 m 415 889 q 376 905 392 889 q 360 940 360 921 q 375 978 360 963 q 415 993 390 993 q 455 978 440 993 q 469 940 469 964 q 456 905 471 921 q 415 889 442 889 z "},"Ẓ":{"ha":817,"x_min":90,"x_max":732,"o":"m 90 58 l 621 728 l 172 728 l 172 533 l 111 533 l 111 782 l 718 782 l 718 729 l 186 54 l 669 54 l 669 260 l 732 260 l 732 0 l 90 0 l 90 58 m 411 -174 q 372 -158 388 -174 q 356 -122 356 -143 q 371 -85 356 -100 q 411 -71 386 -71 q 451 -85 436 -71 q 465 -122 465 -100 q 452 -158 467 -142 q 411 -174 438 -174 z "},"a":{"ha":625,"x_min":54,"x_max":596,"o":"m 596 54 l 596 0 l 447 0 l 440 53 q 341 1 389 18 q 240 -15 293 -15 q 106 31 157 -15 q 54 147 54 76 q 111 274 54 235 q 261 313 168 313 q 436 292 339 313 l 436 361 q 398 468 436 432 q 293 504 360 504 q 200 491 251 504 q 104 456 149 478 l 82 507 q 188 546 131 532 q 292 560 244 560 q 455 506 400 560 q 510 371 510 453 l 510 54 l 596 54 m 126 150 q 160 69 126 101 q 250 38 193 38 q 338 53 294 38 q 436 103 382 69 l 436 246 q 265 267 346 267 q 165 240 204 267 q 126 150 126 213 z "},"á":{"ha":625,"x_min":54,"x_max":596,"o":"m 596 54 l 596 0 l 447 0 l 440 53 q 341 1 389 18 q 240 -15 293 -15 q 106 31 157 -15 q 54 147 54 76 q 111 274 54 235 q 261 313 168 313 q 436 292 339 313 l 436 361 q 398 468 436 432 q 293 504 360 504 q 200 491 251 504 q 104 456 149 478 l 82 507 q 188 546 131 532 q 292 560 244 560 q 455 506 400 560 q 510 371 510 453 l 510 54 l 596 54 m 126 150 q 160 69 126 101 q 250 38 193 38 q 338 53 294 38 q 436 103 382 69 l 436 246 q 265 267 346 267 q 165 240 204 267 q 126 150 126 213 m 349 854 l 432 854 l 326 667 l 281 667 l 349 854 z "},"ă":{"ha":625,"x_min":54,"x_max":596,"o":"m 596 54 l 596 0 l 447 0 l 440 53 q 341 1 389 18 q 240 -15 293 -15 q 106 31 157 -15 q 54 147 54 76 q 111 274 54 235 q 261 313 168 313 q 436 292 339 313 l 436 361 q 398 468 436 432 q 293 504 360 504 q 200 491 251 504 q 104 456 149 478 l 82 507 q 188 546 131 532 q 292 560 244 560 q 455 506 400 560 q 510 371 510 453 l 510 54 l 596 54 m 126 150 q 160 69 126 101 q 250 38 193 38 q 338 53 294 38 q 436 103 382 69 l 436 246 q 265 267 346 267 q 165 240 204 267 q 126 150 126 213 m 299 646 q 213 677 247 646 q 172 764 179 708 l 222 764 q 301 693 238 693 q 352 711 332 693 q 379 764 372 729 l 431 764 q 388 676 422 707 q 299 646 353 646 z "},"ắ":{"ha":625,"x_min":54,"x_max":596,"o":"m 596 54 l 596 0 l 447 0 l 440 53 q 341 1 389 18 q 240 -15 293 -15 q 106 31 157 -15 q 54 147 54 76 q 111 274 54 235 q 261 313 168 313 q 436 292 339 313 l 436 361 q 398 468 436 432 q 293 504 360 504 q 200 491 251 504 q 104 456 149 478 l 82 507 q 188 546 131 532 q 292 560 244 560 q 455 506 400 560 q 510 371 510 453 l 510 54 l 596 54 m 126 150 q 160 69 126 101 q 250 38 193 38 q 338 53 294 38 q 436 103 382 69 l 436 246 q 265 267 346 267 q 165 240 204 267 q 126 150 126 213 m 326 908 l 410 908 l 315 771 l 269 771 l 326 908 m 299 633 q 212 665 246 633 q 172 751 178 696 l 224 751 q 249 699 229 717 q 301 681 269 681 q 351 699 331 681 q 378 751 372 718 l 431 751 q 390 664 425 694 q 299 633 354 633 z "},"ặ":{"ha":625,"x_min":54,"x_max":596,"o":"m 596 54 l 596 0 l 447 0 l 440 53 q 341 1 389 18 q 240 -15 293 -15 q 106 31 157 -15 q 54 147 54 76 q 111 274 54 235 q 261 313 168 313 q 436 292 339 313 l 436 361 q 398 468 436 432 q 293 504 360 504 q 200 491 251 504 q 104 456 149 478 l 82 507 q 188 546 131 532 q 292 560 244 560 q 455 506 400 560 q 510 371 510 453 l 510 54 l 596 54 m 126 150 q 160 69 126 101 q 250 38 193 38 q 338 53 294 38 q 436 103 382 69 l 436 246 q 265 267 346 267 q 165 240 204 267 q 126 150 126 213 m 329 -174 q 290 -158 306 -174 q 274 -122 274 -143 q 289 -85 274 -100 q 329 -71 304 -71 q 369 -85 354 -71 q 383 -122 383 -100 q 370 -158 385 -142 q 329 -174 356 -174 m 299 646 q 213 677 247 646 q 172 764 179 708 l 222 764 q 301 693 238 693 q 352 711 332 693 q 379 764 372 729 l 431 764 q 388 676 422 707 q 299 646 353 646 z "},"ằ":{"ha":625,"x_min":54,"x_max":596,"o":"m 596 54 l 596 0 l 447 0 l 440 53 q 341 1 389 18 q 240 -15 293 -15 q 106 31 157 -15 q 54 147 54 76 q 111 274 54 235 q 261 313 168 313 q 436 292 339 313 l 436 361 q 398 468 436 432 q 293 504 360 504 q 200 491 251 504 q 104 456 149 478 l 82 507 q 188 546 131 532 q 292 560 244 560 q 455 506 400 560 q 510 371 510 453 l 510 54 l 596 54 m 126 150 q 160 69 126 101 q 250 38 193 38 q 338 53 294 38 q 436 103 382 69 l 436 246 q 265 267 346 267 q 165 240 204 267 q 126 150 126 213 m 192 908 l 275 908 l 332 771 l 286 771 l 192 908 m 299 633 q 212 665 246 633 q 172 751 178 696 l 224 751 q 249 699 229 717 q 301 681 269 681 q 351 699 331 681 q 378 751 372 718 l 431 751 q 390 664 425 694 q 299 633 354 633 z "},"ẳ":{"ha":625,"x_min":54,"x_max":596,"o":"m 596 54 l 596 0 l 447 0 l 440 53 q 341 1 389 18 q 240 -15 293 -15 q 106 31 157 -15 q 54 147 54 76 q 111 274 54 235 q 261 313 168 313 q 436 292 339 313 l 436 361 q 398 468 436 432 q 293 504 360 504 q 200 491 251 504 q 104 456 149 478 l 82 507 q 188 546 131 532 q 292 560 244 560 q 455 506 400 560 q 510 371 510 453 l 510 54 l 596 54 m 126 150 q 160 69 126 101 q 250 38 193 38 q 338 53 294 38 q 436 103 382 69 l 436 246 q 265 267 346 267 q 165 240 204 267 q 126 150 126 213 m 281 797 q 325 846 325 813 q 312 874 325 864 q 278 885 299 885 q 219 867 249 885 l 203 913 q 282 935 240 935 q 353 910 326 935 q 381 849 381 886 q 296 751 381 778 l 281 797 m 299 633 q 212 665 246 633 q 172 751 178 696 l 224 751 q 249 699 229 717 q 301 681 269 681 q 351 699 331 681 q 378 751 372 718 l 431 751 q 390 664 425 694 q 299 633 354 633 z "},"ẵ":{"ha":625,"x_min":54,"x_max":596,"o":"m 596 54 l 596 0 l 447 0 l 440 53 q 341 1 389 18 q 240 -15 293 -15 q 106 31 157 -15 q 54 147 54 76 q 111 274 54 235 q 261 313 168 313 q 436 292 339 313 l 436 361 q 398 468 436 432 q 293 504 360 504 q 200 491 251 504 q 104 456 149 478 l 82 507 q 188 546 131 532 q 292 560 244 560 q 455 506 400 560 q 510 371 510 453 l 510 54 l 596 54 m 126 150 q 160 69 126 101 q 250 38 193 38 q 338 53 294 38 q 436 103 382 69 l 436 246 q 265 267 346 267 q 165 240 204 267 q 126 150 126 213 m 378 796 q 341 802 358 796 q 290 822 324 808 q 262 834 286 824 q 218 844 238 844 q 179 800 185 844 l 143 800 q 169 874 146 849 q 229 900 192 900 q 311 875 256 900 q 381 853 361 853 q 410 863 400 853 q 424 897 421 874 l 458 897 q 436 824 456 851 q 378 796 417 796 m 299 633 q 212 665 246 633 q 172 751 178 696 l 224 751 q 249 699 229 717 q 301 681 269 681 q 351 699 331 681 q 378 751 372 718 l 431 751 q 390 664 425 694 q 299 633 354 633 z "},"ǎ":{"ha":625,"x_min":54,"x_max":596,"o":"m 596 54 l 596 0 l 447 0 l 440 53 q 341 1 389 18 q 240 -15 293 -15 q 106 31 157 -15 q 54 147 54 76 q 111 274 54 235 q 261 313 168 313 q 436 292 339 313 l 436 361 q 398 468 436 432 q 293 504 360 504 q 200 491 251 504 q 104 456 149 478 l 82 507 q 188 546 131 532 q 292 560 244 560 q 455 506 400 560 q 510 371 510 453 l 510 54 l 596 54 m 126 150 q 160 69 126 101 q 250 38 193 38 q 338 53 294 38 q 436 103 382 69 l 436 246 q 265 267 346 267 q 165 240 204 267 q 126 150 126 213 m 153 847 l 208 847 l 303 685 l 394 847 l 449 847 l 335 638 l 269 638 l 153 847 z "},"â":{"ha":625,"x_min":54,"x_max":596,"o":"m 596 54 l 596 0 l 447 0 l 440 53 q 341 1 389 18 q 240 -15 293 -15 q 106 31 157 -15 q 54 147 54 76 q 111 274 54 235 q 261 313 168 313 q 436 292 339 313 l 436 361 q 398 468 436 432 q 293 504 360 504 q 200 491 251 504 q 104 456 149 478 l 82 507 q 188 546 131 532 q 292 560 244 560 q 455 506 400 560 q 510 371 510 453 l 510 54 l 596 54 m 126 150 q 160 69 126 101 q 250 38 193 38 q 338 53 294 38 q 436 103 382 69 l 436 246 q 265 267 346 267 q 165 240 204 267 q 126 150 126 213 m 265 840 l 339 840 l 454 626 l 397 626 l 301 803 l 206 626 l 149 626 l 265 840 z "},"ấ":{"ha":625,"x_min":54,"x_max":596,"o":"m 596 54 l 596 0 l 447 0 l 440 53 q 341 1 389 18 q 240 -15 293 -15 q 106 31 157 -15 q 54 147 54 76 q 111 274 54 235 q 261 313 168 313 q 436 292 339 313 l 436 361 q 398 468 436 432 q 293 504 360 504 q 200 491 251 504 q 104 456 149 478 l 82 507 q 188 546 131 532 q 292 560 244 560 q 455 506 400 560 q 510 371 510 453 l 510 54 l 596 54 m 126 150 q 160 69 126 101 q 250 38 193 38 q 338 53 294 38 q 436 103 382 69 l 436 246 q 265 267 346 267 q 165 240 204 267 q 126 150 126 213 m 469 908 l 544 908 l 458 750 l 411 750 l 469 908 m 265 799 l 339 799 l 454 626 l 397 626 l 301 761 l 206 626 l 149 626 l 265 799 z "},"ậ":{"ha":625,"x_min":54,"x_max":596,"o":"m 596 54 l 596 0 l 447 0 l 440 53 q 341 1 389 18 q 240 -15 293 -15 q 106 31 157 -15 q 54 147 54 76 q 111 274 54 235 q 261 313 168 313 q 436 292 339 313 l 436 361 q 398 468 436 432 q 293 504 360 504 q 200 491 251 504 q 104 456 149 478 l 82 507 q 188 546 131 532 q 292 560 244 560 q 455 506 400 560 q 510 371 510 453 l 510 54 l 596 54 m 126 150 q 160 69 126 101 q 250 38 193 38 q 338 53 294 38 q 436 103 382 69 l 436 246 q 265 267 346 267 q 165 240 204 267 q 126 150 126 213 m 329 -174 q 290 -158 306 -174 q 274 -122 274 -143 q 289 -85 274 -100 q 329 -71 304 -71 q 369 -85 354 -71 q 383 -122 383 -100 q 370 -158 385 -142 q 329 -174 356 -174 m 265 840 l 339 840 l 454 626 l 397 626 l 301 803 l 206 626 l 149 626 l 265 840 z "},"ầ":{"ha":625,"x_min":54,"x_max":596,"o":"m 596 54 l 596 0 l 447 0 l 440 53 q 341 1 389 18 q 240 -15 293 -15 q 106 31 157 -15 q 54 147 54 76 q 111 274 54 235 q 261 313 168 313 q 436 292 339 313 l 436 361 q 398 468 436 432 q 293 504 360 504 q 200 491 251 504 q 104 456 149 478 l 82 507 q 188 546 131 532 q 292 560 244 560 q 455 506 400 560 q 510 371 510 453 l 510 54 l 596 54 m 126 150 q 160 69 126 101 q 250 38 193 38 q 338 53 294 38 q 436 103 382 69 l 436 246 q 265 267 346 267 q 165 240 204 267 q 126 150 126 213 m 435 750 l 349 908 l 422 908 l 482 750 l 435 750 m 265 799 l 339 799 l 454 626 l 397 626 l 301 761 l 206 626 l 149 626 l 265 799 z "},"ẩ":{"ha":625,"x_min":54,"x_max":596,"o":"m 596 54 l 596 0 l 447 0 l 440 53 q 341 1 389 18 q 240 -15 293 -15 q 106 31 157 -15 q 54 147 54 76 q 111 274 54 235 q 261 313 168 313 q 436 292 339 313 l 436 361 q 398 468 436 432 q 293 504 360 504 q 200 491 251 504 q 104 456 149 478 l 82 507 q 188 546 131 532 q 292 560 244 560 q 455 506 400 560 q 510 371 510 453 l 510 54 l 596 54 m 126 150 q 160 69 126 101 q 250 38 193 38 q 338 53 294 38 q 436 103 382 69 l 436 246 q 265 267 346 267 q 165 240 204 267 q 126 150 126 213 m 403 788 q 447 836 447 803 q 435 865 447 854 q 400 875 422 875 q 340 857 372 875 l 322 903 q 406 925 361 925 q 477 901 450 925 q 504 839 504 876 q 419 740 504 767 l 403 788 m 265 799 l 339 799 l 454 626 l 397 626 l 301 761 l 206 626 l 149 626 l 265 799 z "},"ẫ":{"ha":625,"x_min":54,"x_max":596,"o":"m 596 54 l 596 0 l 447 0 l 440 53 q 341 1 389 18 q 240 -15 293 -15 q 106 31 157 -15 q 54 147 54 76 q 111 274 54 235 q 261 313 168 313 q 436 292 339 313 l 436 361 q 398 468 436 432 q 293 504 360 504 q 200 491 251 504 q 104 456 149 478 l 82 507 q 188 546 131 532 q 292 560 244 560 q 455 506 400 560 q 510 371 510 453 l 510 54 l 596 54 m 126 150 q 160 69 126 101 q 250 38 193 38 q 338 53 294 38 q 436 103 382 69 l 436 246 q 265 267 346 267 q 165 240 204 267 q 126 150 126 213 m 378 829 q 339 835 358 829 q 290 854 319 842 q 262 866 286 856 q 218 876 238 876 q 179 832 185 876 l 143 832 q 169 906 146 881 q 229 932 192 932 q 311 907 256 932 q 381 885 361 885 q 410 895 400 885 q 424 929 421 906 l 458 929 q 436 856 456 883 q 378 829 417 829 m 265 799 l 339 799 l 454 626 l 397 626 l 301 761 l 206 626 l 149 626 l 265 799 z "},"ȁ":{"ha":625,"x_min":54,"x_max":596,"o":"m 596 54 l 596 0 l 447 0 l 440 53 q 341 1 389 18 q 240 -15 293 -15 q 106 31 157 -15 q 54 147 54 76 q 111 274 54 235 q 261 313 168 313 q 436 292 339 313 l 436 361 q 398 468 436 432 q 293 504 360 504 q 200 491 251 504 q 104 456 149 478 l 82 507 q 188 546 131 532 q 292 560 244 560 q 455 506 400 560 q 510 371 510 453 l 510 54 l 596 54 m 126 150 q 160 69 126 101 q 250 38 193 38 q 338 53 294 38 q 436 103 382 69 l 436 246 q 265 267 346 267 q 165 240 204 267 q 126 150 126 213 m 68 874 l 151 874 l 228 667 l 182 667 l 68 874 m 232 874 l 315 874 l 390 667 l 346 667 l 232 874 z "},"ä":{"ha":625,"x_min":54,"x_max":596,"o":"m 596 54 l 596 0 l 447 0 l 440 53 q 341 1 389 18 q 240 -15 293 -15 q 106 31 157 -15 q 54 147 54 76 q 111 274 54 235 q 261 313 168 313 q 436 292 339 313 l 436 361 q 398 468 436 432 q 293 504 360 504 q 200 491 251 504 q 104 456 149 478 l 82 507 q 188 546 131 532 q 292 560 244 560 q 455 506 400 560 q 510 371 510 453 l 510 54 l 596 54 m 126 150 q 160 69 126 101 q 250 38 193 38 q 338 53 294 38 q 436 103 382 69 l 436 246 q 265 267 346 267 q 165 240 204 267 q 126 150 126 213 m 179 651 q 144 664 157 651 q 131 699 131 676 q 144 732 131 719 q 179 744 157 744 q 214 732 201 744 q 226 699 226 719 q 214 664 226 676 q 179 651 201 651 m 424 651 q 390 664 403 651 q 376 697 376 676 q 390 732 376 719 q 424 744 403 744 q 459 732 446 744 q 472 697 472 719 q 459 664 472 676 q 424 651 446 651 z "},"ȧ":{"ha":625,"x_min":54,"x_max":596,"o":"m 596 54 l 596 0 l 447 0 l 440 53 q 341 1 389 18 q 240 -15 293 -15 q 106 31 157 -15 q 54 147 54 76 q 111 274 54 235 q 261 313 168 313 q 436 292 339 313 l 436 361 q 398 468 436 432 q 293 504 360 504 q 200 491 251 504 q 104 456 149 478 l 82 507 q 188 546 131 532 q 292 560 244 560 q 455 506 400 560 q 510 371 510 453 l 510 54 l 596 54 m 126 150 q 160 69 126 101 q 250 38 193 38 q 338 53 294 38 q 436 103 382 69 l 436 246 q 265 267 346 267 q 165 240 204 267 q 126 150 126 213 m 301 653 q 262 669 278 653 q 246 704 246 685 q 261 742 246 726 q 301 757 276 757 q 341 742 326 757 q 356 704 356 728 q 342 669 357 685 q 301 653 328 653 z "},"ạ":{"ha":625,"x_min":54,"x_max":596,"o":"m 596 54 l 596 0 l 447 0 l 440 53 q 341 1 389 18 q 240 -15 293 -15 q 106 31 157 -15 q 54 147 54 76 q 111 274 54 235 q 261 313 168 313 q 436 292 339 313 l 436 361 q 398 468 436 432 q 293 504 360 504 q 200 491 251 504 q 104 456 149 478 l 82 507 q 188 546 131 532 q 292 560 244 560 q 455 506 400 560 q 510 371 510 453 l 510 54 l 596 54 m 126 150 q 160 69 126 101 q 250 38 193 38 q 338 53 294 38 q 436 103 382 69 l 436 246 q 265 267 346 267 q 165 240 204 267 q 126 150 126 213 m 329 -174 q 290 -158 306 -174 q 274 -122 274 -143 q 289 -85 274 -100 q 329 -71 304 -71 q 369 -85 354 -71 q 383 -122 383 -100 q 370 -158 385 -142 q 329 -174 356 -174 z "},"à":{"ha":625,"x_min":54,"x_max":596,"o":"m 596 54 l 596 0 l 447 0 l 440 53 q 341 1 389 18 q 240 -15 293 -15 q 106 31 157 -15 q 54 147 54 76 q 111 274 54 235 q 261 313 168 313 q 436 292 339 313 l 436 361 q 398 468 436 432 q 293 504 360 504 q 200 491 251 504 q 104 456 149 478 l 82 507 q 188 546 131 532 q 292 560 244 560 q 455 506 400 560 q 510 371 510 453 l 510 54 l 596 54 m 126 150 q 160 69 126 101 q 250 38 193 38 q 338 53 294 38 q 436 103 382 69 l 436 246 q 265 267 346 267 q 165 240 204 267 q 126 150 126 213 m 171 854 l 254 854 l 322 667 l 276 667 l 171 854 z "},"ả":{"ha":625,"x_min":54,"x_max":596,"o":"m 596 54 l 596 0 l 447 0 l 440 53 q 341 1 389 18 q 240 -15 293 -15 q 106 31 157 -15 q 54 147 54 76 q 111 274 54 235 q 261 313 168 313 q 436 292 339 313 l 436 361 q 398 468 436 432 q 293 504 360 504 q 200 491 251 504 q 104 456 149 478 l 82 507 q 188 546 131 532 q 292 560 244 560 q 455 506 400 560 q 510 371 510 453 l 510 54 l 596 54 m 126 150 q 160 69 126 101 q 250 38 193 38 q 338 53 294 38 q 436 103 382 69 l 436 246 q 265 267 346 267 q 165 240 204 267 q 126 150 126 213 m 285 654 q 329 703 329 669 q 317 731 329 721 q 282 742 304 742 q 222 724 254 742 l 204 769 q 288 792 243 792 q 359 767 332 792 q 386 706 386 743 q 301 607 386 633 l 285 654 z "},"ȃ":{"ha":625,"x_min":54,"x_max":596,"o":"m 596 54 l 596 0 l 447 0 l 440 53 q 341 1 389 18 q 240 -15 293 -15 q 106 31 157 -15 q 54 147 54 76 q 111 274 54 235 q 261 313 168 313 q 436 292 339 313 l 436 361 q 398 468 436 432 q 293 504 360 504 q 200 491 251 504 q 104 456 149 478 l 82 507 q 188 546 131 532 q 292 560 244 560 q 455 506 400 560 q 510 371 510 453 l 510 54 l 596 54 m 126 150 q 160 69 126 101 q 250 38 193 38 q 338 53 294 38 q 436 103 382 69 l 436 246 q 265 267 346 267 q 165 240 204 267 q 126 150 126 213 m 167 639 q 210 730 175 697 q 301 763 246 763 q 392 730 357 763 q 435 639 428 697 l 378 639 q 301 707 361 707 q 225 639 240 707 l 167 639 z "},"ā":{"ha":625,"x_min":54,"x_max":596,"o":"m 596 54 l 596 0 l 447 0 l 440 53 q 341 1 389 18 q 240 -15 293 -15 q 106 31 157 -15 q 54 147 54 76 q 111 274 54 235 q 261 313 168 313 q 436 292 339 313 l 436 361 q 398 468 436 432 q 293 504 360 504 q 200 491 251 504 q 104 456 149 478 l 82 507 q 188 546 131 532 q 292 560 244 560 q 455 506 400 560 q 510 371 510 453 l 510 54 l 596 54 m 126 150 q 160 69 126 101 q 250 38 193 38 q 338 53 294 38 q 436 103 382 69 l 436 246 q 265 267 346 267 q 165 240 204 267 q 126 150 126 213 m 164 710 l 439 710 l 439 663 l 164 663 l 164 710 z "},"ą":{"ha":625,"x_min":54,"x_max":621,"o":"m 557 -176 q 621 -156 590 -176 l 621 -199 q 539 -225 578 -225 q 466 -199 496 -225 q 436 -131 436 -172 q 511 0 436 -68 l 447 0 l 440 53 q 341 1 389 18 q 240 -15 293 -15 q 106 31 157 -15 q 54 147 54 76 q 111 274 54 235 q 261 313 168 313 q 436 292 339 313 l 436 361 q 398 468 436 432 q 293 504 360 504 q 200 491 251 504 q 104 456 149 478 l 82 507 q 188 546 131 532 q 292 560 244 560 q 455 506 400 560 q 510 371 510 453 l 510 54 l 596 54 l 596 0 l 558 0 q 493 -115 493 -68 q 511 -160 493 -144 q 557 -176 529 -176 m 126 150 q 160 69 126 101 q 250 38 193 38 q 338 53 294 38 q 436 103 382 69 l 436 246 q 265 267 346 267 q 165 240 204 267 q 126 150 126 213 z "},"å":{"ha":625,"x_min":54,"x_max":596,"o":"m 596 54 l 596 0 l 447 0 l 440 53 q 341 1 389 18 q 240 -15 293 -15 q 106 31 157 -15 q 54 147 54 76 q 111 274 54 235 q 261 313 168 313 q 436 292 339 313 l 436 361 q 398 468 436 432 q 293 504 360 504 q 200 491 251 504 q 104 456 149 478 l 82 507 q 188 546 131 532 q 292 560 244 560 q 455 506 400 560 q 510 371 510 453 l 510 54 l 596 54 m 126 150 q 160 69 126 101 q 250 38 193 38 q 338 53 294 38 q 436 103 382 69 l 436 246 q 265 267 346 267 q 165 240 204 267 q 126 150 126 213 m 301 617 q 231 642 257 617 q 204 707 204 667 q 230 774 204 749 q 301 800 256 800 q 372 775 346 800 q 399 710 399 750 q 372 642 399 668 q 301 617 346 617 m 301 649 q 345 666 329 649 q 361 710 361 683 q 345 751 361 735 q 301 767 329 767 q 258 751 274 767 q 242 710 242 735 q 258 666 242 683 q 301 649 274 649 z "},"ǻ":{"ha":625,"x_min":54,"x_max":596,"o":"m 596 54 l 596 0 l 447 0 l 440 53 q 341 1 389 18 q 240 -15 293 -15 q 106 31 157 -15 q 54 147 54 76 q 111 274 54 235 q 261 313 168 313 q 436 292 339 313 l 436 361 q 398 468 436 432 q 293 504 360 504 q 200 491 251 504 q 104 456 149 478 l 82 507 q 188 546 131 532 q 292 560 244 560 q 455 506 400 560 q 510 371 510 453 l 510 54 l 596 54 m 126 150 q 160 69 126 101 q 250 38 193 38 q 338 53 294 38 q 436 103 382 69 l 436 246 q 265 267 346 267 q 165 240 204 267 q 126 150 126 213 m 301 617 q 231 642 257 617 q 204 707 204 667 q 230 774 204 749 q 301 800 256 800 q 372 775 346 800 q 399 710 399 750 q 372 642 399 668 q 301 617 346 617 m 301 649 q 345 666 329 649 q 361 710 361 683 q 345 751 361 735 q 301 767 329 767 q 258 751 274 767 q 242 710 242 735 q 258 666 242 683 q 301 649 274 649 m 349 1038 l 432 1038 l 326 850 l 281 850 l 349 1038 z "},"ã":{"ha":625,"x_min":54,"x_max":596,"o":"m 596 54 l 596 0 l 447 0 l 440 53 q 341 1 389 18 q 240 -15 293 -15 q 106 31 157 -15 q 54 147 54 76 q 111 274 54 235 q 261 313 168 313 q 436 292 339 313 l 436 361 q 398 468 436 432 q 293 504 360 504 q 200 491 251 504 q 104 456 149 478 l 82 507 q 188 546 131 532 q 292 560 244 560 q 455 506 400 560 q 510 371 510 453 l 510 54 l 596 54 m 126 150 q 160 69 126 101 q 250 38 193 38 q 338 53 294 38 q 436 103 382 69 l 436 246 q 265 267 346 267 q 165 240 204 267 q 126 150 126 213 m 383 661 q 343 668 363 661 q 290 690 324 675 q 251 708 271 700 q 215 715 231 715 q 174 664 179 715 l 138 664 q 163 743 140 715 q 224 771 186 771 q 311 742 253 771 q 386 717 364 717 q 431 768 425 717 l 465 768 q 383 661 461 661 z "},"æ":{"ha":1047,"x_min":54,"x_max":988,"o":"m 247 -15 q 108 29 161 -15 q 54 143 54 74 q 117 265 54 226 q 281 304 179 304 l 436 304 l 436 361 q 398 468 436 432 q 293 504 360 504 q 200 491 251 504 q 104 456 149 478 l 82 507 q 188 546 131 532 q 292 560 244 560 q 422 527 372 560 q 490 442 471 494 q 589 530 526 499 q 722 561 651 561 q 915 485 842 561 q 988 275 988 410 l 988 257 l 513 257 q 581 101 519 160 q 733 42 642 42 q 853 68 794 42 q 950 136 911 94 l 976 88 q 868 11 929 39 q 735 -17 807 -17 q 593 15 658 -17 q 489 106 528 47 q 247 -15 397 -15 m 914 304 q 859 453 914 400 q 722 506 804 506 q 579 451 638 506 q 513 304 521 397 l 914 304 m 257 38 q 372 66 319 38 q 461 151 425 94 q 436 257 440 200 l 285 257 q 171 231 215 257 q 126 146 126 204 q 160 67 126 96 q 257 38 194 38 z "},"ǽ":{"ha":1047,"x_min":54,"x_max":988,"o":"m 247 -15 q 108 29 161 -15 q 54 143 54 74 q 117 265 54 226 q 281 304 179 304 l 436 304 l 436 361 q 398 468 436 432 q 293 504 360 504 q 200 491 251 504 q 104 456 149 478 l 82 507 q 188 546 131 532 q 292 560 244 560 q 422 527 372 560 q 490 442 471 494 q 589 530 526 499 q 722 561 651 561 q 915 485 842 561 q 988 275 988 410 l 988 257 l 513 257 q 581 101 519 160 q 733 42 642 42 q 853 68 794 42 q 950 136 911 94 l 976 88 q 868 11 929 39 q 735 -17 807 -17 q 593 15 658 -17 q 489 106 528 47 q 247 -15 397 -15 m 914 304 q 859 453 914 400 q 722 506 804 506 q 579 451 638 506 q 513 304 521 397 l 914 304 m 257 38 q 372 66 319 38 q 461 151 425 94 q 436 257 440 200 l 285 257 q 171 231 215 257 q 126 146 126 204 q 160 67 126 96 q 257 38 194 38 m 543 854 l 626 854 l 521 667 l 475 667 l 543 854 z "},"ǣ":{"ha":1047,"x_min":54,"x_max":988,"o":"m 247 -15 q 108 29 161 -15 q 54 143 54 74 q 117 265 54 226 q 281 304 179 304 l 436 304 l 436 361 q 398 468 436 432 q 293 504 360 504 q 200 491 251 504 q 104 456 149 478 l 82 507 q 188 546 131 532 q 292 560 244 560 q 422 527 372 560 q 490 442 471 494 q 589 530 526 499 q 722 561 651 561 q 915 485 842 561 q 988 275 988 410 l 988 257 l 513 257 q 581 101 519 160 q 733 42 642 42 q 853 68 794 42 q 950 136 911 94 l 976 88 q 868 11 929 39 q 735 -17 807 -17 q 593 15 658 -17 q 489 106 528 47 q 247 -15 397 -15 m 914 304 q 859 453 914 400 q 722 506 804 506 q 579 451 638 506 q 513 304 521 397 l 914 304 m 257 38 q 372 66 319 38 q 461 151 425 94 q 436 257 440 200 l 285 257 q 171 231 215 257 q 126 146 126 204 q 160 67 126 96 q 257 38 194 38 m 358 710 l 633 710 l 633 663 l 358 663 l 358 710 z "},"b":{"ha":717,"x_min":39,"x_max":679,"o":"m 408 560 q 604 485 529 560 q 679 281 679 411 q 642 124 679 190 q 539 22 604 57 q 393 -14 474 -14 q 295 3 342 -14 q 213 54 249 21 l 213 0 l 39 0 l 39 54 l 138 54 l 138 742 l 43 742 l 43 796 l 213 796 l 213 492 q 307 542 256 525 q 408 560 358 560 m 382 42 q 541 103 481 42 q 601 272 601 164 q 543 441 601 379 q 390 503 485 503 q 301 485 347 503 q 213 435 254 467 l 213 110 q 294 60 250 78 q 382 42 339 42 z "},"ḃ":{"ha":717,"x_min":39,"x_max":679,"o":"m 408 560 q 604 485 529 560 q 679 281 679 411 q 642 124 679 190 q 539 22 604 57 q 393 -14 474 -14 q 295 3 342 -14 q 213 54 249 21 l 213 0 l 39 0 l 39 54 l 138 54 l 138 742 l 43 742 l 43 796 l 213 796 l 213 492 q 307 542 256 525 q 408 560 358 560 m 382 42 q 541 103 481 42 q 601 272 601 164 q 543 441 601 379 q 390 503 485 503 q 301 485 347 503 q 213 435 254 467 l 213 110 q 294 60 250 78 q 382 42 339 42 m 424 653 q 384 669 400 653 q 368 704 368 685 q 383 742 368 726 q 424 757 399 757 q 463 742 449 757 q 478 704 478 728 q 465 669 479 685 q 424 653 450 653 z "},"c":{"ha":650,"x_min":39,"x_max":572,"o":"m 338 503 q 178 439 240 503 q 115 276 115 375 q 176 109 115 174 q 335 44 238 44 q 447 68 400 44 q 542 140 494 92 l 572 94 q 329 -14 479 -14 q 180 24 246 -14 q 76 127 114 61 q 39 276 39 193 q 75 424 39 358 q 176 525 111 489 q 322 561 240 561 q 433 538 383 561 q 507 475 482 514 l 507 547 l 572 547 l 572 368 l 514 368 q 455 466 503 429 q 338 503 407 503 z "},"ć":{"ha":650,"x_min":39,"x_max":572,"o":"m 338 503 q 178 439 240 503 q 115 276 115 375 q 176 109 115 174 q 335 44 238 44 q 447 68 400 44 q 542 140 494 92 l 572 94 q 329 -14 479 -14 q 180 24 246 -14 q 76 127 114 61 q 39 276 39 193 q 75 424 39 358 q 176 525 111 489 q 322 561 240 561 q 433 538 383 561 q 507 475 482 514 l 507 547 l 572 547 l 572 368 l 514 368 q 455 466 503 429 q 338 503 407 503 m 382 854 l 465 854 l 360 667 l 314 667 l 382 854 z "},"č":{"ha":650,"x_min":39,"x_max":572,"o":"m 338 503 q 178 439 240 503 q 115 276 115 375 q 176 109 115 174 q 335 44 238 44 q 447 68 400 44 q 542 140 494 92 l 572 94 q 329 -14 479 -14 q 180 24 246 -14 q 76 127 114 61 q 39 276 39 193 q 75 424 39 358 q 176 525 111 489 q 322 561 240 561 q 433 538 383 561 q 507 475 482 514 l 507 547 l 572 547 l 572 368 l 514 368 q 455 466 503 429 q 338 503 407 503 m 186 847 l 242 847 l 336 685 l 428 847 l 482 847 l 368 638 l 303 638 l 186 847 z "},"ç":{"ha":650,"x_min":39,"x_max":572,"o":"m 338 503 q 178 439 240 503 q 115 276 115 375 q 176 109 115 174 q 335 44 238 44 q 447 68 400 44 q 542 140 494 92 l 572 94 q 333 -14 482 -12 l 314 -79 q 385 -102 361 -82 q 408 -153 408 -122 q 383 -207 408 -189 q 318 -225 357 -225 q 219 -201 269 -225 l 219 -171 q 289 -182 261 -182 q 342 -149 342 -182 q 260 -108 342 -110 l 297 -12 q 110 78 182 -1 q 39 276 39 158 q 75 424 39 358 q 176 525 111 489 q 322 561 240 561 q 433 538 383 561 q 507 475 482 514 l 507 547 l 572 547 l 572 368 l 514 368 q 455 466 503 429 q 338 503 407 503 z "},"ḉ":{"ha":650,"x_min":39,"x_max":572,"o":"m 360 667 l 314 667 l 382 854 l 465 854 l 360 667 m 338 503 q 178 439 240 503 q 115 276 115 375 q 176 109 115 174 q 335 44 238 44 q 447 68 400 44 q 542 140 494 92 l 572 94 q 333 -14 482 -12 l 314 -79 q 385 -102 361 -82 q 408 -153 408 -122 q 383 -207 408 -189 q 318 -225 357 -225 q 219 -201 269 -225 l 219 -171 q 289 -182 261 -182 q 342 -149 342 -182 q 260 -108 342 -110 l 297 -12 q 110 78 182 -1 q 39 276 39 158 q 75 424 39 358 q 176 525 111 489 q 322 561 240 561 q 433 538 383 561 q 507 475 482 514 l 507 547 l 572 547 l 572 368 l 514 368 q 455 466 503 429 q 338 503 407 503 z "},"ĉ":{"ha":650,"x_min":39,"x_max":572,"o":"m 338 503 q 178 439 240 503 q 115 276 115 375 q 176 109 115 174 q 335 44 238 44 q 447 68 400 44 q 542 140 494 92 l 572 94 q 329 -14 479 -14 q 180 24 246 -14 q 76 127 114 61 q 39 276 39 193 q 75 424 39 358 q 176 525 111 489 q 322 561 240 561 q 433 538 383 561 q 507 475 482 514 l 507 547 l 572 547 l 572 368 l 514 368 q 455 466 503 429 q 338 503 407 503 m 299 840 l 372 840 l 488 626 l 431 626 l 335 803 l 239 626 l 182 626 l 299 840 z "},"ċ":{"ha":650,"x_min":39,"x_max":572,"o":"m 338 503 q 178 439 240 503 q 115 276 115 375 q 176 109 115 174 q 335 44 238 44 q 447 68 400 44 q 542 140 494 92 l 572 94 q 329 -14 479 -14 q 180 24 246 -14 q 76 127 114 61 q 39 276 39 193 q 75 424 39 358 q 176 525 111 489 q 322 561 240 561 q 433 538 383 561 q 507 475 482 514 l 507 547 l 572 547 l 572 368 l 514 368 q 455 466 503 429 q 338 503 407 503 m 335 653 q 295 669 311 653 q 279 704 279 685 q 294 742 279 726 q 335 757 310 757 q 374 742 360 757 q 389 704 389 728 q 376 669 390 685 q 335 653 361 653 z "},"d":{"ha":703,"x_min":40,"x_max":674,"o":"m 674 54 l 674 0 l 510 0 l 510 47 q 324 -15 429 -15 q 180 20 244 -15 q 78 122 115 56 q 40 274 40 188 q 76 426 40 361 q 176 525 113 490 q 317 560 239 560 q 420 543 369 560 q 510 496 471 526 l 510 742 l 415 742 l 415 796 l 585 796 l 585 54 l 674 54 m 118 267 q 180 103 118 164 q 338 42 242 42 q 510 103 431 42 l 510 439 q 329 503 426 503 q 176 439 235 503 q 118 267 118 375 z "},"ð":{"ha":640,"x_min":46,"x_max":592,"o":"m 375 714 q 533 502 475 611 q 592 269 592 393 q 556 120 592 185 q 458 21 519 56 q 319 -14 396 -14 q 170 23 232 -14 q 77 122 108 60 q 46 256 46 183 q 78 397 46 335 q 171 493 111 458 q 310 528 231 528 q 417 507 371 528 q 489 456 463 486 q 317 688 436 568 l 138 608 l 114 657 l 275 728 q 97 879 208 790 l 135 925 q 335 753 274 811 l 508 829 l 533 783 l 375 714 m 319 47 q 471 111 421 47 q 521 265 521 175 q 463 417 521 363 q 318 471 406 471 q 176 414 233 471 q 119 258 119 357 q 172 109 119 171 q 319 47 224 47 z "},"ď":{"ha":736,"x_min":40,"x_max":744,"o":"m 674 54 l 674 0 l 510 0 l 510 47 q 324 -15 429 -15 q 180 20 244 -15 q 78 122 115 56 q 40 274 40 188 q 76 426 40 361 q 176 525 113 490 q 317 560 239 560 q 420 543 369 560 q 510 496 471 526 l 510 742 l 415 742 l 415 796 l 585 796 l 585 54 l 674 54 m 118 267 q 180 103 118 164 q 338 42 242 42 q 510 103 431 42 l 510 439 q 329 503 426 503 q 176 439 235 503 q 118 267 118 375 m 638 603 q 686 628 672 608 q 700 694 700 647 l 640 694 l 640 796 l 744 796 l 743 692 q 638 571 746 571 l 638 603 z "},"đ":{"ha":703,"x_min":40,"x_max":674,"o":"m 585 644 l 585 54 l 674 54 l 674 0 l 510 0 l 510 47 q 324 -15 429 -15 q 180 20 244 -15 q 78 122 115 56 q 40 274 40 188 q 76 426 40 361 q 176 525 113 490 q 317 560 239 560 q 420 543 369 560 q 510 496 471 526 l 510 644 l 324 644 l 324 692 l 510 692 l 510 797 l 585 797 l 585 692 l 674 692 l 674 644 l 585 644 m 118 267 q 180 103 118 164 q 338 42 242 42 q 510 103 431 42 l 510 439 q 329 503 426 503 q 176 439 235 503 q 118 267 118 375 z "},"ḋ":{"ha":703,"x_min":40,"x_max":674,"o":"m 674 54 l 674 0 l 510 0 l 510 47 q 324 -15 429 -15 q 180 20 244 -15 q 78 122 115 56 q 40 274 40 188 q 76 426 40 361 q 176 525 113 490 q 317 560 239 560 q 420 543 369 560 q 510 496 471 526 l 510 742 l 415 742 l 415 796 l 585 796 l 585 54 l 674 54 m 118 267 q 180 103 118 164 q 338 42 242 42 q 510 103 431 42 l 510 439 q 329 503 426 503 q 176 439 235 503 q 118 267 118 375 m 547 903 q 508 919 524 903 q 492 954 492 935 q 507 992 492 976 q 547 1007 522 1007 q 587 992 572 1007 q 601 954 601 978 q 588 919 603 935 q 547 903 574 903 z "},"ḍ":{"ha":703,"x_min":40,"x_max":674,"o":"m 674 54 l 674 0 l 510 0 l 510 47 q 324 -15 429 -15 q 180 20 244 -15 q 78 122 115 56 q 40 274 40 188 q 76 426 40 361 q 176 525 113 490 q 317 560 239 560 q 420 543 369 560 q 510 496 471 526 l 510 742 l 415 742 l 415 796 l 585 796 l 585 54 l 674 54 m 118 267 q 180 103 118 164 q 338 42 242 42 q 510 103 431 42 l 510 439 q 329 503 426 503 q 176 439 235 503 q 118 267 118 375 m 368 -174 q 328 -158 344 -174 q 313 -122 313 -143 q 328 -85 313 -100 q 368 -71 343 -71 q 408 -85 393 -71 q 422 -122 422 -100 q 409 -158 424 -142 q 368 -174 394 -174 z "},"ḏ":{"ha":703,"x_min":40,"x_max":674,"o":"m 674 54 l 674 0 l 510 0 l 510 47 q 324 -15 429 -15 q 180 20 244 -15 q 78 122 115 56 q 40 274 40 188 q 76 426 40 361 q 176 525 113 490 q 317 560 239 560 q 420 543 369 560 q 510 496 471 526 l 510 742 l 415 742 l 415 796 l 585 796 l 585 54 l 674 54 m 118 267 q 180 103 118 164 q 338 42 242 42 q 510 103 431 42 l 510 439 q 329 503 426 503 q 176 439 235 503 q 118 267 118 375 m 231 -61 l 506 -61 l 506 -108 l 231 -108 l 231 -61 z "},"ǳ":{"ha":1326,"x_min":40,"x_max":1247,"o":"m 674 54 l 674 0 l 510 0 l 510 47 q 324 -15 429 -15 q 180 20 244 -15 q 78 122 115 56 q 40 274 40 188 q 76 426 40 361 q 176 525 113 490 q 317 560 239 560 q 420 543 369 560 q 510 496 471 526 l 510 742 l 415 742 l 415 796 l 585 796 l 585 54 l 674 54 m 118 267 q 180 103 118 164 q 338 42 242 42 q 510 103 431 42 l 510 439 q 329 503 426 503 q 176 439 235 503 q 118 267 118 375 m 785 56 l 1154 493 l 857 493 l 857 372 l 797 372 l 797 546 l 1238 546 l 1238 486 l 872 51 l 1186 51 l 1186 189 l 1247 189 l 1247 0 l 785 0 l 785 56 z "},"ǆ":{"ha":1326,"x_min":40,"x_max":1247,"o":"m 674 54 l 674 0 l 510 0 l 510 47 q 324 -15 429 -15 q 180 20 244 -15 q 78 122 115 56 q 40 274 40 188 q 76 426 40 361 q 176 525 113 490 q 317 560 239 560 q 420 543 369 560 q 510 496 471 526 l 510 742 l 415 742 l 415 796 l 585 796 l 585 54 l 674 54 m 118 267 q 180 103 118 164 q 338 42 242 42 q 510 103 431 42 l 510 439 q 329 503 426 503 q 176 439 235 503 q 118 267 118 375 m 785 56 l 1154 493 l 857 493 l 857 372 l 797 372 l 797 546 l 1238 546 l 1238 486 l 872 51 l 1186 51 l 1186 189 l 1247 189 l 1247 0 l 785 0 l 785 56 m 876 847 l 932 847 l 1026 685 l 1118 847 l 1172 847 l 1058 638 l 993 638 l 876 847 z "},"e":{"ha":649,"x_min":38,"x_max":589,"o":"m 589 257 l 115 257 q 183 101 122 160 q 335 42 243 42 q 454 68 396 42 q 551 136 513 94 l 578 88 q 470 11 532 39 q 338 -17 408 -17 q 187 19 256 -17 q 78 121 118 56 q 38 272 38 186 q 76 426 38 361 q 180 526 115 492 q 322 561 244 561 q 515 485 442 561 q 589 275 589 410 l 589 257 m 515 304 q 460 453 515 400 q 322 506 404 506 q 181 451 239 506 q 115 304 122 397 l 515 304 z "},"é":{"ha":649,"x_min":38,"x_max":589,"o":"m 589 257 l 115 257 q 183 101 122 160 q 335 42 243 42 q 454 68 396 42 q 551 136 513 94 l 578 88 q 470 11 532 39 q 338 -17 408 -17 q 187 19 256 -17 q 78 121 118 56 q 38 272 38 186 q 76 426 38 361 q 180 526 115 492 q 322 561 244 561 q 515 485 442 561 q 589 275 589 410 l 589 257 m 515 304 q 460 453 515 400 q 322 506 404 506 q 181 451 239 506 q 115 304 122 397 l 515 304 m 376 854 l 460 854 l 354 667 l 308 667 l 376 854 z "},"ĕ":{"ha":649,"x_min":38,"x_max":589,"o":"m 589 257 l 115 257 q 183 101 122 160 q 335 42 243 42 q 454 68 396 42 q 551 136 513 94 l 578 88 q 470 11 532 39 q 338 -17 408 -17 q 187 19 256 -17 q 78 121 118 56 q 38 272 38 186 q 76 426 38 361 q 180 526 115 492 q 322 561 244 561 q 515 485 442 561 q 589 275 589 410 l 589 257 m 515 304 q 460 453 515 400 q 322 506 404 506 q 181 451 239 506 q 115 304 122 397 l 515 304 m 326 646 q 241 677 275 646 q 200 764 207 708 l 250 764 q 329 693 265 693 q 380 711 360 693 q 407 764 400 729 l 458 764 q 415 676 450 707 q 326 646 381 646 z "},"ě":{"ha":649,"x_min":38,"x_max":589,"o":"m 589 257 l 115 257 q 183 101 122 160 q 335 42 243 42 q 454 68 396 42 q 551 136 513 94 l 578 88 q 470 11 532 39 q 338 -17 408 -17 q 187 19 256 -17 q 78 121 118 56 q 38 272 38 186 q 76 426 38 361 q 180 526 115 492 q 322 561 244 561 q 515 485 442 561 q 589 275 589 410 l 589 257 m 515 304 q 460 453 515 400 q 322 506 404 506 q 181 451 239 506 q 115 304 122 397 l 515 304 m 181 847 l 236 847 l 331 685 l 422 847 l 476 847 l 363 638 l 297 638 l 181 847 z "},"ȩ":{"ha":649,"x_min":38,"x_max":589,"o":"m 589 257 l 115 257 q 183 101 122 160 q 335 42 243 42 q 454 68 396 42 q 551 136 513 94 l 578 88 q 472 13 533 40 q 342 -17 411 -15 l 324 -79 q 394 -102 371 -82 q 418 -153 418 -122 q 392 -207 418 -189 q 328 -225 367 -225 q 229 -201 279 -225 l 229 -171 q 299 -182 271 -182 q 351 -149 351 -182 q 269 -108 351 -110 l 307 -15 q 170 29 232 -8 q 73 129 108 67 q 38 272 38 192 q 76 426 38 361 q 180 526 115 492 q 322 561 244 561 q 515 485 442 561 q 589 275 589 410 l 589 257 m 515 304 q 460 453 515 400 q 322 506 404 506 q 181 451 239 506 q 115 304 122 397 l 515 304 z "},"ḝ":{"ha":649,"x_min":38,"x_max":589,"o":"m 326 646 q 241 677 275 646 q 200 764 207 708 l 250 764 q 329 693 265 693 q 380 711 360 693 q 407 764 400 729 l 458 764 q 415 676 450 707 q 326 646 381 646 m 589 257 l 115 257 q 183 101 122 160 q 335 42 243 42 q 454 68 396 42 q 551 136 513 94 l 578 88 q 472 13 533 40 q 342 -17 411 -15 l 324 -79 q 394 -102 371 -82 q 418 -153 418 -122 q 392 -207 418 -189 q 328 -225 367 -225 q 229 -201 279 -225 l 229 -171 q 299 -182 271 -182 q 351 -149 351 -182 q 269 -108 351 -110 l 307 -15 q 170 29 232 -8 q 73 129 108 67 q 38 272 38 192 q 76 426 38 361 q 180 526 115 492 q 322 561 244 561 q 515 485 442 561 q 589 275 589 410 l 589 257 m 515 304 q 460 453 515 400 q 322 506 404 506 q 181 451 239 506 q 115 304 122 397 l 515 304 z "},"ê":{"ha":649,"x_min":38,"x_max":589,"o":"m 589 257 l 115 257 q 183 101 122 160 q 335 42 243 42 q 454 68 396 42 q 551 136 513 94 l 578 88 q 470 11 532 39 q 338 -17 408 -17 q 187 19 256 -17 q 78 121 118 56 q 38 272 38 186 q 76 426 38 361 q 180 526 115 492 q 322 561 244 561 q 515 485 442 561 q 589 275 589 410 l 589 257 m 515 304 q 460 453 515 400 q 322 506 404 506 q 181 451 239 506 q 115 304 122 397 l 515 304 m 293 840 l 367 840 l 482 626 l 425 626 l 329 803 l 233 626 l 176 626 l 293 840 z "},"ế":{"ha":649,"x_min":38,"x_max":589,"o":"m 589 257 l 115 257 q 183 101 122 160 q 335 42 243 42 q 454 68 396 42 q 551 136 513 94 l 578 88 q 470 11 532 39 q 338 -17 408 -17 q 187 19 256 -17 q 78 121 118 56 q 38 272 38 186 q 76 426 38 361 q 180 526 115 492 q 322 561 244 561 q 515 485 442 561 q 589 275 589 410 l 589 257 m 515 304 q 460 453 515 400 q 322 506 404 506 q 181 451 239 506 q 115 304 122 397 l 515 304 m 497 908 l 572 908 l 486 750 l 439 750 l 497 908 m 293 799 l 367 799 l 482 626 l 425 626 l 329 761 l 233 626 l 176 626 l 293 799 z "},"ệ":{"ha":649,"x_min":38,"x_max":589,"o":"m 589 257 l 115 257 q 183 101 122 160 q 335 42 243 42 q 454 68 396 42 q 551 136 513 94 l 578 88 q 470 11 532 39 q 338 -17 408 -17 q 187 19 256 -17 q 78 121 118 56 q 38 272 38 186 q 76 426 38 361 q 180 526 115 492 q 322 561 244 561 q 515 485 442 561 q 589 275 589 410 l 589 257 m 515 304 q 460 453 515 400 q 322 506 404 506 q 181 451 239 506 q 115 304 122 397 l 515 304 m 329 -174 q 290 -158 306 -174 q 274 -122 274 -143 q 289 -85 274 -100 q 329 -71 304 -71 q 369 -85 354 -71 q 383 -122 383 -100 q 370 -158 385 -142 q 329 -174 356 -174 m 293 840 l 367 840 l 482 626 l 425 626 l 329 803 l 233 626 l 176 626 l 293 840 z "},"ề":{"ha":649,"x_min":38,"x_max":589,"o":"m 589 257 l 115 257 q 183 101 122 160 q 335 42 243 42 q 454 68 396 42 q 551 136 513 94 l 578 88 q 470 11 532 39 q 338 -17 408 -17 q 187 19 256 -17 q 78 121 118 56 q 38 272 38 186 q 76 426 38 361 q 180 526 115 492 q 322 561 244 561 q 515 485 442 561 q 589 275 589 410 l 589 257 m 515 304 q 460 453 515 400 q 322 506 404 506 q 181 451 239 506 q 115 304 122 397 l 515 304 m 463 750 l 376 908 l 450 908 l 510 750 l 463 750 m 293 799 l 367 799 l 482 626 l 425 626 l 329 761 l 233 626 l 176 626 l 293 799 z "},"ể":{"ha":649,"x_min":38,"x_max":589,"o":"m 589 257 l 115 257 q 183 101 122 160 q 335 42 243 42 q 454 68 396 42 q 551 136 513 94 l 578 88 q 470 11 532 39 q 338 -17 408 -17 q 187 19 256 -17 q 78 121 118 56 q 38 272 38 186 q 76 426 38 361 q 180 526 115 492 q 322 561 244 561 q 515 485 442 561 q 589 275 589 410 l 589 257 m 515 304 q 460 453 515 400 q 322 506 404 506 q 181 451 239 506 q 115 304 122 397 l 515 304 m 431 788 q 475 836 475 803 q 463 865 475 854 q 428 875 450 875 q 368 857 400 875 l 350 903 q 433 925 389 925 q 505 901 478 925 q 532 839 532 876 q 447 740 532 767 l 431 788 m 293 799 l 367 799 l 482 626 l 425 626 l 329 761 l 233 626 l 176 626 l 293 799 z "},"ễ":{"ha":649,"x_min":38,"x_max":589,"o":"m 589 257 l 115 257 q 183 101 122 160 q 335 42 243 42 q 454 68 396 42 q 551 136 513 94 l 578 88 q 470 11 532 39 q 338 -17 408 -17 q 187 19 256 -17 q 78 121 118 56 q 38 272 38 186 q 76 426 38 361 q 180 526 115 492 q 322 561 244 561 q 515 485 442 561 q 589 275 589 410 l 589 257 m 515 304 q 460 453 515 400 q 322 506 404 506 q 181 451 239 506 q 115 304 122 397 l 515 304 m 406 829 q 367 835 386 829 q 318 854 347 842 q 290 866 314 856 q 246 876 265 876 q 207 832 213 876 l 171 832 q 197 906 174 881 q 257 932 219 932 q 339 907 283 932 q 408 885 389 885 q 438 895 428 885 q 451 929 449 906 l 486 929 q 464 856 483 883 q 406 829 444 829 m 293 799 l 367 799 l 482 626 l 425 626 l 329 761 l 233 626 l 176 626 l 293 799 z "},"ȅ":{"ha":649,"x_min":38,"x_max":589,"o":"m 589 257 l 115 257 q 183 101 122 160 q 335 42 243 42 q 454 68 396 42 q 551 136 513 94 l 578 88 q 470 11 532 39 q 338 -17 408 -17 q 187 19 256 -17 q 78 121 118 56 q 38 272 38 186 q 76 426 38 361 q 180 526 115 492 q 322 561 244 561 q 515 485 442 561 q 589 275 589 410 l 589 257 m 515 304 q 460 453 515 400 q 322 506 404 506 q 181 451 239 506 q 115 304 122 397 l 515 304 m 96 874 l 179 874 l 256 667 l 210 667 l 96 874 m 260 874 l 343 874 l 418 667 l 374 667 l 260 874 z "},"ë":{"ha":649,"x_min":38,"x_max":589,"o":"m 589 257 l 115 257 q 183 101 122 160 q 335 42 243 42 q 454 68 396 42 q 551 136 513 94 l 578 88 q 470 11 532 39 q 338 -17 408 -17 q 187 19 256 -17 q 78 121 118 56 q 38 272 38 186 q 76 426 38 361 q 180 526 115 492 q 322 561 244 561 q 515 485 442 561 q 589 275 589 410 l 589 257 m 515 304 q 460 453 515 400 q 322 506 404 506 q 181 451 239 506 q 115 304 122 397 l 515 304 m 207 651 q 172 664 185 651 q 158 699 158 676 q 172 732 158 719 q 207 744 185 744 q 242 732 229 744 q 254 699 254 719 q 242 664 254 676 q 207 651 229 651 m 451 651 q 417 664 431 651 q 404 697 404 676 q 417 732 404 719 q 451 744 431 744 q 487 732 474 744 q 500 697 500 719 q 487 664 500 676 q 451 651 474 651 z "},"ė":{"ha":649,"x_min":38,"x_max":589,"o":"m 589 257 l 115 257 q 183 101 122 160 q 335 42 243 42 q 454 68 396 42 q 551 136 513 94 l 578 88 q 470 11 532 39 q 338 -17 408 -17 q 187 19 256 -17 q 78 121 118 56 q 38 272 38 186 q 76 426 38 361 q 180 526 115 492 q 322 561 244 561 q 515 485 442 561 q 589 275 589 410 l 589 257 m 515 304 q 460 453 515 400 q 322 506 404 506 q 181 451 239 506 q 115 304 122 397 l 515 304 m 329 653 q 290 669 306 653 q 274 704 274 685 q 289 742 274 726 q 329 757 304 757 q 369 742 354 757 q 383 704 383 728 q 370 669 385 685 q 329 653 356 653 z "},"ẹ":{"ha":649,"x_min":38,"x_max":589,"o":"m 589 257 l 115 257 q 183 101 122 160 q 335 42 243 42 q 454 68 396 42 q 551 136 513 94 l 578 88 q 470 11 532 39 q 338 -17 408 -17 q 187 19 256 -17 q 78 121 118 56 q 38 272 38 186 q 76 426 38 361 q 180 526 115 492 q 322 561 244 561 q 515 485 442 561 q 589 275 589 410 l 589 257 m 515 304 q 460 453 515 400 q 322 506 404 506 q 181 451 239 506 q 115 304 122 397 l 515 304 m 329 -174 q 290 -158 306 -174 q 274 -122 274 -143 q 289 -85 274 -100 q 329 -71 304 -71 q 369 -85 354 -71 q 383 -122 383 -100 q 370 -158 385 -142 q 329 -174 356 -174 z "},"è":{"ha":649,"x_min":38,"x_max":589,"o":"m 589 257 l 115 257 q 183 101 122 160 q 335 42 243 42 q 454 68 396 42 q 551 136 513 94 l 578 88 q 470 11 532 39 q 338 -17 408 -17 q 187 19 256 -17 q 78 121 118 56 q 38 272 38 186 q 76 426 38 361 q 180 526 115 492 q 322 561 244 561 q 515 485 442 561 q 589 275 589 410 l 589 257 m 515 304 q 460 453 515 400 q 322 506 404 506 q 181 451 239 506 q 115 304 122 397 l 515 304 m 199 854 l 282 854 l 350 667 l 304 667 l 199 854 z "},"ẻ":{"ha":649,"x_min":38,"x_max":589,"o":"m 589 257 l 115 257 q 183 101 122 160 q 335 42 243 42 q 454 68 396 42 q 551 136 513 94 l 578 88 q 470 11 532 39 q 338 -17 408 -17 q 187 19 256 -17 q 78 121 118 56 q 38 272 38 186 q 76 426 38 361 q 180 526 115 492 q 322 561 244 561 q 515 485 442 561 q 589 275 589 410 l 589 257 m 515 304 q 460 453 515 400 q 322 506 404 506 q 181 451 239 506 q 115 304 122 397 l 515 304 m 313 654 q 357 703 357 669 q 344 731 357 721 q 310 742 332 742 q 250 724 282 742 l 232 769 q 315 792 271 792 q 387 767 360 792 q 414 706 414 743 q 329 607 414 633 l 313 654 z "},"ȇ":{"ha":649,"x_min":38,"x_max":589,"o":"m 589 257 l 115 257 q 183 101 122 160 q 335 42 243 42 q 454 68 396 42 q 551 136 513 94 l 578 88 q 470 11 532 39 q 338 -17 408 -17 q 187 19 256 -17 q 78 121 118 56 q 38 272 38 186 q 76 426 38 361 q 180 526 115 492 q 322 561 244 561 q 515 485 442 561 q 589 275 589 410 l 589 257 m 515 304 q 460 453 515 400 q 322 506 404 506 q 181 451 239 506 q 115 304 122 397 l 515 304 m 194 639 q 238 730 203 697 q 329 763 274 763 q 420 730 385 763 q 463 639 456 697 l 406 639 q 329 707 389 707 q 253 639 268 707 l 194 639 z "},"ē":{"ha":649,"x_min":38,"x_max":589,"o":"m 589 257 l 115 257 q 183 101 122 160 q 335 42 243 42 q 454 68 396 42 q 551 136 513 94 l 578 88 q 470 11 532 39 q 338 -17 408 -17 q 187 19 256 -17 q 78 121 118 56 q 38 272 38 186 q 76 426 38 361 q 180 526 115 492 q 322 561 244 561 q 515 485 442 561 q 589 275 589 410 l 589 257 m 515 304 q 460 453 515 400 q 322 506 404 506 q 181 451 239 506 q 115 304 122 397 l 515 304 m 192 710 l 467 710 l 467 663 l 192 663 l 192 710 z "},"ḗ":{"ha":649,"x_min":38,"x_max":589,"o":"m 589 257 l 115 257 q 183 101 122 160 q 335 42 243 42 q 454 68 396 42 q 551 136 513 94 l 578 88 q 470 11 532 39 q 338 -17 408 -17 q 187 19 256 -17 q 78 121 118 56 q 38 272 38 186 q 76 426 38 361 q 180 526 115 492 q 322 561 244 561 q 515 485 442 561 q 589 275 589 410 l 589 257 m 515 304 q 460 453 515 400 q 322 506 404 506 q 181 451 239 506 q 115 304 122 397 l 515 304 m 192 710 l 467 710 l 467 663 l 192 663 l 192 710 m 376 1003 l 460 1003 l 354 815 l 308 815 l 376 1003 z "},"ḕ":{"ha":649,"x_min":38,"x_max":589,"o":"m 589 257 l 115 257 q 183 101 122 160 q 335 42 243 42 q 454 68 396 42 q 551 136 513 94 l 578 88 q 470 11 532 39 q 338 -17 408 -17 q 187 19 256 -17 q 78 121 118 56 q 38 272 38 186 q 76 426 38 361 q 180 526 115 492 q 322 561 244 561 q 515 485 442 561 q 589 275 589 410 l 589 257 m 515 304 q 460 453 515 400 q 322 506 404 506 q 181 451 239 506 q 115 304 122 397 l 515 304 m 192 710 l 467 710 l 467 663 l 192 663 l 192 710 m 199 1003 l 282 1003 l 350 815 l 304 815 l 199 1003 z "},"ę":{"ha":649,"x_min":38,"x_max":589,"o":"m 589 257 l 115 257 q 183 101 122 160 q 335 42 243 42 q 454 68 396 42 q 551 136 513 94 l 578 88 q 483 17 538 43 q 365 -15 428 -10 q 318 -111 318 -71 q 336 -156 318 -140 q 382 -172 354 -172 q 446 -151 415 -172 l 446 -194 q 364 -221 403 -221 q 291 -194 321 -221 q 261 -126 261 -168 q 315 -17 261 -74 q 174 26 238 -11 q 74 126 111 63 q 38 272 38 190 q 76 426 38 361 q 180 526 115 492 q 322 561 244 561 q 515 485 442 561 q 589 275 589 410 l 589 257 m 515 304 q 460 453 515 400 q 322 506 404 506 q 181 451 239 506 q 115 304 122 397 l 515 304 z "},"ẽ":{"ha":649,"x_min":38,"x_max":589,"o":"m 589 257 l 115 257 q 183 101 122 160 q 335 42 243 42 q 454 68 396 42 q 551 136 513 94 l 578 88 q 470 11 532 39 q 338 -17 408 -17 q 187 19 256 -17 q 78 121 118 56 q 38 272 38 186 q 76 426 38 361 q 180 526 115 492 q 322 561 244 561 q 515 485 442 561 q 589 275 589 410 l 589 257 m 515 304 q 460 453 515 400 q 322 506 404 506 q 181 451 239 506 q 115 304 122 397 l 515 304 m 411 661 q 371 668 390 661 q 318 690 351 675 q 278 708 299 700 q 243 715 258 715 q 201 664 207 715 l 165 664 q 191 743 168 715 q 251 771 214 771 q 339 742 281 771 q 414 717 392 717 q 458 768 453 717 l 493 768 q 411 661 489 661 z "},"ə":{"ha":649,"x_min":60,"x_max":611,"o":"m 318 563 q 465 527 399 563 q 572 426 532 492 q 611 275 611 361 q 573 120 611 186 q 470 19 535 54 q 329 -15 406 -15 q 134 60 208 -15 q 60 271 60 136 l 60 289 l 533 289 q 469 445 528 386 q 319 504 410 504 q 197 478 257 504 q 97 410 138 451 l 71 458 q 182 534 118 506 q 318 563 246 563 m 332 40 q 469 94 413 40 q 532 242 525 149 l 133 242 q 190 93 133 146 q 332 40 247 40 z "},"f":{"ha":410,"x_min":64,"x_max":446,"o":"m 65 54 l 171 54 l 171 492 l 64 492 l 64 546 l 171 546 l 171 678 q 207 782 171 744 q 313 819 243 819 q 404 792 368 819 q 446 708 440 765 l 388 690 q 365 747 382 728 q 317 767 349 767 q 265 744 283 767 q 246 676 246 721 l 246 546 l 404 546 l 404 492 l 246 492 l 246 54 l 383 54 l 383 0 l 65 0 l 65 54 z "},"ḟ":{"ha":410,"x_min":64,"x_max":446,"o":"m 65 54 l 171 54 l 171 492 l 64 492 l 64 546 l 171 546 l 171 678 q 207 782 171 744 q 313 819 243 819 q 404 792 368 819 q 446 708 440 765 l 388 690 q 365 747 382 728 q 317 767 349 767 q 265 744 283 767 q 246 676 246 721 l 246 546 l 404 546 l 404 492 l 246 492 l 246 54 l 383 54 l 383 0 l 65 0 l 65 54 m 313 913 q 273 928 289 913 q 257 964 257 944 q 272 1001 257 986 q 313 1017 288 1017 q 352 1002 338 1017 q 367 964 367 988 q 353 928 368 944 q 313 913 339 913 z "},"g":{"ha":703,"x_min":43,"x_max":688,"o":"m 688 546 l 688 492 l 594 492 l 594 -12 q 522 -198 594 -137 q 325 -258 450 -258 q 125 -226 239 -258 l 139 -167 q 324 -199 246 -199 q 469 -153 419 -199 q 519 -19 519 -107 l 519 64 q 428 14 481 32 q 326 -4 376 -4 q 183 31 247 -4 q 81 129 118 65 q 43 278 43 193 q 78 427 43 364 q 176 524 114 490 q 318 558 239 558 q 425 539 369 558 q 519 488 481 519 l 519 546 l 688 546 m 121 272 q 182 112 121 172 q 339 51 243 51 q 432 69 383 51 q 519 118 481 88 l 519 438 q 425 486 476 468 q 326 504 374 504 q 178 441 235 504 q 121 272 121 378 z "},"ǵ":{"ha":703,"x_min":43,"x_max":688,"o":"m 688 546 l 688 492 l 594 492 l 594 -12 q 522 -198 594 -137 q 325 -258 450 -258 q 125 -226 239 -258 l 139 -167 q 324 -199 246 -199 q 469 -153 419 -199 q 519 -19 519 -107 l 519 64 q 428 14 481 32 q 326 -4 376 -4 q 183 31 247 -4 q 81 129 118 65 q 43 278 43 193 q 78 427 43 364 q 176 524 114 490 q 318 558 239 558 q 425 539 369 558 q 519 488 481 519 l 519 546 l 688 546 m 121 272 q 182 112 121 172 q 339 51 243 51 q 432 69 383 51 q 519 118 481 88 l 519 438 q 425 486 476 468 q 326 504 374 504 q 178 441 235 504 q 121 272 121 378 m 385 854 l 468 854 l 363 667 l 317 667 l 385 854 z "},"ğ":{"ha":703,"x_min":43,"x_max":688,"o":"m 688 546 l 688 492 l 594 492 l 594 -12 q 522 -198 594 -137 q 325 -258 450 -258 q 125 -226 239 -258 l 139 -167 q 324 -199 246 -199 q 469 -153 419 -199 q 519 -19 519 -107 l 519 64 q 428 14 481 32 q 326 -4 376 -4 q 183 31 247 -4 q 81 129 118 65 q 43 278 43 193 q 78 427 43 364 q 176 524 114 490 q 318 558 239 558 q 425 539 369 558 q 519 488 481 519 l 519 546 l 688 546 m 121 272 q 182 112 121 172 q 339 51 243 51 q 432 69 383 51 q 519 118 481 88 l 519 438 q 425 486 476 468 q 326 504 374 504 q 178 441 235 504 q 121 272 121 378 m 335 646 q 249 677 283 646 q 208 764 215 708 l 258 764 q 338 693 274 693 q 388 711 368 693 q 415 764 408 729 l 467 764 q 424 676 458 707 q 335 646 389 646 z "},"ǧ":{"ha":703,"x_min":43,"x_max":688,"o":"m 688 546 l 688 492 l 594 492 l 594 -12 q 522 -198 594 -137 q 325 -258 450 -258 q 125 -226 239 -258 l 139 -167 q 324 -199 246 -199 q 469 -153 419 -199 q 519 -19 519 -107 l 519 64 q 428 14 481 32 q 326 -4 376 -4 q 183 31 247 -4 q 81 129 118 65 q 43 278 43 193 q 78 427 43 364 q 176 524 114 490 q 318 558 239 558 q 425 539 369 558 q 519 488 481 519 l 519 546 l 688 546 m 121 272 q 182 112 121 172 q 339 51 243 51 q 432 69 383 51 q 519 118 481 88 l 519 438 q 425 486 476 468 q 326 504 374 504 q 178 441 235 504 q 121 272 121 378 m 189 847 l 244 847 l 339 685 l 431 847 l 485 847 l 371 638 l 306 638 l 189 847 z "},"ĝ":{"ha":703,"x_min":43,"x_max":688,"o":"m 688 546 l 688 492 l 594 492 l 594 -12 q 522 -198 594 -137 q 325 -258 450 -258 q 125 -226 239 -258 l 139 -167 q 324 -199 246 -199 q 469 -153 419 -199 q 519 -19 519 -107 l 519 64 q 428 14 481 32 q 326 -4 376 -4 q 183 31 247 -4 q 81 129 118 65 q 43 278 43 193 q 78 427 43 364 q 176 524 114 490 q 318 558 239 558 q 425 539 369 558 q 519 488 481 519 l 519 546 l 688 546 m 121 272 q 182 112 121 172 q 339 51 243 51 q 432 69 383 51 q 519 118 481 88 l 519 438 q 425 486 476 468 q 326 504 374 504 q 178 441 235 504 q 121 272 121 378 m 301 840 l 375 840 l 490 626 l 433 626 l 338 803 l 242 626 l 185 626 l 301 840 z "},"ģ":{"ha":703,"x_min":43,"x_max":688,"o":"m 688 546 l 688 492 l 594 492 l 594 -12 q 522 -198 594 -137 q 325 -258 450 -258 q 125 -226 239 -258 l 139 -167 q 324 -199 246 -199 q 469 -153 419 -199 q 519 -19 519 -107 l 519 64 q 428 14 481 32 q 326 -4 376 -4 q 183 31 247 -4 q 81 129 118 65 q 43 278 43 193 q 78 427 43 364 q 176 524 114 490 q 318 558 239 558 q 425 539 369 558 q 519 488 481 519 l 519 546 l 688 546 m 121 272 q 182 112 121 172 q 339 51 243 51 q 432 69 383 51 q 519 118 481 88 l 519 438 q 425 486 476 468 q 326 504 374 504 q 178 441 235 504 q 121 272 121 378 m 392 849 q 341 819 356 843 q 326 750 326 794 l 385 750 l 385 654 l 282 654 l 282 756 q 392 881 282 882 l 392 849 z "},"ġ":{"ha":703,"x_min":43,"x_max":688,"o":"m 688 546 l 688 492 l 594 492 l 594 -12 q 522 -198 594 -137 q 325 -258 450 -258 q 125 -226 239 -258 l 139 -167 q 324 -199 246 -199 q 469 -153 419 -199 q 519 -19 519 -107 l 519 64 q 428 14 481 32 q 326 -4 376 -4 q 183 31 247 -4 q 81 129 118 65 q 43 278 43 193 q 78 427 43 364 q 176 524 114 490 q 318 558 239 558 q 425 539 369 558 q 519 488 481 519 l 519 546 l 688 546 m 121 272 q 182 112 121 172 q 339 51 243 51 q 432 69 383 51 q 519 118 481 88 l 519 438 q 425 486 476 468 q 326 504 374 504 q 178 441 235 504 q 121 272 121 378 m 338 653 q 298 669 314 653 q 282 704 282 685 q 297 742 282 726 q 338 757 313 757 q 377 742 363 757 q 392 704 392 728 q 378 669 393 685 q 338 653 364 653 z "},"ḡ":{"ha":703,"x_min":43,"x_max":688,"o":"m 688 546 l 688 492 l 594 492 l 594 -12 q 522 -198 594 -137 q 325 -258 450 -258 q 125 -226 239 -258 l 139 -167 q 324 -199 246 -199 q 469 -153 419 -199 q 519 -19 519 -107 l 519 64 q 428 14 481 32 q 326 -4 376 -4 q 183 31 247 -4 q 81 129 118 65 q 43 278 43 193 q 78 427 43 364 q 176 524 114 490 q 318 558 239 558 q 425 539 369 558 q 519 488 481 519 l 519 546 l 688 546 m 121 272 q 182 112 121 172 q 339 51 243 51 q 432 69 383 51 q 519 118 481 88 l 519 438 q 425 486 476 468 q 326 504 374 504 q 178 441 235 504 q 121 272 121 378 m 200 710 l 475 710 l 475 663 l 200 663 l 200 710 z "},"h":{"ha":700,"x_min":15,"x_max":685,"o":"m 685 54 l 685 0 l 404 0 l 404 54 l 507 54 l 507 378 q 476 469 507 436 q 392 501 444 501 q 192 432 311 501 l 192 54 l 285 54 l 285 0 l 15 0 l 15 54 l 117 54 l 117 742 l 18 742 l 18 796 l 192 796 l 192 483 q 303 540 253 521 q 407 560 354 560 q 533 513 485 560 q 582 383 582 465 l 582 54 l 685 54 z "},"ħ":{"ha":700,"x_min":15,"x_max":685,"o":"m 685 54 l 685 0 l 404 0 l 404 54 l 507 54 l 507 378 q 476 469 507 436 q 392 501 444 501 q 192 432 311 501 l 192 54 l 285 54 l 285 0 l 15 0 l 15 54 l 117 54 l 117 742 l 18 742 l 18 796 l 192 796 l 192 483 q 303 540 253 521 q 407 560 354 560 q 533 513 485 560 q 582 383 582 465 l 582 54 l 685 54 m 17 961 l 292 961 l 292 914 l 17 914 l 17 961 z "},"ḫ":{"ha":700,"x_min":15,"x_max":685,"o":"m 685 54 l 685 0 l 404 0 l 404 54 l 507 54 l 507 378 q 476 469 507 436 q 392 501 444 501 q 192 432 311 501 l 192 54 l 285 54 l 285 0 l 15 0 l 15 54 l 117 54 l 117 742 l 18 742 l 18 796 l 192 796 l 192 483 q 303 540 253 521 q 407 560 354 560 q 533 513 485 560 q 582 383 582 465 l 582 54 l 685 54 m 343 -189 q 258 -158 292 -189 q 217 -71 224 -126 l 267 -71 q 346 -142 282 -142 q 397 -124 376 -142 q 424 -71 417 -106 l 475 -71 q 432 -158 467 -128 q 343 -189 397 -189 z "},"ȟ":{"ha":700,"x_min":6,"x_max":685,"o":"m 685 54 l 685 0 l 404 0 l 404 54 l 507 54 l 507 378 q 476 469 507 436 q 392 501 444 501 q 192 432 311 501 l 192 54 l 285 54 l 285 0 l 15 0 l 15 54 l 117 54 l 117 742 l 18 742 l 18 796 l 192 796 l 192 483 q 303 540 253 521 q 407 560 354 560 q 533 513 485 560 q 582 383 582 465 l 582 54 l 685 54 m 6 1099 l 61 1099 l 156 936 l 247 1099 l 301 1099 l 188 889 l 122 889 l 6 1099 z "},"ĥ":{"ha":700,"x_min":1,"x_max":685,"o":"m 685 54 l 685 0 l 404 0 l 404 54 l 507 54 l 507 378 q 476 469 507 436 q 392 501 444 501 q 192 432 311 501 l 192 54 l 285 54 l 285 0 l 15 0 l 15 54 l 117 54 l 117 742 l 18 742 l 18 796 l 192 796 l 192 483 q 303 540 253 521 q 407 560 354 560 q 533 513 485 560 q 582 383 582 465 l 582 54 l 685 54 m 118 1092 l 192 1092 l 307 878 l 250 878 l 154 1054 l 58 878 l 1 878 l 118 1092 z "},"ḥ":{"ha":700,"x_min":15,"x_max":685,"o":"m 685 54 l 685 0 l 404 0 l 404 54 l 507 54 l 507 378 q 476 469 507 436 q 392 501 444 501 q 192 432 311 501 l 192 54 l 285 54 l 285 0 l 15 0 l 15 54 l 117 54 l 117 742 l 18 742 l 18 796 l 192 796 l 192 483 q 303 540 253 521 q 407 560 354 560 q 533 513 485 560 q 582 383 582 465 l 582 54 l 685 54 m 346 -174 q 306 -158 322 -174 q 290 -122 290 -143 q 306 -85 290 -100 q 346 -71 321 -71 q 385 -85 371 -71 q 400 -122 400 -100 q 387 -158 401 -142 q 346 -174 372 -174 z "},"i":{"ha":353,"x_min":28,"x_max":322,"o":"m 165 675 q 124 691 140 675 q 107 731 107 707 q 124 769 107 754 q 165 785 140 785 q 207 769 190 785 q 224 731 224 754 q 207 691 224 707 q 165 675 190 675 m 28 54 l 140 54 l 140 492 l 29 492 l 29 546 l 214 546 l 214 54 l 322 54 l 322 0 l 28 0 l 28 54 z "},"ı":{"ha":351,"x_min":28,"x_max":321,"o":"m 28 54 l 140 54 l 140 492 l 29 492 l 29 546 l 214 546 l 214 54 l 321 54 l 321 0 l 28 0 l 28 54 z "},"í":{"ha":351,"x_min":28,"x_max":321,"o":"m 28 54 l 140 54 l 140 492 l 29 492 l 29 546 l 214 546 l 214 54 l 321 54 l 321 0 l 28 0 l 28 54 m 213 854 l 296 854 l 190 667 l 144 667 l 213 854 z "},"ĭ":{"ha":351,"x_min":28,"x_max":321,"o":"m 28 54 l 140 54 l 140 492 l 29 492 l 29 546 l 214 546 l 214 54 l 321 54 l 321 0 l 28 0 l 28 54 m 163 646 q 77 677 111 646 q 36 764 43 708 l 86 764 q 165 693 101 693 q 216 711 196 693 q 243 764 236 729 l 294 764 q 251 676 286 707 q 163 646 217 646 z "},"ǐ":{"ha":351,"x_min":17,"x_max":321,"o":"m 28 54 l 140 54 l 140 492 l 29 492 l 29 546 l 214 546 l 214 54 l 321 54 l 321 0 l 28 0 l 28 54 m 17 847 l 72 847 l 167 685 l 258 847 l 313 847 l 199 638 l 133 638 l 17 847 z "},"î":{"ha":351,"x_min":13,"x_max":321,"o":"m 28 54 l 140 54 l 140 492 l 29 492 l 29 546 l 214 546 l 214 54 l 321 54 l 321 0 l 28 0 l 28 54 m 129 840 l 203 840 l 318 626 l 261 626 l 165 803 l 69 626 l 13 626 l 129 840 z "},"ȉ":{"ha":351,"x_min":-68,"x_max":321,"o":"m 28 54 l 140 54 l 140 492 l 29 492 l 29 546 l 214 546 l 214 54 l 321 54 l 321 0 l 28 0 l 28 54 m -68 874 l 15 874 l 92 667 l 46 667 l -68 874 m 96 874 l 179 874 l 254 667 l 210 667 l 96 874 z "},"ï":{"ha":351,"x_min":-6,"x_max":336,"o":"m 28 54 l 140 54 l 140 492 l 29 492 l 29 546 l 214 546 l 214 54 l 321 54 l 321 0 l 28 0 l 28 54 m 43 651 q 8 664 21 651 q -6 699 -6 676 q 8 732 -6 719 q 43 744 21 744 q 78 732 65 744 q 90 699 90 719 q 78 664 90 676 q 43 651 65 651 m 288 651 q 253 664 267 651 q 240 697 240 676 q 253 732 240 719 q 288 744 267 744 q 323 732 310 744 q 336 697 336 719 q 323 664 336 676 q 288 651 310 651 z "},"ḯ":{"ha":351,"x_min":-6,"x_max":336,"o":"m 28 54 l 140 54 l 140 492 l 29 492 l 29 546 l 214 546 l 214 54 l 321 54 l 321 0 l 28 0 l 28 54 m 43 651 q 8 664 21 651 q -6 699 -6 676 q 8 732 -6 719 q 43 744 21 744 q 78 732 65 744 q 90 699 90 719 q 78 664 90 676 q 43 651 65 651 m 288 651 q 253 664 267 651 q 240 697 240 676 q 253 732 240 719 q 288 744 267 744 q 323 732 310 744 q 336 697 336 719 q 323 664 336 676 q 288 651 310 651 m 213 1058 l 296 1058 l 190 871 l 144 871 l 213 1058 z "},"ị":{"ha":353,"x_min":28,"x_max":322,"o":"m 165 675 q 124 691 140 675 q 107 731 107 707 q 124 769 107 754 q 165 785 140 785 q 207 769 190 785 q 224 731 224 754 q 207 691 224 707 q 165 675 190 675 m 28 54 l 140 54 l 140 492 l 29 492 l 29 546 l 214 546 l 214 54 l 322 54 l 322 0 l 28 0 l 28 54 m 178 -174 q 138 -158 154 -174 q 122 -122 122 -143 q 138 -85 122 -100 q 178 -71 153 -71 q 217 -85 203 -71 q 232 -122 232 -100 q 219 -158 233 -142 q 178 -174 204 -174 z "},"ì":{"ha":351,"x_min":28,"x_max":321,"o":"m 28 54 l 140 54 l 140 492 l 29 492 l 29 546 l 214 546 l 214 54 l 321 54 l 321 0 l 28 0 l 28 54 m 35 854 l 118 854 l 186 667 l 140 667 l 35 854 z "},"ỉ":{"ha":351,"x_min":28,"x_max":321,"o":"m 28 54 l 140 54 l 140 492 l 29 492 l 29 546 l 214 546 l 214 54 l 321 54 l 321 0 l 28 0 l 28 54 m 149 654 q 193 703 193 669 q 181 731 193 721 q 146 742 168 742 q 86 724 118 742 l 68 769 q 151 792 107 792 q 223 767 196 792 q 250 706 250 743 q 165 607 250 633 l 149 654 z "},"ȋ":{"ha":351,"x_min":28,"x_max":321,"o":"m 28 54 l 140 54 l 140 492 l 29 492 l 29 546 l 214 546 l 214 54 l 321 54 l 321 0 l 28 0 l 28 54 m 31 639 q 74 730 39 697 q 165 763 110 763 q 256 730 221 763 q 299 639 292 697 l 242 639 q 165 707 225 707 q 89 639 104 707 l 31 639 z "},"ĳ":{"ha":669,"x_min":28,"x_max":586,"o":"m 165 675 q 124 691 140 675 q 107 731 107 707 q 124 769 107 754 q 165 785 140 785 q 207 769 190 785 q 224 731 224 754 q 207 691 224 707 q 165 675 190 675 m 28 54 l 140 54 l 140 492 l 29 492 l 29 546 l 214 546 l 214 54 l 322 54 l 322 0 l 28 0 l 28 54 m 528 676 q 486 692 503 676 q 469 732 469 707 q 486 769 469 754 q 528 785 503 785 q 569 769 553 785 q 586 732 586 754 q 569 692 586 707 q 528 676 553 676 m 363 -135 l 415 -135 q 487 -110 468 -135 q 506 -24 506 -85 l 506 493 l 397 493 l 397 546 l 583 546 l 583 -10 q 548 -147 583 -101 q 414 -193 513 -193 l 363 -193 l 363 -135 z "},"ī":{"ha":351,"x_min":28,"x_max":321,"o":"m 28 54 l 140 54 l 140 492 l 29 492 l 29 546 l 214 546 l 214 54 l 321 54 l 321 0 l 28 0 l 28 54 m 28 710 l 303 710 l 303 663 l 28 663 l 28 710 z "},"į":{"ha":351,"x_min":28,"x_max":321,"o":"m 28 54 l 140 54 l 140 492 l 29 492 l 29 546 l 214 546 l 214 54 l 321 54 l 321 0 l 28 0 l 28 54 m 158 -225 q 85 -199 115 -225 q 56 -131 56 -172 q 131 0 56 -68 l 178 0 q 113 -115 113 -68 q 131 -160 113 -144 q 176 -176 149 -176 q 240 -156 210 -176 l 240 -199 q 158 -225 197 -225 m 165 653 q 126 669 142 653 q 110 704 110 685 q 125 742 110 726 q 165 757 140 757 q 205 742 190 757 q 219 704 219 728 q 206 669 221 685 q 165 653 192 653 z "},"ĩ":{"ha":351,"x_min":1,"x_max":329,"o":"m 28 54 l 140 54 l 140 492 l 29 492 l 29 546 l 214 546 l 214 54 l 321 54 l 321 0 l 28 0 l 28 54 m 247 661 q 207 668 226 661 q 154 690 188 675 q 115 708 135 700 q 79 715 94 715 q 38 664 43 715 l 1 664 q 27 743 4 715 q 88 771 50 771 q 175 742 117 771 q 250 717 228 717 q 294 768 289 717 l 329 768 q 247 661 325 661 z "},"j":{"ha":317,"x_min":10,"x_max":233,"o":"m 175 676 q 133 692 150 676 q 117 732 117 707 q 133 769 117 754 q 175 785 150 785 q 217 769 200 785 q 233 732 233 754 q 217 692 233 707 q 175 676 200 676 m 10 -135 l 63 -135 q 134 -110 115 -135 q 153 -24 153 -85 l 153 493 l 44 493 l 44 546 l 231 546 l 231 -10 q 195 -147 231 -101 q 61 -193 160 -193 l 10 -193 l 10 -135 z "},"ȷ":{"ha":314,"x_min":10,"x_max":229,"o":"m 10 -135 l 63 -135 q 134 -109 115 -135 q 153 -21 153 -83 l 153 492 l 38 492 l 38 546 l 229 546 l 229 -4 q 217 -106 229 -65 q 167 -169 204 -146 q 61 -193 131 -193 l 10 -193 l 10 -135 z "},"ǰ":{"ha":314,"x_min":-4,"x_max":292,"o":"m 10 -135 l 63 -135 q 134 -109 115 -135 q 153 -21 153 -83 l 153 492 l 38 492 l 38 546 l 229 546 l 229 -4 q 217 -106 229 -65 q 167 -169 204 -146 q 61 -193 131 -193 l 10 -193 l 10 -135 m -4 847 l 51 847 l 146 685 l 238 847 l 292 847 l 178 638 l 113 638 l -4 847 z "},"ĵ":{"ha":314,"x_min":-8,"x_max":297,"o":"m 10 -135 l 63 -135 q 134 -109 115 -135 q 153 -21 153 -83 l 153 492 l 38 492 l 38 546 l 229 546 l 229 -4 q 217 -106 229 -65 q 167 -169 204 -146 q 61 -193 131 -193 l 10 -193 l 10 -135 m 108 840 l 182 840 l 297 626 l 240 626 l 144 803 l 49 626 l -8 626 l 108 840 z "},"k":{"ha":679,"x_min":39,"x_max":654,"o":"m 39 54 l 140 54 l 140 742 l 43 742 l 43 796 l 215 796 l 215 290 l 478 492 l 374 492 l 374 546 l 650 546 l 650 492 l 560 492 l 296 285 l 539 54 l 654 54 l 654 0 l 503 0 l 215 275 l 215 54 l 310 54 l 310 0 l 39 0 l 39 54 z "},"ǩ":{"ha":679,"x_min":31,"x_max":654,"o":"m 39 54 l 140 54 l 140 742 l 43 742 l 43 796 l 215 796 l 215 290 l 478 492 l 374 492 l 374 546 l 650 546 l 650 492 l 560 492 l 296 285 l 539 54 l 654 54 l 654 0 l 503 0 l 215 275 l 215 54 l 310 54 l 310 0 l 39 0 l 39 54 m 31 1097 l 86 1097 l 181 935 l 272 1097 l 326 1097 l 213 888 l 147 888 l 31 1097 z "},"ķ":{"ha":679,"x_min":39,"x_max":654,"o":"m 39 54 l 140 54 l 140 742 l 43 742 l 43 796 l 215 796 l 215 290 l 478 492 l 374 492 l 374 546 l 650 546 l 650 492 l 560 492 l 296 285 l 539 54 l 654 54 l 654 0 l 503 0 l 215 275 l 215 54 l 310 54 l 310 0 l 39 0 l 39 54 m 313 -265 q 363 -235 349 -260 q 378 -167 378 -211 l 319 -167 l 319 -71 l 422 -71 l 422 -172 q 313 -297 422 -299 l 313 -265 z "},"ĸ":{"ha":688,"x_min":51,"x_max":661,"o":"m 51 54 l 149 54 l 149 492 l 54 492 l 54 546 l 224 546 l 224 54 l 310 54 l 310 0 l 51 0 l 51 54 m 226 274 l 475 492 l 378 492 l 378 546 l 656 546 l 656 492 l 561 492 l 315 275 l 554 54 l 661 54 l 661 0 l 519 0 l 226 274 z "},"l":{"ha":339,"x_min":38,"x_max":308,"o":"m 38 54 l 139 54 l 139 742 l 42 742 l 42 796 l 214 796 l 214 54 l 308 54 l 308 0 l 38 0 l 38 54 z "},"ĺ":{"ha":339,"x_min":38,"x_max":308,"o":"m 38 54 l 139 54 l 139 742 l 42 742 l 42 796 l 214 796 l 214 54 l 308 54 l 308 0 l 38 0 l 38 54 m 224 1106 l 307 1106 l 201 918 l 156 918 l 224 1106 z "},"ľ":{"ha":339,"x_min":38,"x_max":374,"o":"m 38 54 l 139 54 l 139 742 l 42 742 l 42 796 l 214 796 l 214 54 l 308 54 l 308 0 l 38 0 l 38 54 m 267 603 q 315 628 301 608 q 329 694 329 647 l 269 694 l 269 796 l 374 796 l 372 692 q 267 571 375 571 l 267 603 z "},"ļ":{"ha":339,"x_min":38,"x_max":308,"o":"m 38 54 l 139 54 l 139 742 l 42 742 l 42 796 l 214 796 l 214 54 l 308 54 l 308 0 l 38 0 l 38 54 m 122 -265 q 173 -235 158 -260 q 188 -167 188 -211 l 129 -167 l 129 -71 l 232 -71 l 232 -172 q 122 -297 232 -299 l 122 -265 z "},"ŀ":{"ha":339,"x_min":38,"x_max":407,"o":"m 38 54 l 139 54 l 139 742 l 42 742 l 42 796 l 214 796 l 214 54 l 308 54 l 308 0 l 38 0 l 38 54 m 349 385 q 306 401 324 385 q 289 440 289 417 q 306 481 289 465 q 349 497 324 497 q 390 481 374 497 q 407 440 407 465 q 390 401 407 417 q 349 385 374 385 z "},"ḷ":{"ha":339,"x_min":38,"x_max":308,"o":"m 38 54 l 139 54 l 139 742 l 42 742 l 42 796 l 214 796 l 214 54 l 308 54 l 308 0 l 38 0 l 38 54 m 176 -174 q 137 -158 153 -174 q 121 -122 121 -143 q 136 -85 121 -100 q 176 -71 151 -71 q 216 -85 201 -71 q 231 -122 231 -100 q 217 -158 232 -142 q 176 -174 203 -174 z "},"ǉ":{"ha":656,"x_min":38,"x_max":572,"o":"m 38 54 l 139 54 l 139 742 l 42 742 l 42 796 l 214 796 l 214 54 l 308 54 l 308 0 l 38 0 l 38 54 m 514 676 q 472 692 489 676 q 456 732 456 707 q 472 769 456 754 q 514 785 489 785 q 556 769 539 785 q 572 732 572 754 q 556 692 572 707 q 514 676 539 676 m 349 -135 l 401 -135 q 473 -110 454 -135 q 492 -24 492 -85 l 492 493 l 383 493 l 383 546 l 569 546 l 569 -10 q 534 -147 569 -101 q 400 -193 499 -193 l 349 -193 l 349 -135 z "},"ḻ":{"ha":339,"x_min":38,"x_max":314,"o":"m 38 54 l 139 54 l 139 742 l 42 742 l 42 796 l 214 796 l 214 54 l 308 54 l 308 0 l 38 0 l 38 54 m 39 -61 l 314 -61 l 314 -108 l 39 -108 l 39 -61 z "},"ł":{"ha":333,"x_min":33,"x_max":314,"o":"m 214 383 l 214 54 l 308 54 l 308 0 l 38 0 l 38 54 l 139 54 l 139 342 l 33 283 l 33 349 l 139 408 l 139 742 l 42 742 l 42 796 l 214 796 l 214 450 l 314 507 l 314 439 l 214 383 z "},"m":{"ha":1082,"x_min":28,"x_max":1079,"o":"m 1079 54 l 1079 0 l 800 0 l 800 54 l 904 54 l 904 378 q 872 469 904 436 q 786 501 840 501 q 688 483 740 501 q 589 432 636 465 q 594 381 594 411 l 594 54 l 694 54 l 694 0 l 417 0 l 417 54 l 519 54 l 519 378 q 488 469 519 436 q 403 501 457 501 q 214 439 332 501 l 214 54 l 321 54 l 321 0 l 28 0 l 28 54 l 140 54 l 140 492 l 29 492 l 29 546 l 214 546 l 214 490 q 321 542 267 524 q 421 560 375 560 q 513 538 474 560 q 572 476 551 515 q 691 539 638 518 q 804 560 744 560 q 929 513 881 560 q 978 383 978 465 l 978 54 l 1079 54 z "},"ṁ":{"ha":1082,"x_min":28,"x_max":1079,"o":"m 1079 54 l 1079 0 l 800 0 l 800 54 l 904 54 l 904 378 q 872 469 904 436 q 786 501 840 501 q 688 483 740 501 q 589 432 636 465 q 594 381 594 411 l 594 54 l 694 54 l 694 0 l 417 0 l 417 54 l 519 54 l 519 378 q 488 469 519 436 q 403 501 457 501 q 214 439 332 501 l 214 54 l 321 54 l 321 0 l 28 0 l 28 54 l 140 54 l 140 492 l 29 492 l 29 546 l 214 546 l 214 490 q 321 542 267 524 q 421 560 375 560 q 513 538 474 560 q 572 476 551 515 q 691 539 638 518 q 804 560 744 560 q 929 513 881 560 q 978 383 978 465 l 978 54 l 1079 54 m 567 653 q 527 669 543 653 q 511 704 511 685 q 526 742 511 726 q 567 757 542 757 q 606 742 592 757 q 621 704 621 728 q 608 669 622 685 q 567 653 593 653 z "},"ṃ":{"ha":1082,"x_min":28,"x_max":1079,"o":"m 1079 54 l 1079 0 l 800 0 l 800 54 l 904 54 l 904 378 q 872 469 904 436 q 786 501 840 501 q 688 483 740 501 q 589 432 636 465 q 594 381 594 411 l 594 54 l 694 54 l 694 0 l 417 0 l 417 54 l 519 54 l 519 378 q 488 469 519 436 q 403 501 457 501 q 214 439 332 501 l 214 54 l 321 54 l 321 0 l 28 0 l 28 54 l 140 54 l 140 492 l 29 492 l 29 546 l 214 546 l 214 490 q 321 542 267 524 q 421 560 375 560 q 513 538 474 560 q 572 476 551 515 q 691 539 638 518 q 804 560 744 560 q 929 513 881 560 q 978 383 978 465 l 978 54 l 1079 54 m 557 -174 q 517 -158 533 -174 q 501 -122 501 -143 q 517 -85 501 -100 q 557 -71 532 -71 q 597 -85 582 -71 q 611 -122 611 -100 q 598 -158 613 -142 q 557 -174 583 -174 z "},"n":{"ha":706,"x_min":28,"x_max":703,"o":"m 703 54 l 703 0 l 422 0 l 422 54 l 525 54 l 525 378 q 494 469 525 436 q 408 501 463 501 q 214 435 329 501 l 214 54 l 321 54 l 321 0 l 28 0 l 28 54 l 140 54 l 140 492 l 29 492 l 29 546 l 214 546 l 214 488 q 426 560 335 560 q 551 513 503 560 q 600 383 600 465 l 600 54 l 703 54 z "},"ń":{"ha":706,"x_min":28,"x_max":703,"o":"m 703 54 l 703 0 l 422 0 l 422 54 l 525 54 l 525 378 q 494 469 525 436 q 408 501 463 501 q 214 435 329 501 l 214 54 l 321 54 l 321 0 l 28 0 l 28 54 l 140 54 l 140 492 l 29 492 l 29 546 l 214 546 l 214 488 q 426 560 335 560 q 551 513 503 560 q 600 383 600 465 l 600 54 l 703 54 m 428 854 l 511 854 l 406 667 l 360 667 l 428 854 z "},"ŉ":{"ha":988,"x_min":139,"x_max":985,"o":"m 139 651 q 188 676 174 657 q 201 743 201 696 l 142 743 l 142 844 l 246 844 l 244 740 q 139 619 247 619 l 139 651 m 985 54 l 985 0 l 704 0 l 704 54 l 807 54 l 807 378 q 776 469 807 436 q 690 501 744 501 q 496 435 611 501 l 496 54 l 603 54 l 603 0 l 310 0 l 310 54 l 422 54 l 422 492 l 311 492 l 311 546 l 496 546 l 496 488 q 708 560 617 560 q 833 513 785 560 q 882 383 882 465 l 882 54 l 985 54 z "},"ň":{"ha":706,"x_min":28,"x_max":703,"o":"m 703 54 l 703 0 l 422 0 l 422 54 l 525 54 l 525 378 q 494 469 525 436 q 408 501 463 501 q 214 435 329 501 l 214 54 l 321 54 l 321 0 l 28 0 l 28 54 l 140 54 l 140 492 l 29 492 l 29 546 l 214 546 l 214 488 q 426 560 335 560 q 551 513 503 560 q 600 383 600 465 l 600 54 l 703 54 m 232 847 l 288 847 l 382 685 l 474 847 l 528 847 l 414 638 l 349 638 l 232 847 z "},"ņ":{"ha":706,"x_min":28,"x_max":703,"o":"m 703 54 l 703 0 l 422 0 l 422 54 l 525 54 l 525 378 q 494 469 525 436 q 408 501 463 501 q 214 435 329 501 l 214 54 l 321 54 l 321 0 l 28 0 l 28 54 l 140 54 l 140 492 l 29 492 l 29 546 l 214 546 l 214 488 q 426 560 335 560 q 551 513 503 560 q 600 383 600 465 l 600 54 l 703 54 m 326 -265 q 377 -235 363 -260 q 392 -167 392 -211 l 333 -167 l 333 -71 l 436 -71 l 436 -172 q 326 -297 436 -299 l 326 -265 z "},"ṅ":{"ha":706,"x_min":28,"x_max":703,"o":"m 703 54 l 703 0 l 422 0 l 422 54 l 525 54 l 525 378 q 494 469 525 436 q 408 501 463 501 q 214 435 329 501 l 214 54 l 321 54 l 321 0 l 28 0 l 28 54 l 140 54 l 140 492 l 29 492 l 29 546 l 214 546 l 214 488 q 426 560 335 560 q 551 513 503 560 q 600 383 600 465 l 600 54 l 703 54 m 381 653 q 341 669 357 653 q 325 704 325 685 q 340 742 325 726 q 381 757 356 757 q 420 742 406 757 q 435 704 435 728 q 422 669 436 685 q 381 653 407 653 z "},"ṇ":{"ha":706,"x_min":28,"x_max":703,"o":"m 703 54 l 703 0 l 422 0 l 422 54 l 525 54 l 525 378 q 494 469 525 436 q 408 501 463 501 q 214 435 329 501 l 214 54 l 321 54 l 321 0 l 28 0 l 28 54 l 140 54 l 140 492 l 29 492 l 29 546 l 214 546 l 214 488 q 426 560 335 560 q 551 513 503 560 q 600 383 600 465 l 600 54 l 703 54 m 381 -174 q 341 -158 357 -174 q 325 -122 325 -143 q 340 -85 325 -100 q 381 -71 356 -71 q 420 -85 406 -71 q 435 -122 435 -100 q 422 -158 436 -142 q 381 -174 407 -174 z "},"ǹ":{"ha":706,"x_min":28,"x_max":703,"o":"m 703 54 l 703 0 l 422 0 l 422 54 l 525 54 l 525 378 q 494 469 525 436 q 408 501 463 501 q 214 435 329 501 l 214 54 l 321 54 l 321 0 l 28 0 l 28 54 l 140 54 l 140 492 l 29 492 l 29 546 l 214 546 l 214 488 q 426 560 335 560 q 551 513 503 560 q 600 383 600 465 l 600 54 l 703 54 m 250 854 l 333 854 l 401 667 l 356 667 l 250 854 z "},"ŋ":{"ha":706,"x_min":28,"x_max":600,"o":"m 326 -179 q 525 0 525 -179 l 525 378 q 494 469 525 436 q 408 501 463 501 q 214 436 333 501 l 214 54 l 321 54 l 321 0 l 28 0 l 28 54 l 140 54 l 140 492 l 29 492 l 29 546 l 214 546 l 214 488 q 325 540 269 521 q 426 560 381 560 q 551 513 503 560 q 600 383 600 465 l 600 8 q 526 -175 600 -117 q 326 -233 453 -233 l 326 -179 z "},"ǌ":{"ha":1022,"x_min":28,"x_max":939,"o":"m 703 54 l 703 0 l 422 0 l 422 54 l 525 54 l 525 378 q 494 469 525 436 q 408 501 463 501 q 214 435 329 501 l 214 54 l 321 54 l 321 0 l 28 0 l 28 54 l 140 54 l 140 492 l 29 492 l 29 546 l 214 546 l 214 488 q 426 560 335 560 q 551 513 503 560 q 600 383 600 465 l 600 54 l 703 54 m 881 676 q 839 692 856 676 q 822 732 822 707 q 839 769 822 754 q 881 785 856 785 q 922 769 906 785 q 939 732 939 754 q 922 692 939 707 q 881 676 906 676 m 715 -135 l 768 -135 q 840 -110 821 -135 q 858 -24 858 -85 l 858 493 l 750 493 l 750 546 l 936 546 l 936 -10 q 901 -147 936 -101 q 767 -193 865 -193 l 715 -193 l 715 -135 z "},"ṉ":{"ha":706,"x_min":28,"x_max":703,"o":"m 703 54 l 703 0 l 422 0 l 422 54 l 525 54 l 525 378 q 494 469 525 436 q 408 501 463 501 q 214 435 329 501 l 214 54 l 321 54 l 321 0 l 28 0 l 28 54 l 140 54 l 140 492 l 29 492 l 29 546 l 214 546 l 214 488 q 426 560 335 560 q 551 513 503 560 q 600 383 600 465 l 600 54 l 703 54 m 243 -61 l 518 -61 l 518 -108 l 243 -108 l 243 -61 z "},"ñ":{"ha":706,"x_min":28,"x_max":703,"o":"m 703 54 l 703 0 l 422 0 l 422 54 l 525 54 l 525 378 q 494 469 525 436 q 408 501 463 501 q 214 435 329 501 l 214 54 l 321 54 l 321 0 l 28 0 l 28 54 l 140 54 l 140 492 l 29 492 l 29 546 l 214 546 l 214 488 q 426 560 335 560 q 551 513 503 560 q 600 383 600 465 l 600 54 l 703 54 m 463 661 q 422 668 442 661 q 369 690 403 675 q 330 708 350 700 q 294 715 310 715 q 253 664 258 715 l 217 664 q 242 743 219 715 q 303 771 265 771 q 390 742 332 771 q 465 717 443 717 q 510 768 504 717 l 544 768 q 463 661 540 661 z "},"o":{"ha":664,"x_min":38,"x_max":626,"o":"m 331 -17 q 178 20 244 -17 q 74 123 111 57 q 38 275 38 189 q 74 424 38 360 q 178 525 111 489 q 331 561 244 561 q 484 525 417 561 q 589 424 551 489 q 626 275 626 360 q 589 123 626 189 q 484 20 551 57 q 331 -17 417 -17 m 331 42 q 490 106 429 42 q 550 275 550 171 q 490 440 550 376 q 331 503 429 503 q 174 440 233 503 q 114 275 114 376 q 174 106 114 171 q 331 42 233 42 z "},"ó":{"ha":664,"x_min":38,"x_max":626,"o":"m 331 -17 q 178 20 244 -17 q 74 123 111 57 q 38 275 38 189 q 74 424 38 360 q 178 525 111 489 q 331 561 244 561 q 484 525 417 561 q 589 424 551 489 q 626 275 626 360 q 589 123 626 189 q 484 20 551 57 q 331 -17 417 -17 m 331 42 q 490 106 429 42 q 550 275 550 171 q 490 440 550 376 q 331 503 429 503 q 174 440 233 503 q 114 275 114 376 q 174 106 114 171 q 331 42 233 42 m 376 854 l 460 854 l 354 667 l 308 667 l 376 854 z "},"ŏ":{"ha":664,"x_min":38,"x_max":626,"o":"m 331 -17 q 178 20 244 -17 q 74 123 111 57 q 38 275 38 189 q 74 424 38 360 q 178 525 111 489 q 331 561 244 561 q 484 525 417 561 q 589 424 551 489 q 626 275 626 360 q 589 123 626 189 q 484 20 551 57 q 331 -17 417 -17 m 331 42 q 490 106 429 42 q 550 275 550 171 q 490 440 550 376 q 331 503 429 503 q 174 440 233 503 q 114 275 114 376 q 174 106 114 171 q 331 42 233 42 m 326 646 q 241 677 275 646 q 200 764 207 708 l 250 764 q 329 693 265 693 q 380 711 360 693 q 407 764 400 729 l 458 764 q 415 676 450 707 q 326 646 381 646 z "},"ǒ":{"ha":664,"x_min":38,"x_max":626,"o":"m 331 -17 q 178 20 244 -17 q 74 123 111 57 q 38 275 38 189 q 74 424 38 360 q 178 525 111 489 q 331 561 244 561 q 484 525 417 561 q 589 424 551 489 q 626 275 626 360 q 589 123 626 189 q 484 20 551 57 q 331 -17 417 -17 m 331 42 q 490 106 429 42 q 550 275 550 171 q 490 440 550 376 q 331 503 429 503 q 174 440 233 503 q 114 275 114 376 q 174 106 114 171 q 331 42 233 42 m 181 847 l 236 847 l 331 685 l 422 847 l 476 847 l 363 638 l 297 638 l 181 847 z "},"ô":{"ha":664,"x_min":38,"x_max":626,"o":"m 331 -17 q 178 20 244 -17 q 74 123 111 57 q 38 275 38 189 q 74 424 38 360 q 178 525 111 489 q 331 561 244 561 q 484 525 417 561 q 589 424 551 489 q 626 275 626 360 q 589 123 626 189 q 484 20 551 57 q 331 -17 417 -17 m 331 42 q 490 106 429 42 q 550 275 550 171 q 490 440 550 376 q 331 503 429 503 q 174 440 233 503 q 114 275 114 376 q 174 106 114 171 q 331 42 233 42 m 293 840 l 367 840 l 482 626 l 425 626 l 329 803 l 233 626 l 176 626 l 293 840 z "},"ố":{"ha":664,"x_min":38,"x_max":626,"o":"m 331 -17 q 178 20 244 -17 q 74 123 111 57 q 38 275 38 189 q 74 424 38 360 q 178 525 111 489 q 331 561 244 561 q 484 525 417 561 q 589 424 551 489 q 626 275 626 360 q 589 123 626 189 q 484 20 551 57 q 331 -17 417 -17 m 331 42 q 490 106 429 42 q 550 275 550 171 q 490 440 550 376 q 331 503 429 503 q 174 440 233 503 q 114 275 114 376 q 174 106 114 171 q 331 42 233 42 m 497 908 l 572 908 l 486 750 l 439 750 l 497 908 m 293 799 l 367 799 l 482 626 l 425 626 l 329 761 l 233 626 l 176 626 l 293 799 z "},"ộ":{"ha":664,"x_min":38,"x_max":626,"o":"m 331 -17 q 178 20 244 -17 q 74 123 111 57 q 38 275 38 189 q 74 424 38 360 q 178 525 111 489 q 331 561 244 561 q 484 525 417 561 q 589 424 551 489 q 626 275 626 360 q 589 123 626 189 q 484 20 551 57 q 331 -17 417 -17 m 331 42 q 490 106 429 42 q 550 275 550 171 q 490 440 550 376 q 331 503 429 503 q 174 440 233 503 q 114 275 114 376 q 174 106 114 171 q 331 42 233 42 m 332 -174 q 292 -158 308 -174 q 276 -122 276 -143 q 292 -85 276 -100 q 332 -71 307 -71 q 372 -85 357 -71 q 386 -122 386 -100 q 373 -158 388 -142 q 332 -174 358 -174 m 293 840 l 367 840 l 482 626 l 425 626 l 329 803 l 233 626 l 176 626 l 293 840 z "},"ồ":{"ha":664,"x_min":38,"x_max":626,"o":"m 331 -17 q 178 20 244 -17 q 74 123 111 57 q 38 275 38 189 q 74 424 38 360 q 178 525 111 489 q 331 561 244 561 q 484 525 417 561 q 589 424 551 489 q 626 275 626 360 q 589 123 626 189 q 484 20 551 57 q 331 -17 417 -17 m 331 42 q 490 106 429 42 q 550 275 550 171 q 490 440 550 376 q 331 503 429 503 q 174 440 233 503 q 114 275 114 376 q 174 106 114 171 q 331 42 233 42 m 463 750 l 376 908 l 450 908 l 510 750 l 463 750 m 293 799 l 367 799 l 482 626 l 425 626 l 329 761 l 233 626 l 176 626 l 293 799 z "}}}
